{
.appVersion = "3257";
.formatVersion = 3;
customParameters = (
{
name = "Use Typo Metrics";
value = 1;
},
{
name = fsType;
value = (
);
}
);
date = "2024-04-18 12:32:25 +0000";
familyName = Damion;
featurePrefixes = (
{
automatic = 1;
code = "languagesystem DFLT dflt;

languagesystem latn dflt;
";
name = Languagesystems;
}
);
features = (
{
automatic = 1;
code = "feature sups;
feature frac;
feature ordn;
";
tag = aalt;
},
{
code = " # Kerning\\012 # Latin\\012lookup kern0 {\\012    pos T a -131;\\012    pos T a -62;\\012    pos T c -46;\\012    pos T i -131;\\012    pos T o -31;\\012    pos T o -61;\\012    pos T o -186;\\012    pos T u -186;\\012    pos T y -139;\\012} kern0;\\012 script DFLT;\\012lookup kern0;";
tag = kern;
},
{
automatic = 1;
code = "lookup ccmp_latn_1 {
	lookupflag 0;
	sub fi by f i;
	sub fl by f l;
} ccmp_latn_1;

script latn;
lookup ccmp_latn_1;
";
tag = ccmp;
},
{
automatic = 1;
code = "sub one by onesuperior;
sub two by twosuperior;
sub three by threesuperior;
sub four by foursuperior;
";
tag = sups;
},
{
automatic = 1;
code = "sub one slash four by onequarter;
sub one slash two by onehalf;
sub three slash four by threequarters;
";
tag = frac;
},
{
automatic = 1;
code = "sub [zero one two three four five six seven eight nine] [A a]' by ordfeminine;
sub [zero one two three four five six seven eight nine] [O o]' by ordmasculine;
";
tag = ordn;
},
{
automatic = 1;
code = "lookupflag IgnoreMarks;
sub f i by fi;
sub f l by fl;
";
tag = liga;
}
);
fontMaster = (
{
customParameters = (
{
name = typoAscender;
value = 2068;
},
{
name = typoDescender;
value = -746;
},
{
name = typoLineGap;
value = 0;
},
{
name = winAscent;
value = 2068;
},
{
name = winDescent;
value = 746;
},
{
name = hheaAscender;
value = 2068;
},
{
name = hheaDescender;
value = -746;
},
{
name = strikeoutPosition;
value = 512;
},
{
name = strikeoutSize;
value = 102;
}
);
guides = (
{
pos = (476,-459);
}
);
id = "DC66AB0F-19FD-4F06-8C39-5D32AA939720";
metricValues = (
{

glyphs = (
{
glyphname = A;
lastChange = "2024-04-18 13:49:51 +0000";
layers = (
{
anchors = (
{
name = bottom;
pos = (662,0);
},
{
name = ogonek;
pos = (1191,0);
},
{
name = top;
pos = (1259,1440);
}
);
background = {
shapes = (
{
closed = 1;
nodes = (
(1069.333,259.667,o),
(1060,224.333,o),
(1060,195,cs),
(1060,168.333,o),
(1065.333,147,o),
(1092,147,cs),
(1145.82,147,o),
(1235.668,210.041,o),
(1326,293.5,cs),
(1420.391,380.709,o),
(1511.695,478.619,o),
(1576,559,c),
(1613,426,l),
(1525,308.667,o),
(1431.167,196.667,o),
(1334.5,114,cs),
(1237.833,31.333,o),
(1140,-22,o),
(1044,-22,cs),
(930.195,-22,o),
(890,58.153,o),
(890,147,cs),
(890,203.276,o),
(898,255.224,o),
(898,307,c),
(543,285,l),
(378,283,l),
(350,222.333,o),
(322.333,168.667,o),
(295,122,cs),
(245.636,39.727,o),
(188.05,-38,o),
(138,-38,cs),
(60.545,-38,o),
(39,13.395,o),
(39,56,cs),
(39,90.667,o),
(48.667,125.333,o),
(66,156,cs),
(198,378,ls),
(214.724,404.015,o),
(254,483.747,o),
(305.5,575.5,cs),
(363.5,678.833,o),
(440.833,808.833,o),
(529.5,937.5,cs),
(618.167,1066.167,o),
(718.833,1192.5,o),
(823.5,1286.5,cs),
(928.167,1380.5,o),
(1035.667,1442,o),
(1141,1442,cs),
(1239.667,1442,o),
(1336.333,1385,o),
(1423,1245,c),
(1427.667,1235.667,o),
(1430,1227.667,o),
(1430,1221,cs),
(1430,1185.508,o),
(1389.651,1150,o),
(1350,1150,cs),
(1326,1150,o),
(1292,1157.333,o),
(1264,1192,cs),
(1222.667,1240,o),
(1177,1261,o),
(1133,1261,cs),
(1009.853,1261,o),
(870.24,1111.692,o),
(745,932,cs),
(683.667,844,o),
(625.667,749,o),
(575,665,cs),
(526.599,584.756,o),
(482.569,508.854,o),
(450,460,c),
(633,460,l),
(942,483,l),
(959.445,521.766,o),
(994.225,603.966,o),
(1040,708,cs),
(1082.176,803.855,o),
(1125.335,901.267,o),
(1170,1000,c),
(1187.333,1050.667,o),
(1224.333,1070,o),
(1263,1070,cs),
(1303.974,1070,o),
(1347.372,1045.554,o),
(1350,993,cs),
(1350,956.227,o),
(1293.843,822.082,o),
(1234.5,685.5,cs),
(1172.693,543.247,o),
(1102.379,379.21,o),
(1076,285,cs)
);
}
);
};
layerId = "DC66AB0F-19FD-4F06-8C39-5D32AA939720";
shapes = (
{
closed = 1;
nodes = (
(1069,260,o),
(1060,224,o),
(1060,195,cs),
(1060,168,o),
(1065,147,o),
(1092,147,cs),
(1146,147,o),
(1236,210,o),
(1326,294,cs),
(1420,381,o),
(1512,479,o),
(1576,559,c),
(1613,426,l),
(1525,309,o),
(1431,197,o),
(1335,114,cs),
(1238,31,o),
(1140,-22,o),
(1044,-22,cs),
(930,-22,o),
(890,58,o),
(890,147,cs),
(890,203,o),
(898,255,o),
(898,307,c),
(543,285,l),
(378,283,l),
(350,222,o),
(322,169,o),
(295,122,cs),
(246,40,o),
(188,-38,o),
(138,-38,cs),
(61,-38,o),
(39,13,o),
(39,56,cs),
(39,91,o),
(49,125,o),
(66,156,cs),
(198,378,ls),
(215,404,o),
(254,484,o),
(306,576,cs),
(364,679,o),
(441,809,o),
(530,938,cs),
(618,1066,o),
(719,1193,o),
(824,1287,cs),
(928,1381,o),
(1036,1442,o),
(1141,1442,cs),
(1240,1442,o),
(1336,1385,o),
(1423,1245,cs),
(1428,1236,o),
(1430,1228,o),
(1430,1221,cs),
(1430,1186,o),
(1390,1150,o),
(1350,1150,cs),
(1326,1150,o),
(1292,1157,o),
(1264,1192,cs),
(1223,1240,o),
(1177,1261,o),
(1133,1261,cs),
(1010,1261,o),
(870,1112,o),
(745,932,cs),
(684,844,o),
(626,749,o),
(575,665,cs),
(527,585,o),
(483,509,o),
(450,460,c),
(633,460,l),
(942,483,l),
(1040,708,l),
(1170,1000,l),
(1187,1051,o),
(1224,1070,o),
(1263,1070,cs),
(1304,1070,o),
(1347,1046,o),
(1350,993,cs),
(1350,956,o),
(1294,822,o),
(1235,686,cs),
(1173,543,o),
(1102,379,o),
(1076,285,cs)
);
}
);
width = 1323;
}
);
unicode = 65;
},
{
glyphname = Aacute;
lastChange = "2024-04-18 13:15:24 +0000";
layers = (
{
background = {
anchors = (
{
name = top;
pos = (1419,2029);
}
);
shapes = (
{
closed = 1;
nodes = (
(1069.333,259.667,o),
(1060,224.333,o),
(1060,195,cs),
(1060,168.333,o),
(1065.333,147,o),
(1092,147,cs),
(1145.82,147,o),
(1235.668,210.041,o),
(1326,293.5,cs),
(1420.391,380.709,o),
(1511.695,478.619,o),
(1576,559,c),
(1613,426,l),
(1525,308.667,o),
(1431.167,196.667,o),
(1334.5,114,cs),
(1237.833,31.333,o),
(1140,-22,o),
(1044,-22,cs),
(930.195,-22,o),
(890,58.153,o),
(890,147,cs),
(890,203.276,o),
(898,255.224,o),
(898,307,c),
(543,285,l),
(378,283,l),
(350,222.333,o),
(322.333,168.667,o),
(295,122,cs),
(245.636,39.727,o),
(188.05,-38,o),
(138,-38,cs),
(60.545,-38,o),
(39,13.395,o),
(39,56,cs),
(39,90.667,o),
(48.667,125.333,o),
(66,156,cs),
(198,378,ls),
(214.724,404.015,o),
(254,483.747,o),
(305.5,575.5,cs),
(363.5,678.833,o),
(440.833,808.833,o),
(529.5,937.5,cs),
(618.167,1066.167,o),
(718.833,1192.5,o),
(823.5,1286.5,cs),
(928.167,1380.5,o),
(1035.667,1442,o),
(1141,1442,cs),
(1239.667,1442,o),
(1336.333,1385,o),
(1423,1245,c),
(1427.667,1235.667,o),
(1430,1227.667,o),
(1430,1221,cs),
(1430,1185.508,o),
(1389.651,1150,o),
(1350,1150,cs),
(1326,1150,o),
(1292,1157.333,o),
(1264,1192,cs),
(1222.667,1240,o),
(1177,1261,o),
(1133,1261,cs),
(1009.853,1261,o),
(870.24,1111.692,o),
(745,932,cs),
(683.667,844,o),
(625.667,749,o),
(575,665,cs),
(526.599,584.756,o),
(482.569,508.854,o),
(450,460,c),
(633,460,l),
(942,483,l),
(959.445,521.766,o),
(994.225,603.966,o),
(1040,708,cs),
(1082.176,803.855,o),
(1125.335,901.267,o),
(1170,1000,c),
(1187.333,1050.667,o),
(1224.333,1070,o),
(1263,1070,cs),
(1303.974,1070,o),
(1347.372,1045.554,o),
(1350,993,cs),
(1350,956.227,o),
(1293.843,822.082,o),
(1234.5,685.5,cs),
(1172.693,543.247,o),
(1102.379,379.21,o),
(1076,285,cs)
);
},
{
closed = 1;
nodes = (
(1277,1706,o),
(1301,1748,o),
(1326,1789,cs),
(1350,1830,o),
(1374,1872,o),
(1397,1914,cs),
(1448,1998,o),
(1504,2029,o),
(1547,2029,cs),
(1587,2029,o),
(1615,2001,o),
(1615,1960,cs),
(1615,1933,o),
(1605,1901,o),
(1574,1866,cs),
(1538,1824,o),
(1502,1782,o),
(1466,1741,cs),
(1429,1700,o),
(1393,1658,o),
(1357,1616,cs),
(1322,1571,o),
(1280,1548,o),
(1253,1548,cs),
(1232,1548,o),
(1222,1559,o),
(1222,1580,cs),
(1222,1599,o),
(1232,1627,o),
(1253,1664,cs)
);
}
);
};
layerId = "DC66AB0F-19FD-4F06-8C39-5D32AA939720";
shapes = (
{
ref = A;
},
{
pos = (548,720);
ref = acutecomb;
}
);
width = 1323;
}
);
unicode = 193;
},
{
glyphname = Acircumflex;
lastChange = "2024-04-18 13:15:24 +0000";
layers = (
{
background = {
anchors = (
{
name = top;
pos = (1293,1914);
}
);
shapes = (
{
closed = 1;
nodes = (
(1069.333,259.667,o),
(1060,224.333,o),
(1060,195,cs),
(1060,168.333,o),
(1065.333,147,o),
(1092,147,cs),
(1145.82,147,o),
(1235.668,210.041,o),
(1326,293.5,cs),
(1420.391,380.709,o),
(1511.695,478.619,o),
(1576,559,c),
(1613,426,l),
(1525,308.667,o),
(1431.167,196.667,o),
(1334.5,114,cs),
(1237.833,31.333,o),
(1140,-22,o),
(1044,-22,cs),
(930.195,-22,o),
(890,58.153,o),
(890,147,cs),
(890,203.276,o),
(898,255.224,o),
(898,307,c),
(543,285,l),
(378,283,l),
(350,222.333,o),
(322.333,168.667,o),
(295,122,cs),
(245.636,39.727,o),
(188.05,-38,o),
(138,-38,cs),
(60.545,-38,o),
(39,13.395,o),
(39,56,cs),
(39,90.667,o),
(48.667,125.333,o),
(66,156,cs),
(198,378,ls),
(214.724,404.015,o),
(254,483.747,o),
(305.5,575.5,cs),
(363.5,678.833,o),
(440.833,808.833,o),
(529.5,937.5,cs),
(618.167,1066.167,o),
(718.833,1192.5,o),
(823.5,1286.5,cs),
(928.167,1380.5,o),
(1035.667,1442,o),
(1141,1442,cs),
(1239.667,1442,o),
(1336.333,1385,o),
(1423,1245,c),
(1427.667,1235.667,o),
(1430,1227.667,o),
(1430,1221,cs),
(1430,1185.508,o),
(1389.651,1150,o),
(1350,1150,cs),
(1326,1150,o),
(1292,1157.333,o),
(1264,1192,cs),
(1222.667,1240,o),
(1177,1261,o),
(1133,1261,cs),
(1009.853,1261,o),
(870.24,1111.692,o),
(745,932,cs),
(683.667,844,o),
(625.667,749,o),
(575,665,cs),
(526.599,584.756,o),
(482.569,508.854,o),
(450,460,c),
(633,460,l),
(942,483,l),
(959.445,521.766,o),
(994.225,603.966,o),
(1040,708,cs),
(1082.176,803.855,o),
(1125.335,901.267,o),
(1170,1000,c),
(1187.333,1050.667,o),
(1224.333,1070,o),
(1263,1070,cs),
(1303.974,1070,o),
(1347.372,1045.554,o),
(1350,993,cs),
(1350,956.227,o),
(1293.843,822.082,o),
(1234.5,685.5,cs),
(1172.693,543.247,o),
(1102.379,379.21,o),
(1076,285,cs)
);
},
{
closed = 1;
nodes = (
(1161,1762,o),
(1245,1838,o),
(1288,1873,cs),
(1329,1906,o),
(1345,1914,o),
(1377,1914,cs),
(1449,1914,o),
(1451,1852,o),
(1559,1633,cs),
(1561,1628,o),
(1562,1623,o),
(1562,1618,cs),
(1562,1586,o),
(1516,1565,o),
(1478,1565,cs),
(1449,1565,o),
(1422,1574,o),
(1411,1597,cs),
(1406,1608,o),
(1400,1622,o),
(1392,1641,cs),
(1384,1659,o),
(1376,1677,o),
(1368,1694,cs),
(1359,1715,o),
(1349,1736,o),
(1338,1758,c),
(1314,1736,o),
(1291,1715,o),
(1269,1694,cs),
(1250,1677,o),
(1231,1659,o),
(1212,1641,cs),
(1193,1622,o),
(1177,1608,o),
(1165,1597,cs),
(1148,1582,o),
(1129,1574,o),
(1110,1574,cs),
(1065,1574,o),
(1024,1600,o),
(1024,1628,cs),
(1024,1637,o),
(1028,1646,o),
(1037,1654,cs)
);
}
);
};
layerId = "DC66AB0F-19FD-4F06-8C39-5D32AA939720";
shapes = (
{
ref = A;
},
{
pos = (681,720);
ref = circumflexcomb;
}
);
width = 1323;
}
);
unicode = 194;
},
{
glyphname = Adblgrave;
lastChange = "2024-04-18 13:15:28 +0000";
layers = (
{
background = {
anchors = (
{
name = top;
pos = (1152,2053);
}
);
shapes = (
{
closed = 1;
nodes = (
(1069.333,259.667,o),
(1060,224.333,o),
(1060,195,cs),
(1060,168.333,o),
(1065.333,147,o),
(1092,147,cs),
(1145.82,147,o),
(1235.668,210.041,o),
(1326,293.5,cs),
(1420.391,380.709,o),
(1511.695,478.619,o),
(1576,559,c),
(1613,426,l),
(1525,308.667,o),
(1431.167,196.667,o),
(1334.5,114,cs),
(1237.833,31.333,o),
(1140,-22,o),
(1044,-22,cs),
(930.195,-22,o),
(890,58.153,o),
(890,147,cs),
(890,203.276,o),
(898,255.224,o),
(898,307,c),
(543,285,l),
(378,283,l),
(350,222.333,o),
(322.333,168.667,o),
(295,122,cs),
(245.636,39.727,o),
(188.05,-38,o),
(138,-38,cs),
(60.545,-38,o),
(39,13.395,o),
(39,56,cs),
(39,90.667,o),
(48.667,125.333,o),
(66,156,cs),
(198,378,ls),
(214.724,404.015,o),
(254,483.747,o),
(305.5,575.5,cs),
(363.5,678.833,o),
(440.833,808.833,o),
(529.5,937.5,cs),
(618.167,1066.167,o),
(718.833,1192.5,o),
(823.5,1286.5,cs),
(928.167,1380.5,o),
(1035.667,1442,o),
(1141,1442,cs),
(1239.667,1442,o),
(1336.333,1385,o),
(1423,1245,c),
(1427.667,1235.667,o),
(1430,1227.667,o),
(1430,1221,cs),
(1430,1185.508,o),
(1389.651,1150,o),
(1350,1150,cs),
(1326,1150,o),
(1292,1157.333,o),
(1264,1192,cs),
(1222.667,1240,o),
(1177,1261,o),
(1133,1261,cs),
(1009.853,1261,o),
(870.24,1111.692,o),
(745,932,cs),
(683.667,844,o),
(625.667,749,o),
(575,665,cs),
(526.599,584.756,o),
(482.569,508.854,o),
(450,460,c),
(633,460,l),
(942,483,l),
(959.445,521.766,o),
(994.225,603.966,o),
(1040,708,cs),
(1082.176,803.855,o),
(1125.335,901.267,o),
(1170,1000,c),
(1187.333,1050.667,o),
(1224.333,1070,o),
(1263,1070,cs),
(1303.974,1070,o),
(1347.372,1045.554,o),
(1350,993,cs),
(1350,956.227,o),
(1293.843,822.082,o),
(1234.5,685.5,cs),
(1172.693,543.247,o),
(1102.379,379.21,o),
(1076,285,cs)
);
},
{
closed = 1;
nodes = (
(1114,1665,o),
(1118,1647,o),
(1118,1632,cs),
(1118,1591,o),
(1099,1572,o),
(1074,1572,cs),
(1047,1572,o),
(1013,1595,o),
(990,1640,cs),
(967,1682,o),
(943,1724,o),
(919,1765,cs),
(895,1806,o),
(871,1848,o),
(848,1890,cs),
(835,1913,o),
(830,1932,o),
(830,1953,cs),
(830,2012,o),
(874,2053,o),
(923,2053,cs),
(966,2053,o),
(1012,2022,o),
(1039,1938,cs),
(1062,1854,o),
(1085,1772,o),
(1109,1688,cs)
);
},
{
closed = 1;
nodes = (
(1470,1665,o),
(1474,1647,o),
(1474,1632,cs),
(1474,1591,o),
(1455,1572,o),
(1430,1572,cs),
(1403,1572,o),
(1369,1595,o),
(1346,1640,cs),
(1323,1682,o),
(1299,1724,o),
(1275,1765,cs),
(1251,1806,o),
(1227,1848,o),
(1204,1890,cs),
(1191,1913,o),
(1186,1932,o),
(1186,1953,cs),
(1186,2012,o),
(1230,2053,o),
(1279,2053,cs),
(1322,2053,o),
(1368,2022,o),
(1395,1938,cs),
(1418,1854,o),
(1441,1772,o),
(1465,1688,cs)
);
}
);
};
layerId = "DC66AB0F-19FD-4F06-8C39-5D32AA939720";
shapes = (
{
alignment = -1;
ref = A;
},
{
alignment = -1;
pos = (133,746);
ref = dblgravecomb;
}
);
width = 1323;
}
);
unicode = 512;
},
{
glyphname = Adieresis;
lastChange = "2024-04-18 13:15:24 +0000";
layers = (
{
background = {
anchors = (
{
name = top;
pos = (1325,1762);
}
);
shapes = (
{
closed = 1;
nodes = (
(1069.333,259.667,o),
(1060,224.333,o),
(1060,195,cs),
(1060,168.333,o),
(1065.333,147,o),
(1092,147,cs),
(1145.82,147,o),
(1235.668,210.041,o),
(1326,293.5,cs),
(1420.391,380.709,o),
(1511.695,478.619,o),
(1576,559,c),
(1613,426,l),
(1525,308.667,o),
(1431.167,196.667,o),
(1334.5,114,cs),
(1237.833,31.333,o),
(1140,-22,o),
(1044,-22,cs),
(930.195,-22,o),
(890,58.153,o),
(890,147,cs),
(890,203.276,o),
(898,255.224,o),
(898,307,c),
(543,285,l),
(378,283,l),
(350,222.333,o),
(322.333,168.667,o),
(295,122,cs),
(245.636,39.727,o),
(188.05,-38,o),
(138,-38,cs),
(60.545,-38,o),
(39,13.395,o),
(39,56,cs),
(39,90.667,o),
(48.667,125.333,o),
(66,156,cs),
(198,378,ls),
(214.724,404.015,o),
(254,483.747,o),
(305.5,575.5,cs),
(363.5,678.833,o),
(440.833,808.833,o),
(529.5,937.5,cs),
(618.167,1066.167,o),
(718.833,1192.5,o),
(823.5,1286.5,cs),
(928.167,1380.5,o),
(1035.667,1442,o),
(1141,1442,cs),
(1239.667,1442,o),
(1336.333,1385,o),
(1423,1245,c),
(1427.667,1235.667,o),
(1430,1227.667,o),
(1430,1221,cs),
(1430,1185.508,o),
(1389.651,1150,o),
(1350,1150,cs),
(1326,1150,o),
(1292,1157.333,o),
(1264,1192,cs),
(1222.667,1240,o),
(1177,1261,o),
(1133,1261,cs),
(1009.853,1261,o),
(870.24,1111.692,o),
(745,932,cs),
(683.667,844,o),
(625.667,749,o),
(575,665,cs),
(526.599,584.756,o),
(482.569,508.854,o),
(450,460,c),
(633,460,l),
(942,483,l),
(959.445,521.766,o),
(994.225,603.966,o),
(1040,708,cs),
(1082.176,803.855,o),
(1125.335,901.267,o),
(1170,1000,c),
(1187.333,1050.667,o),
(1224.333,1070,o),
(1263,1070,cs),
(1303.974,1070,o),
(1347.372,1045.554,o),
(1350,993,cs),
(1350,956.227,o),
(1293.843,822.082,o),
(1234.5,685.5,cs),
(1172.693,543.247,o),
(1102.379,379.21,o),
(1076,285,cs)
);
},
{
closed = 1;
nodes = (
(1272,1597,o),
(1206,1537,o),
(1139,1537,cs),
(1090,1537,o),
(1059,1567,o),
(1059,1612,cs),
(1059,1694,o),
(1133,1762,o),
(1211,1762,cs),
(1260,1762,o),
(1287,1732,o),
(1287,1687,cs),
(1287,1680,o),
(1286,1672,o),
(1285,1664,cs)
);
},
{
closed = 1;
nodes = (
(1575,1597,o),
(1509,1537,o),
(1442,1537,cs),
(1393,1537,o),
(1362,1567,o),
(1362,1612,cs),
(1362,1694,o),
(1436,1762,o),
(1514,1762,cs),
(1563,1762,o),
(1590,1732,o),
(1590,1687,cs),
(1590,1680,o),
(1589,1672,o),
(1588,1664,cs)
);
}
);
};
layerId = "DC66AB0F-19FD-4F06-8C39-5D32AA939720";
shapes = (
{
ref = A;
},
{
pos = (328,720);
ref = dieresiscomb;
}
);
width = 1323;
}
);
unicode = 196;
},
{
glyphname = Agrave;
lastChange = "2024-04-18 13:15:24 +0000";
layers = (
{
background = {
anchors = (
{
name = top;
pos = (1260,1996);
}
);
shapes = (
{
closed = 1;
nodes = (
(1069.333,259.667,o),
(1060,224.333,o),
(1060,195,cs),
(1060,168.333,o),
(1065.333,147,o),
(1092,147,cs),
(1145.82,147,o),
(1235.668,210.041,o),
(1326,293.5,cs),
(1420.391,380.709,o),
(1511.695,478.619,o),
(1576,559,c),
(1613,426,l),
(1525,308.667,o),
(1431.167,196.667,o),
(1334.5,114,cs),
(1237.833,31.333,o),
(1140,-22,o),
(1044,-22,cs),
(930.195,-22,o),
(890,58.153,o),
(890,147,cs),
(890,203.276,o),
(898,255.224,o),
(898,307,c),
(543,285,l),
(378,283,l),
(350,222.333,o),
(322.333,168.667,o),
(295,122,cs),
(245.636,39.727,o),
(188.05,-38,o),
(138,-38,cs),
(60.545,-38,o),
(39,13.395,o),
(39,56,cs),
(39,90.667,o),
(48.667,125.333,o),
(66,156,cs),
(198,378,ls),
(214.724,404.015,o),
(254,483.747,o),
(305.5,575.5,cs),
(363.5,678.833,o),
(440.833,808.833,o),
(529.5,937.5,cs),
(618.167,1066.167,o),
(718.833,1192.5,o),
(823.5,1286.5,cs),
(928.167,1380.5,o),
(1035.667,1442,o),
(1141,1442,cs),
(1239.667,1442,o),
(1336.333,1385,o),
(1423,1245,c),
(1427.667,1235.667,o),
(1430,1227.667,o),
(1430,1221,cs),
(1430,1185.508,o),
(1389.651,1150,o),
(1350,1150,cs),
(1326,1150,o),
(1292,1157.333,o),
(1264,1192,cs),
(1222.667,1240,o),
(1177,1261,o),
(1133,1261,cs),
(1009.853,1261,o),
(870.24,1111.692,o),
(745,932,cs),
(683.667,844,o),
(625.667,749,o),
(575,665,cs),
(526.599,584.756,o),
(482.569,508.854,o),
(450,460,c),
(633,460,l),
(942,483,l),
(959.445,521.766,o),
(994.225,603.966,o),
(1040,708,cs),
(1082.176,803.855,o),
(1125.335,901.267,o),
(1170,1000,c),
(1187.333,1050.667,o),
(1224.333,1070,o),
(1263,1070,cs),
(1303.974,1070,o),
(1347.372,1045.554,o),
(1350,993,cs),
(1350,956.227,o),
(1293.843,822.082,o),
(1234.5,685.5,cs),
(1172.693,543.247,o),
(1102.379,379.21,o),
(1076,285,cs)
);
},
{
closed = 1;
nodes = (
(1387,1614,o),
(1388,1599,o),
(1388,1586,cs),
(1388,1489,o),
(1298,1494,o),
(1261,1583,cs),
(1242,1625,o),
(1222,1667,o),
(1202,1708,cs),
(1182,1749,o),
(1162,1791,o),
(1143,1833,cs),
(1135,1851,o),
(1131,1868,o),
(1131,1885,cs),
(1131,1947,o),
(1182,1996,o),
(1234,1996,cs),
(1277,1996,o),
(1320,1965,o),
(1339,1881,cs),
(1346,1839,o),
(1354,1797,o),
(1362,1756,cs),
(1369,1715,o),
(1377,1673,o),
(1384,1631,cs)
);
}
);
};
layerId = "DC66AB0F-19FD-4F06-8C39-5D32AA939720";
shapes = (
{
ref = A;
},
{
pos = (676,735);
ref = gravecomb;
}
);
width = 1323;
}
);
unicode = 192;
},
{
glyphname = Ainvertedbreve;
lastChange = "2024-04-18 13:07:54 +0000";
layers = (
{
background = {
anchors = (
{
name = top;
pos = (1256,1781);
}
);
shapes = (
{
closed = 1;
nodes = (
(1069.333,259.667,o),
(1060,224.333,o),
(1060,195,cs),
(1060,168.333,o),
(1065.333,147,o),
(1092,147,cs),
(1145.82,147,o),
(1235.668,210.041,o),
(1326,293.5,cs),
(1420.391,380.709,o),
(1511.695,478.619,o),
(1576,559,c),
(1613,426,l),
(1525,308.667,o),
(1431.167,196.667,o),
(1334.5,114,cs),
(1237.833,31.333,o),
(1140,-22,o),
(1044,-22,cs),
(930.195,-22,o),
(890,58.153,o),
(890,147,cs),
(890,203.276,o),
(898,255.224,o),
(898,307,c),
(543,285,l),
(378,283,l),
(350,222.333,o),
(322.333,168.667,o),
(295,122,cs),
(245.636,39.727,o),
(188.05,-38,o),
(138,-38,cs),
(60.545,-38,o),
(39,13.395,o),
(39,56,cs),
(39,90.667,o),
(48.667,125.333,o),
(66,156,cs),
(198,378,ls),
(214.724,404.015,o),
(254,483.747,o),
(305.5,575.5,cs),
(363.5,678.833,o),
(440.833,808.833,o),
(529.5,937.5,cs),
(618.167,1066.167,o),
(718.833,1192.5,o),
(823.5,1286.5,cs),
(928.167,1380.5,o),
(1035.667,1442,o),
(1141,1442,cs),
(1239.667,1442,o),
(1336.333,1385,o),
(1423,1245,c),
(1427.667,1235.667,o),
(1430,1227.667,o),
(1430,1221,cs),
(1430,1185.508,o),
(1389.651,1150,o),
(1350,1150,cs),
(1326,1150,o),
(1292,1157.333,o),
(1264,1192,cs),
(1222.667,1240,o),
(1177,1261,o),
(1133,1261,cs),
(1009.853,1261,o),
(870.24,1111.692,o),
(745,932,cs),
(683.667,844,o),
(625.667,749,o),
(575,665,cs),
(526.599,584.756,o),
(482.569,508.854,o),
(450,460,c),
(633,460,l),
(942,483,l),
(959.445,521.766,o),
(994.225,603.966,o),
(1040,708,cs),
(1082.176,803.855,o),
(1125.335,901.267,o),
(1170,1000,c),
(1187.333,1050.667,o),
(1224.333,1070,o),
(1263,1070,cs),
(1303.974,1070,o),
(1347.372,1045.554,o),
(1350,993,cs),
(1350,956.227,o),
(1293.843,822.082,o),
(1234.5,685.5,cs),
(1172.693,543.247,o),
(1102.379,379.21,o),
(1076,285,cs)
);
},
{
closed = 1;
nodes = (
(1470,1568,o),
(1436,1555,o),
(1407,1555,cs),
(1382,1555,o),
(1362,1564,o),
(1362,1583,cs),
(1362,1587,o),
(1363,1592,o),
(1364,1597,cs),
(1365,1602,o),
(1366,1606,o),
(1366,1610,cs),
(1366,1645,o),
(1338,1670,o),
(1277,1670,cs),
(1204,1670,o),
(1154,1630,o),
(1143,1587,cs),
(1128,1539,o),
(1027,1538,o),
(1027,1581,cs),
(1027,1582,o),
(1028,1586,o),
(1029,1591,cs),
(1059,1696,o),
(1195,1781,o),
(1309,1781,cs),
(1422,1781,o),
(1484,1720,o),
(1484,1640,cs),
(1484,1623,o),
(1482,1607,o),
(1477,1591,cs)
);
}
);
};
layerId = "DC66AB0F-19FD-4F06-8C39-5D32AA939720";
shapes = (
{
alignment = -1;
ref = A;
},
{
alignment = -1;
pos = (456,717);
ref = breveinvertedcomb;
}
);
width = 1323;
}
);
unicode = 514;
},
{
glyphname = Aring;
lastChange = "2024-04-18 13:15:24 +0000";
layers = (
{
background = {
anchors = (
{
name = top;
pos = (1274,1921);
}
);
shapes = (
{
closed = 1;
nodes = (
(1069.333,259.667,o),
(1060,224.333,o),
(1060,195,cs),
(1060,168.333,o),
(1065.333,147,o),
(1092,147,cs),
(1145.82,147,o),
(1235.668,210.041,o),
(1326,293.5,cs),
(1420.391,380.709,o),
(1511.695,478.619,o),
(1576,559,c),
(1613,426,l),
(1525,308.667,o),
(1431.167,196.667,o),
(1334.5,114,cs),
(1237.833,31.333,o),
(1140,-22,o),
(1044,-22,cs),
(930.195,-22,o),
(890,58.153,o),
(890,147,cs),
(890,203.276,o),
(898,255.224,o),
(898,307,c),
(543,285,l),
(378,283,l),
(350,222.333,o),
(322.333,168.667,o),
(295,122,cs),
(245.636,39.727,o),
(188.05,-38,o),
(138,-38,cs),
(60.545,-38,o),
(39,13.395,o),
(39,56,cs),
(39,90.667,o),
(48.667,125.333,o),
(66,156,cs),
(198,378,ls),
(214.724,404.015,o),
(254,483.747,o),
(305.5,575.5,cs),
(363.5,678.833,o),
(440.833,808.833,o),
(529.5,937.5,cs),
(618.167,1066.167,o),
(718.833,1192.5,o),
(823.5,1286.5,cs),
(928.167,1380.5,o),
(1035.667,1442,o),
(1141,1442,cs),
(1239.667,1442,o),
(1336.333,1385,o),
(1423,1245,c),
(1427.667,1235.667,o),
(1430,1227.667,o),
(1430,1221,cs),
(1430,1185.508,o),
(1389.651,1150,o),
(1350,1150,cs),
(1326,1150,o),
(1292,1157.333,o),
(1264,1192,cs),
(1222.667,1240,o),
(1177,1261,o),
(1133,1261,cs),
(1009.853,1261,o),
(870.24,1111.692,o),
(745,932,cs),
(683.667,844,o),
(625.667,749,o),
(575,665,cs),
(526.599,584.756,o),
(482.569,508.854,o),
(450,460,c),
(633,460,l),
(942,483,l),
(959.445,521.766,o),
(994.225,603.966,o),
(1040,708,cs),
(1082.176,803.855,o),
(1125.335,901.267,o),
(1170,1000,c),
(1187.333,1050.667,o),
(1224.333,1070,o),
(1263,1070,cs),
(1303.974,1070,o),
(1347.372,1045.554,o),
(1350,993,cs),
(1350,956.227,o),
(1293.843,822.082,o),
(1234.5,685.5,cs),
(1172.693,543.247,o),
(1102.379,379.21,o),
(1076,285,cs)
);
},
{
closed = 1;
nodes = (
(1230,1829,o),
(1178,1768,o),
(1178,1713,cs),
(1178,1678,o),
(1200,1652,o),
(1249,1652,cs),
(1320,1652,o),
(1369,1714,o),
(1369,1766,cs),
(1369,1801,o),
(1349,1829,o),
(1298,1829,cs)
);
},
{
closed = 1;
nodes = (
(1434,1642,o),
(1322,1559,o),
(1224,1559,cs),
(1139,1559,o),
(1081,1619,o),
(1081,1696,cs),
(1081,1809,o),
(1209,1921,o),
(1323,1921,cs),
(1402,1921,o),
(1467,1865,o),
(1467,1784,cs),
(1467,1769,o),
(1465,1754,o),
(1461,1738,cs)
);
}
);
};
layerId = "DC66AB0F-19FD-4F06-8C39-5D32AA939720";
shapes = (
{
ref = A;
},
{
pos = (404,720);
ref = ringcomb;
}
);
width = 1323;
}
);
unicode = 197;
},
{
glyphname = Atilde;
lastChange = "2024-04-18 13:15:24 +0000";
layers = (
{
background = {
anchors = (
{
name = top;
pos = (1295,1770);
}
);
shapes = (
{
closed = 1;
nodes = (
(1069.333,259.667,o),
(1060,224.333,o),
(1060,195,cs),
(1060,168.333,o),
(1065.333,147,o),
(1092,147,cs),
(1145.82,147,o),
(1235.668,210.041,o),
(1326,293.5,cs),
(1420.391,380.709,o),
(1511.695,478.619,o),
(1576,559,c),
(1613,426,l),
(1525,308.667,o),
(1431.167,196.667,o),
(1334.5,114,cs),
(1237.833,31.333,o),
(1140,-22,o),
(1044,-22,cs),
(930.195,-22,o),
(890,58.153,o),
(890,147,cs),
(890,203.276,o),
(898,255.224,o),
(898,307,c),
(543,285,l),
(378,283,l),
(350,222.333,o),
(322.333,168.667,o),
(295,122,cs),
(245.636,39.727,o),
(188.05,-38,o),
(138,-38,cs),
(60.545,-38,o),
(39,13.395,o),
(39,56,cs),
(39,90.667,o),
(48.667,125.333,o),
(66,156,cs),
(198,378,ls),
(214.724,404.015,o),
(254,483.747,o),
(305.5,575.5,cs),
(363.5,678.833,o),
(440.833,808.833,o),
(529.5,937.5,cs),
(618.167,1066.167,o),
(718.833,1192.5,o),
(823.5,1286.5,cs),
(928.167,1380.5,o),
(1035.667,1442,o),
(1141,1442,cs),
(1239.667,1442,o),
(1336.333,1385,o),
(1423,1245,c),
(1427.667,1235.667,o),
(1430,1227.667,o),
(1430,1221,cs),
(1430,1185.508,o),
(1389.651,1150,o),
(1350,1150,cs),
(1326,1150,o),
(1292,1157.333,o),
(1264,1192,cs),
(1222.667,1240,o),
(1177,1261,o),
(1133,1261,cs),
(1009.853,1261,o),
(870.24,1111.692,o),
(745,932,cs),
(683.667,844,o),
(625.667,749,o),
(575,665,cs),
(526.599,584.756,o),
(482.569,508.854,o),
(450,460,c),
(633,460,l),
(942,483,l),
(959.445,521.766,o),
(994.225,603.966,o),
(1040,708,cs),
(1082.176,803.855,o),
(1125.335,901.267,o),
(1170,1000,c),
(1187.333,1050.667,o),
(1224.333,1070,o),
(1263,1070,cs),
(1303.974,1070,o),
(1347.372,1045.554,o),
(1350,993,cs),
(1350,956.227,o),
(1293.843,822.082,o),
(1234.5,685.5,cs),
(1172.693,543.247,o),
(1102.379,379.21,o),
(1076,285,cs)
);
},
{
closed = 1;
nodes = (
(1554,1623,o),
(1495,1542,o),
(1403,1542,cs),
(1395,1542,o),
(1387,1543,o),
(1379,1544,cs),
(1346,1547,o),
(1234,1602,o),
(1174,1612,cs),
(1173,1612,o),
(1171,1612,o),
(1170,1613,cs),
(1169,1613,o),
(1167,1613,o),
(1166,1613,cs),
(1142,1613,o),
(1137,1589,o),
(1127,1572,cs),
(1111,1541,o),
(1071,1529,o),
(1043,1529,cs),
(1012,1529,o),
(986,1542,o),
(986,1562,cs),
(986,1567,o),
(987,1570,o),
(988,1572,cs),
(1035,1674,o),
(1112,1749,o),
(1194,1749,cs),
(1247,1749,o),
(1331,1683,o),
(1409,1683,cs),
(1437,1683,o),
(1457,1698,o),
(1468,1721,cs),
(1497,1789,o),
(1603,1780,o),
(1603,1732,cs),
(1603,1730,ls),
(1603,1729,o),
(1603,1728,o),
(1602,1727,cs),
(1601,1726,o),
(1601,1724,o),
(1600,1721,c)
);
}
);
};
layerId = "DC66AB0F-19FD-4F06-8C39-5D32AA939720";
shapes = (
{
ref = A;
},
{
pos = (124,720);
ref = tildecomb;
}
);
width = 1323;
}
);
unicode = 195;
},
{
glyphname = AE;
lastChange = "2024-04-18 13:06:27 +0000";
layers = (
{
background = {
shapes = (
{
closed = 1;
nodes = (
(1817,825,ls),
(1893,825,o),
(1931,802,o),
(1931,774,cs),
(1931,721,o),
(1871,701,o),
(1803,688,cs),
(1768,681,o),
(1675,679,o),
(1536,679,c),
(1480,581,o),
(1428,488,o),
(1381,399,cs),
(1340,322,o),
(1323,268,o),
(1323,229,cs),
(1323,137,o),
(1415,128,o),
(1519,128,cs),
(1543,128,o),
(1566,129,o),
(1590,129,cs),
(2081,129,o),
(2099,509,o),
(2296,509,cs),
(2347,509,o),
(2374,486,o),
(2374,446,cs),
(2374,281,o),
(1975,-38,o),
(1555,-38,cs),
(1344,-38,o),
(1074,-8,o),
(1074,176,cs),
(1074,215,o),
(1086,259,o),
(1111,309,c),
(1086,309,o),
(1065,307,o),
(1060,307,cs),
(732,285,l),
(566,283,l),
(529,222,o),
(492,169,o),
(457,122,cs),
(395,41,o),
(324,-38,o),
(274,-38,cs),
(206,-38,o),
(188,1,o),
(188,37,cs),
(188,76,o),
(207,121,o),
(234,156,cs),
(403,378,ls),
(463,455,o),
(1106,1469,o),
(1527,1469,cs),
(1619,1469,o),
(1722,1422,o),
(1759,1268,c),
(1892,1418,o),
(2119,1504,o),
(2305,1504,cs),
(2531,1504,o),
(2684,1413,o),
(2684,1213,c),
(2682,1202,ls),
(2669,1134,o),
(2590,1058,o),
(2499,1058,cs),
(2458,1058,o),
(2447,1076,o),
(2447,1105,cs),
(2447,1137,o),
(2462,1184,o),
(2462,1228,cs),
(2462,1304,o),
(2378,1335,o),
(2267,1335,cs),
(2109,1335,o),
(1861,1238,o),
(1781,1099,cs),
(1621,825,l),
(1621,825,l)
);
},
{
closed = 1;
nodes = (
(1551,1105,o),
(1610,1188,o),
(1610,1214,cs),
(1610,1217,o),
(1610,1218,o),
(1609,1219,cs),
(1577,1268,o),
(1536,1288,o),
(1489,1288,cs),
(1239,1288,o),
(827,656,o),
(668,460,c),
(851,460,l),
(1164,483,l),
(1212,563,o),
(1371,820,o),
(1476,985,cs)
);
}
);
};
layerId = "DC66AB0F-19FD-4F06-8C39-5D32AA939720";
shapes = (
{
closed = 1;
nodes = (
(1817,825,ls),
(1893,825,o),
(1931,802,o),
(1931,774,cs),
(1931,721,o),
(1871,701,o),
(1803,688,cs),
(1768,681,o),
(1675,679,o),
(1536,679,c),
(1480,581,o),
(1428,488,o),
(1381,399,cs),
(1340,322,o),
(1323,268,o),
(1323,229,cs),
(1323,137,o),
(1415,128,o),
(1519,128,cs),
(1590,129,ls),
(2081,129,o),
(2099,509,o),
(2296,509,cs),
(2347,509,o),
(2374,486,o),
(2374,446,cs),
(2374,281,o),
(1975,-38,o),
(1555,-38,cs),
(1344,-38,o),
(1074,-8,o),
(1074,176,cs),
(1074,215,o),
(1086,259,o),
(1111,309,c),
(1086,309,o),
(1065,307,o),
(1060,307,cs),
(732,285,l),
(566,283,l),
(529,222,o),
(492,169,o),
(457,122,cs),
(395,41,o),
(324,-38,o),
(274,-38,cs),
(206,-38,o),
(188,1,o),
(188,37,cs),
(188,76,o),
(207,121,o),
(234,156,cs),
(403,378,ls),
(463,455,o),
(1106,1469,o),
(1527,1469,cs),
(1619,1469,o),
(1722,1422,o),
(1759,1268,c),
(1892,1418,o),
(2119,1504,o),
(2305,1504,cs),
(2531,1504,o),
(2684,1413,o),
(2684,1213,c),
(2682,1202,ls),
(2669,1134,o),
(2590,1058,o),
(2499,1058,cs),
(2458,1058,o),
(2447,1076,o),
(2447,1105,cs),
(2447,1137,o),
(2462,1184,o),
(2462,1228,cs),
(2462,1304,o),
(2378,1335,o),
(2267,1335,cs),
(2109,1335,o),
(1861,1238,o),
(1781,1099,cs),
(1621,825,l)
);
},
{
closed = 1;
nodes = (
(1551,1105,o),
(1610,1188,o),
(1610,1214,cs),
(1610,1217,o),
(1610,1218,o),
(1609,1219,cs),
(1577,1268,o),
(1536,1288,o),
(1489,1288,cs),
(1239,1288,o),
(827,656,o),
(668,460,c),
(851,460,l),
(1164,483,l),
(1212,563,o),
(1371,820,o),
(1476,985,cs)
);
}
);
width = 2029;
}
);
unicode = 198;
},
{
glyphname = B;
lastChange = "2024-04-18 13:09:08 +0000";
layers = (
{
anchors = (
{
name = bottom;
pos = (647,0);
},
{
name = center;
pos = (323,351);
},
{
name = top;
pos = (647,1440);
}
);
background = {
shapes = (
{
closed = 1;
nodes = (
(1108.525,1018.864,o),
(1233,1131.581,o),
(1233,1210,cs),
(1233,1243.005,o),
(1168.411,1283,o),
(1069,1283,cs),
(922.333,1283,o),
(796.667,1242.667,o),
(694,1192,cs),
(591.333,1141.333,o),
(512.333,1081.333,o),
(459,1040,cs),
(394.145,990.711,o),
(369.194,937,o),
(294,937,cs),
(238,937,o),
(205,965,o),
(205,1013,cs),
(205,1098.442,o),
(312.778,1205.918,o),
(474,1292.5,cs),
(634.081,1378.469,o),
(847.188,1442,o),
(1047,1442,cs),
(1323.341,1442,o),
(1448,1347.898,o),
(1448,1218,cs),
(1448,1154,o),
(1403.833,1083.333,o),
(1324.5,1014,cs),
(1245.167,944.667,o),
(1129.667,880,o),
(987,828,c),
(1128.333,781.333,o),
(1213.5,729.833,o),
(1263.5,674.5,cs),
(1313.5,619.167,o),
(1327,559.667,o),
(1327,497,cs),
(1327,364.031,o),
(1216.619,229.932,o),
(1023.5,124.5,cs),
(831.598,19.732,o),
(585.407,-40,o),
(347,-40,cs),
(231.378,-40,o),
(91,-17.491,o),
(91,75,cs),
(91,80.333,o),
(91.667,84.333,o),
(93,91,c),
(114.356,133.712,o),
(132.259,159,o),
(292,159,c),
(375.333,311.667,o),
(444.167,443.167,o),
(498.5,553.5,cs),
(552.833,663.833,o),
(598.333,754.667,o),
(635,826,cs),
(671.667,897.333,o),
(702.5,950,o),
(727.5,984,cs),
(752.5,1018,o),
(777,1035,o),
(801,1035,cs),
(844.635,1035,o),
(884,1006.948,o),
(884,968,c),
(873.333,954.667,o),
(874,941.333,o),
(874,924,c)
);
},
{
closed = 1;
nodes = (
(717.422,502.757,o),
(631.383,346.515,o),
(532,161,c),
(686.667,174.333,o),
(824.167,217,o),
(923.5,277,cs),
(1022.833,337,o),
(1083,413.333,o),
(1083,496,cs),
(1083,571.15,o),
(1022.355,666.976,o),
(819,733,c)
);
}
);
};
layerId = "DC66AB0F-19FD-4F06-8C39-5D32AA939720";
shapes = (
{
closed = 1;
nodes = (
(1109,1019,o),
(1233,1132,o),
(1233,1210,cs),
(1233,1243.005,o),
(1168,1283,o),
(1069,1283,cs),
(922,1283,o),
(797,1243,o),
(694,1192,cs),
(591,1141,o),
(512,1081,o),
(459,1040,cs),
(394,991,o),
(369,937,o),
(294,937,cs),
(238,937,o),
(205,965,o),
(205,1013,cs),
(205,1098,o),
(313,1206,o),
(474,1293,cs),
(634,1378,o),
(847,1442,o),
(1047,1442,cs),
(1323,1442,o),
(1448,1348,o),
(1448,1218,cs),
(1448,1154,o),
(1404,1083,o),
(1325,1014,cs),
(1245,945,o),
(1130,880,o),
(987,828,c),
(1128,781,o),
(1214,730,o),
(1264,675,cs),
(1314,619,o),
(1327,560,o),
(1327,497,cs),
(1327,364,o),
(1217,230,o),
(1024,125,cs),
(832,20,o),
(585,-40,o),
(347,-40,cs),
(231,-40,o),
(91,-17,o),
(91,75,cs),
(91,80,o),
(92,84,o),
(93,91,c),
(114,134,o),
(132,159,o),
(292,159,c),
(375,312,o),
(444,443,o),
(499,554,cs),
(553,664,o),
(598,755,o),
(635,826,cs),
(672,897,o),
(703,950,o),
(728,984,cs),
(753,1018,o),
(777,1035,o),
(801,1035,cs),
(845,1035,o),
(884,1007,o),
(884,968,c),
(873,955,o),
(874,941,o),
(874,924,c)
);
},
{
closed = 1;
nodes = (
(717,503,o),
(631,347,o),
(532,161,c),
(687,174,o),
(824,217,o),
(924,277,cs),
(1023,337,o),
(1083,413,o),
(1083,496,cs),
(1083,571,o),
(1022,667,o),
(819,733,c)
);
}
);
width = 1293;
}
);
unicode = 66;
},
{
glyphname = C;
lastChange = "2024-04-18 13:52:50 +0000";
layers = (
{
anchors = (
{
name = bottom;
pos = (520,0);
},
{
name = top;
pos = (1130,1440);
}
);
background = {
shapes = (
{
closed = 1;
nodes = (
(1364,1208.214,o),
(1337.936,1119.285,o),
(1292.5,1037.5,cs),
(1246.292,954.326,o),
(1179.55,892,o),
(1105,892,cs),
(1078.344,892,o),
(1017,898.436,o),
(1017,946,cs),
(1017,962,o),
(1024.333,983,o),
(1047,1011,cs),
(1093.969,1063.187,o),
(1164,1163.592,o),
(1164,1227,cs),
(1164,1265.667,o),
(1148,1291,o),
(1104,1291,cs),
(1046.667,1291,o),
(972.667,1251.333,o),
(894,1186,cs),
(815.333,1120.667,o),
(732,1030.833,o),
(656,931.5,cs),
(501.687,729.81,o),
(380,491.837,o),
(380,335,cs),
(380,237.667,o),
(428,174,o),
(548,174,cs),
(604,174,o),
(737.5,228.167,o),
(811.5,271.5,cs),
(848.5,293.167,o),
(885.833,317.167,o),
(923.5,343.5,cs),
(1044.873,428.353,o),
(1145.857,506.048,o),
(1193,527,c),
(1196.333,529.667,o),
(1200.333,531,o),
(1205,531,cs),
(1215,531,o),
(1221.833,522.833,o),
(1225.5,506.5,cs),
(1229.167,490.167,o),
(1231,471.667,o),
(1231,451,cs),
(1231,428.333,o),
(1230,395.667,o),
(1198,353,cs),
(1182.018,334.112,o),
(1108.18,251.544,o),
(979,158,cs),
(901.667,102,o),
(821.5,57.333,o),
(679.5,12,cs),
(608.5,-10.667,o),
(546.667,-22,o),
(494,-22,cs),
(245.994,-22,o),
(146,104.005,o),
(146,280,cs),
(146,389.333,o),
(181.167,517.667,o),
(240.5,647,cs),
(299.833,776.333,o),
(383.5,908.5,o),
(481.5,1026.5,cs),
(579.5,1144.5,o),
(692,1248.333,o),
(808,1323,cs),
(924,1397.667,o),
(1042.667,1443,o),
(1156,1443,cs),
(1269.377,1443,o),
(1364,1396.273,o),
(1364,1263,cs)
);
}
);
};
layerId = "DC66AB0F-19FD-4F06-8C39-5D32AA939720";
shapes = (
{
closed = 1;
nodes = (
(1364,1208,o),
(1338,1119,o),
(1293,1038,cs),
(1246,954,o),
(1180,892,o),
(1105,892,cs),
(1078,892,o),
(1017,898,o),
(1017,946,cs),
(1017,962,o),
(1024,983,o),
(1047,1011,cs),
(1094,1063,o),
(1164,1164,o),
(1164,1227,cs),
(1164,1266,o),
(1148,1291,o),
(1104,1291,cs),
(1047,1291,o),
(973,1251,o),
(894,1186,cs),
(694,1021,o),
(380,599,o),
(380,335,cs),
(380,238,o),
(428,174,o),
(548,174,cs),
(749,174,o),
(1057,466,o),
(1193,527,c),
(1196,530,o),
(1200,531,o),
(1205,531,cs),
(1215,531,o),
(1222,523,o),
(1226,507,cs),
(1229,490,o),
(1231,472,o),
(1231,451,cs),
(1231,428,o),
(1230,396,o),
(1198,353,cs),
(1024,146,o),
(706,-22,o),
(494,-22,cs),
(245.994,-22,o),
(146,104.005,o),
(146,280,cs),
(146,644,o),
(499,1123,o),
(808,1323,cs),
(924,1398,o),
(1043,1443,o),
(1156,1443,cs),
(1269,1443,o),
(1364,1396,o),
(1364,1263,cs)
);
}
);
width = 1039;
}
);
unicode = 67;
},
{
glyphname = Ccedilla;
lastChange = "2024-04-18 13:15:56 +0000";
layers = (
{
background = {
anchors = (
{
name = bottom;
pos = (408,-459);
}
);
shapes = (
{
closed = 1;
nodes = (
(1364,1208.214,o),
(1337.936,1119.285,o),
(1292.5,1037.5,cs),
(1246.292,954.326,o),
(1179.55,892,o),
(1105,892,cs),
(1078.344,892,o),
(1017,898.436,o),
(1017,946,cs),
(1017,962,o),
(1024.333,983,o),
(1047,1011,cs),
(1093.969,1063.187,o),
(1164,1163.592,o),
(1164,1227,cs),
(1164,1265.667,o),
(1148,1291,o),
(1104,1291,cs),
(1046.667,1291,o),
(972.667,1251.333,o),
(894,1186,cs),
(815.333,1120.667,o),
(732,1030.833,o),
(656,931.5,cs),
(501.687,729.81,o),
(380,491.837,o),
(380,335,cs),
(380,237.667,o),
(428,174,o),
(548,174,cs),
(604,174,o),
(737.5,228.167,o),
(811.5,271.5,cs),
(848.5,293.167,o),
(885.833,317.167,o),
(923.5,343.5,cs),
(1044.873,428.353,o),
(1145.857,506.048,o),
(1193,527,c),
(1196.333,529.667,o),
(1200.333,531,o),
(1205,531,cs),
(1215,531,o),
(1221.833,522.833,o),
(1225.5,506.5,cs),
(1229.167,490.167,o),
(1231,471.667,o),
(1231,451,cs),
(1231,428.333,o),
(1230,395.667,o),
(1198,353,cs),
(1182.018,334.112,o),
(1108.18,251.544,o),
(979,158,cs),
(901.667,102,o),
(821.5,57.333,o),
(679.5,12,cs),
(608.5,-10.667,o),
(546.667,-22,o),
(494,-22,cs),
(245.994,-22,o),
(146,104.005,o),
(146,280,cs),
(146,389.333,o),
(181.167,517.667,o),
(240.5,647,cs),
(299.833,776.333,o),
(383.5,908.5,o),
(481.5,1026.5,cs),
(579.5,1144.5,o),
(692,1248.333,o),
(808,1323,cs),
(924,1397.667,o),
(1042.667,1443,o),
(1156,1443,cs),
(1269.377,1443,o),
(1364,1396.273,o),
(1364,1263,cs)
);
},
{
closed = 1;
nodes = (
(583,-353,o),
(474,-459,o),
(345,-459,cs),
(277,-459,o),
(233,-433,o),
(233,-398,cs),
(233,-378,o),
(252,-348,o),
(281,-348,cs),
(292,-348,o),
(304,-350,o),
(317,-354,cs),
(330,-359,o),
(342,-361,o),
(353,-361,cs),
(421,-361,o),
(468,-305,o),
(468,-242,cs),
(468,-203,o),
(456,-191,o),
(427,-184,c),
(383,-184,o),
(320,-212,o),
(289,-212,cs),
(276,-212,o),
(269,-206,o),
(269,-195,cs),
(269,-183,o),
(278,-162,o),
(295,-131,cs),
(368,0,l),
(482,0,l),
(394,-131,l),
(407,-127,o),
(420,-123,o),
(434,-118,cs),
(448,-113,o),
(461,-111,o),
(472,-111,cs),
(540,-111,o),
(583,-153,o),
(583,-225,cs)
);
}
);
};
layerId = "DC66AB0F-19FD-4F06-8C39-5D32AA939720";
shapes = (
{
ref = C;
},
{
pos = (-42,0);
ref = cedillacomb;
}
);
width = 1039;
}
);
unicode = 199;
},
{
glyphname = D;
lastChange = "2024-04-18 14:08:44 +0000";
layers = (
{
anchors = (
{
name = bottom;
pos = (699,0);
},
{
name = center;
pos = (349,720);
},
{
name = top;
pos = (1099,1440);
}
);
background = {
shapes = (
{
closed = 1;
nodes = (
(884.616,821.888,o),
(840.385,738.757,o),
(743.5,569.5,cs),
(655.312,415.437,o),
(561.327,266.355,o),
(476,150,c),
(686.274,171.417,o),
(885.221,297.062,o),
(1031.5,461.5,cs),
(1177.078,625.15,o),
(1264,817.55,o),
(1264,972,cs),
(1264,1150.361,o),
(1176.177,1278,o),
(990,1278,cs),
(816.853,1278,o),
(632.374,1208.426,o),
(537,1121,c),
(476.313,1054.245,o),
(454.194,1010.586,o),
(406.5,954,cs),
(367.167,907.333,o),
(324.333,875,o),
(263,875,cs),
(205.667,875,o),
(177,900.333,o),
(177,951,cs),
(177,1047.88,o),
(274.133,1168.918,o),
(426.5,1269.5,cs),
(579.334,1370.391,o),
(789.343,1443,o),
(1005,1443,cs),
(1348.556,1443,o),
(1509,1226.396,o),
(1509,950,cs),
(1509,671.049,o),
(1316.052,324.168,o),
(969.5,125,cs),
(795.5,25,o),
(583.333,-38,o),
(338,-38,cs),
(284.667,-38,o),
(252,0.667,o),
(252,50,cs),
(252,88.667,o),
(266.667,125.333,o),
(288,156,c),
(699,973,l),
(768.362,1080.63,o),
(844.083,1111,o),
(882,1111,cs),
(942,1111,o),
(965,1071,o),
(965,1023,cs),
(965,984.333,o),
(950.667,939.667,o),
(928,901,cs)
);
}
);
};
layerId = "DC66AB0F-19FD-4F06-8C39-5D32AA939720";
shapes = (
{
closed = 1;
nodes = (
(885,822,o),
(840,739,o),
(744,570,cs),
(655,415,o),
(561,266,o),
(476,150,c),
(686,171,o),
(885,297,o),
(1032,462,cs),
(1177,625,o),
(1264,818,o),
(1264,972,cs),
(1264,1150,o),
(1176,1278,o),
(990,1278,cs),
(817,1278,o),
(632,1208,o),
(537,1121,c),
(476,1054,o),
(454,1011,o),
(407,954,cs),
(367,907,o),
(324,875,o),
(263,875,cs),
(206,875,o),
(177,900,o),
(177,951,cs),
(177,1048,o),
(274,1169,o),
(427,1270,cs),
(579,1370,o),
(789,1443,o),
(1005,1443,cs),
(1349,1443,o),
(1509,1226,o),
(1509,950,cs),
(1509,671,o),
(1316,324,o),
(970,125,cs),
(796,25,o),
(583,-38,o),
(338,-38,cs),
(285,-38,o),
(252,1,o),
(252,50,cs),
(252,89,o),
(267,125,o),
(288,156,c),
(699,973,l),
(768,1081,o),
(844,1111,o),
(882,1111,cs),
(942,1111,o),
(965,1071,o),
(965,1023,cs),
(965,984,o),
(951,940,o),
(928,901,cs)
);
}
);
width = 1397;
}
);
unicode = 68;
},
{
glyphname = Eth;
lastChange = "2024-04-18 13:07:54 +0000";
layers = (
{
background = {
shapes = (
{
closed = 1;
nodes = (
(911,735,ls),
(933.667,735,o),
(948,712.333,o),
(948,687,cs),
(948,653.667,o),
(924.667,617,o),
(866,617,cs),
(718,617,l),
(627.821,458.503,o),
(527.123,289.356,o),
(424,150,c),
(634.274,171.417,o),
(833.221,297.062,o),
(979.5,461.5,cs),
(1125.078,625.15,o),
(1212,817.55,o),
(1212,972,cs),
(1212,1150.361,o),
(1124.177,1278,o),
(938,1278,cs),
(764.853,1278,o),
(580.374,1208.426,o),
(485,1121,c),
(424.313,1054.245,o),
(402.194,1010.586,o),
(354.5,954,cs),
(315.167,907.333,o),
(272.333,875,o),
(211,875,cs),
(153.667,875,o),
(125,900.333,o),
(125,951,cs),
(125,1047.88,o),
(222.133,1168.918,o),
(374.5,1269.5,cs),
(527.334,1370.391,o),
(737.343,1443,o),
(953,1443,cs),
(1296.556,1443,o),
(1457,1226.396,o),
(1457,950,cs),
(1457,671.049,o),
(1264.052,324.168,o),
(917.5,125,cs),
(743.5,25,o),
(531.333,-38,o),
(286,-38,cs),
(232.667,-38,o),
(200,0.667,o),
(200,50,cs),
(200,88.667,o),
(214.667,125.333,o),
(236,156,c),
(468,617,l),
(271,617,ls),
(248.333,617,o),
(237,635.333,o),
(237,658,cs),
(237,692.816,o),
(266.448,735,o),
(333,735,cs),
(527,735,l),
(647,973,l),
(716.362,1080.63,o),
(792.083,1111,o),
(830,1111,cs),
(890,1111,o),
(913,1071,o),
(913,1023,cs),
(913,984.333,o),
(898.667,939.667,o),
(876,901,cs),
(785,735,l),
(785,735,l)
);
}
);
};
layerId = "DC66AB0F-19FD-4F06-8C39-5D32AA939720";
shapes = (
{
closed = 1;
nodes = (
(911,735,ls),
(934,735,o),
(948,712,o),
(948,687,cs),
(948,654,o),
(925,617,o),
(866,617,cs),
(718,617,l),
(628,459,o),
(527,289,o),
(424,150,c),
(634,171,o),
(833,297,o),
(980,462,cs),
(1125,625,o),
(1212,818,o),
(1212,972,cs),
(1212,1150,o),
(1124,1278,o),
(938,1278,cs),
(765,1278,o),
(580,1208,o),
(485,1121,c),
(424,1054,o),
(402,1011,o),
(355,954,cs),
(315,907,o),
(272,875,o),
(211,875,cs),
(154,875,o),
(125,900,o),
(125,951,cs),
(125,1048,o),
(222,1169,o),
(375,1270,cs),
(527,1370,o),
(737,1443,o),
(953,1443,cs),
(1297,1443,o),
(1457,1226,o),
(1457,950,cs),
(1457,671,o),
(1264,324,o),
(918,125,cs),
(744,25,o),
(531,-38,o),
(286,-38,cs),
(233,-38,o),
(200,1,o),
(200,50,cs),
(200,89,o),
(215,125,o),
(236,156,c),
(468,617,l),
(271,617,ls),
(248,617,o),
(237,635,o),
(237,658,cs),
(237,693,o),
(266,735,o),
(333,735,cs),
(527,735,l),
(647,973,l),
(716,1081,o),
(792,1111,o),
(830,1111,cs),
(890,1111,o),
(913,1071,o),
(913,1023,cs),
(913,984,o),
(899,940,o),
(876,901,cs),
(785,735,l)
);
}
);
width = 1216;
}
);
unicode = 208;
},
{
glyphname = E;
lastChange = "2024-04-18 14:08:02 +0000";
layers = (
{
anchors = (
{
name = bottom;
pos = (578,0);
},
{
name = ogonek;
pos = (1040,10);
},
{
name = top;
pos = (1284,1443);
},
{
name = topleft;
pos = (20,1440);
}
);
background = {
shapes = (
{
closed = 1;
nodes = (
(1120.897,825,o),
(1162,802.093,o),
(1162,774,cs),
(1162,750.197,o),
(1131.585,727.739,o),
(1073,711,cs),
(1007.667,692.333,o),
(902.333,679,o),
(737,679,cs),
(560.773,679,o),
(369,578.888,o),
(369,399,cs),
(369,255.009,o),
(450.99,129,o),
(623,129,cs),
(797.667,129,o),
(908.5,152.167,o),
(986.5,183.5,cs),
(1025.5,199.167,o),
(1057.5,216,o),
(1082.5,234,cs),
(1133.591,270.785,o),
(1171.82,302.078,o),
(1219.5,323.5,cs),
(1242.5,333.833,o),
(1271.333,339,o),
(1306,339,cs),
(1362,339,o),
(1396,310.667,o),
(1396,260,cs),
(1396,207.524,o),
(1307.491,132.468,o),
(1169,72,cs),
(1025.859,9.502,o),
(826.305,-38,o),
(616,-38,cs),
(351.402,-38,o),
(138,103.327,o),
(138,387,cs),
(138,509.667,o),
(197.833,611,o),
(294.5,687,cs),
(391.167,763,o),
(523.667,813.333,o),
(669,832,c),
(557,916,o),
(517,996.333,o),
(517,1075,cs),
(517,1188.879,o),
(608.552,1282.29,o),
(743,1345.5,cs),
(868.519,1404.513,o),
(1038.641,1443,o),
(1209,1443,cs),
(1430.775,1443,o),
(1614.826,1350.508,o),
(1636,1152,c),
(1636,1093.133,o),
(1577.848,1027,o),
(1477,1027,cs),
(1418.59,1027,o),
(1415,1056.269,o),
(1415,1095,cs),
(1415,1218.589,o),
(1362.091,1274,o),
(1199,1274,cs),
(1101.667,1274,o),
(990,1252.833,o),
(902,1213.5,cs),
(814,1174.167,o),
(751,1119,o),
(751,1051,cs),
(751,890.08,o),
(909.971,825,o),
(1078,825,cs)
);
}
);
};
layerId = "DC66AB0F-19FD-4F06-8C39-5D32AA939720";
shapes = (
{
closed = 1;
nodes = (
(1121,825,o),
(1162,802,o),
(1162,774,cs),
(1162,750,o),
(1132,728,o),
(1073,711,cs),
(1008,692,o),
(902,679,o),
(737,679,cs),
(561,679,o),
(369,579,o),
(369,358,cs),
(369,255.009,o),
(451,129,o),
(683,129,cs),
(798,129,o),
(909,152,o),
(987,184,cs),
(1026,199,o),
(1058,216,o),
(1083,234,cs),
(1134,271,o),
(1172,302,o),
(1220,324,cs),
(1243,334,o),
(1271,339,o),
(1306,339,cs),
(1362,339,o),
(1396,311,o),
(1396,260,cs),
(1396,208,o),
(1307,132,o),
(1169,72,cs),
(1026,10,o),
(826,-38,o),
(616,-38,cs),
(351,-38,o),
(138,103,o),
(138,380,cs),
(138,510,o),
(198,611,o),
(295,687,cs),
(391,763,o),
(524,813,o),
(669,832,c),
(557,916,o),
(517,996,o),
(517,1075,cs),
(517,1189,o),
(609,1282,o),
(743,1346,cs),
(869,1405,o),
(1039,1443,o),
(1209,1443,cs),
(1431,1443,o),
(1615,1351,o),
(1636,1152,c),
(1636,1093,o),
(1578,1027,o),
(1477,1027,cs),
(1419,1027,o),
(1415,1056,o),
(1415,1095,cs),
(1415,1219,o),
(1362,1274,o),
(1199,1274,cs),
(1102,1274,o),
(990,1253,o),
(902,1214,cs),
(814,1174,o),
(751,1119,o),
(751,1051,cs),
(751,890,o),
(910,825,o),
(1078,825,cs)
);
}
);
width = 1155;
}
);
unicode = 69;
},
{
glyphname = Eacute;
lastChange = "2024-04-18 13:10:14 +0000";
layers = (
{
background = {
anchors = (
{
name = top;
pos = (1281,2024);
}
);
shapes = (
{
closed = 1;
nodes = (
(1120.897,825,o),
(1162,802.093,o),
(1162,774,cs),
(1162,750.197,o),
(1131.585,727.739,o),
(1073,711,cs),
(1007.667,692.333,o),
(902.333,679,o),
(737,679,cs),
(560.773,679,o),
(369,578.888,o),
(369,399,cs),
(369,255.009,o),
(450.99,129,o),
(623,129,cs),
(797.667,129,o),
(908.5,152.167,o),
(986.5,183.5,cs),
(1025.5,199.167,o),
(1057.5,216,o),
(1082.5,234,cs),
(1133.591,270.785,o),
(1171.82,302.078,o),
(1219.5,323.5,cs),
(1242.5,333.833,o),
(1271.333,339,o),
(1306,339,cs),
(1362,339,o),
(1396,310.667,o),
(1396,260,cs),
(1396,207.524,o),
(1307.491,132.468,o),
(1169,72,cs),
(1025.859,9.502,o),
(826.305,-38,o),
(616,-38,cs),
(351.402,-38,o),
(138,103.327,o),
(138,387,cs),
(138,509.667,o),
(197.833,611,o),
(294.5,687,cs),
(391.167,763,o),
(523.667,813.333,o),
(669,832,c),
(557,916,o),
(517,996.333,o),
(517,1075,cs),
(517,1188.879,o),
(608.552,1282.29,o),
(743,1345.5,cs),
(868.519,1404.513,o),
(1038.641,1443,o),
(1209,1443,cs),
(1430.775,1443,o),
(1614.826,1350.508,o),
(1636,1152,c),
(1636,1093.133,o),
(1577.848,1027,o),
(1477,1027,cs),
(1418.59,1027,o),
(1415,1056.269,o),
(1415,1095,cs),
(1415,1218.589,o),
(1362.091,1274,o),
(1199,1274,cs),
(1101.667,1274,o),
(990,1252.833,o),
(902,1213.5,cs),
(814,1174.167,o),
(751,1119,o),
(751,1051,cs),
(751,890.08,o),
(909.971,825,o),
(1078,825,cs)
);
},
{
closed = 1;
nodes = (
(1139,1701,o),
(1163,1743,o),
(1188,1784,cs),
(1212,1825,o),
(1236,1867,o),
(1259,1909,cs),
(1310,1993,o),
(1366,2024,o),
(1409,2024,cs),
(1449,2024,o),
(1477,1996,o),
(1477,1955,cs),
(1477,1928,o),
(1467,1896,o),
(1436,1861,cs),
(1400,1819,o),
(1364,1777,o),
(1328,1736,cs),
(1291,1695,o),
(1255,1653,o),
(1219,1611,cs),
(1184,1566,o),
(1142,1543,o),
(1115,1543,cs),
(1094,1543,o),
(1084,1554,o),
(1084,1575,cs),
(1084,1594,o),
(1094,1622,o),
(1115,1659,cs)
);
}
);
};
layerId = "DC66AB0F-19FD-4F06-8C39-5D32AA939720";
shapes = (
{
ref = E;
},
{
pos = (573,723);
ref = acutecomb;
}
);
width = 1155;
}
);
unicode = 201;
},
{
glyphname = Ecircumflex;
lastChange = "2024-04-18 13:10:22 +0000";
layers = (
{
background = {
anchors = (
{
name = top;
pos = (1317,1908);
}
);
shapes = (
{
closed = 1;
nodes = (
(1120.897,825,o),
(1162,802.093,o),
(1162,774,cs),
(1162,750.197,o),
(1131.585,727.739,o),
(1073,711,cs),
(1007.667,692.333,o),
(902.333,679,o),
(737,679,cs),
(560.773,679,o),
(369,578.888,o),
(369,399,cs),
(369,255.009,o),
(450.99,129,o),
(623,129,cs),
(797.667,129,o),
(908.5,152.167,o),
(986.5,183.5,cs),
(1025.5,199.167,o),
(1057.5,216,o),
(1082.5,234,cs),
(1133.591,270.785,o),
(1171.82,302.078,o),
(1219.5,323.5,cs),
(1242.5,333.833,o),
(1271.333,339,o),
(1306,339,cs),
(1362,339,o),
(1396,310.667,o),
(1396,260,cs),
(1396,207.524,o),
(1307.491,132.468,o),
(1169,72,cs),
(1025.859,9.502,o),
(826.305,-38,o),
(616,-38,cs),
(351.402,-38,o),
(138,103.327,o),
(138,387,cs),
(138,509.667,o),
(197.833,611,o),
(294.5,687,cs),
(391.167,763,o),
(523.667,813.333,o),
(669,832,c),
(557,916,o),
(517,996.333,o),
(517,1075,cs),
(517,1188.879,o),
(608.552,1282.29,o),
(743,1345.5,cs),
(868.519,1404.513,o),
(1038.641,1443,o),
(1209,1443,cs),
(1430.775,1443,o),
(1614.826,1350.508,o),
(1636,1152,c),
(1636,1093.133,o),
(1577.848,1027,o),
(1477,1027,cs),
(1418.59,1027,o),
(1415,1056.269,o),
(1415,1095,cs),
(1415,1218.589,o),
(1362.091,1274,o),
(1199,1274,cs),
(1101.667,1274,o),
(990,1252.833,o),
(902,1213.5,cs),
(814,1174.167,o),
(751,1119,o),
(751,1051,cs),
(751,890.08,o),
(909.971,825,o),
(1078,825,cs)
);
},
{
closed = 1;
nodes = (
(1185,1756,o),
(1269,1832,o),
(1312,1867,cs),
(1353,1900,o),
(1369,1908,o),
(1401,1908,cs),
(1473,1908,o),
(1475,1846,o),
(1583,1627,cs),
(1585,1622,o),
(1586,1617,o),
(1586,1612,cs),
(1586,1580,o),
(1540,1559,o),
(1502,1559,cs),
(1473,1559,o),
(1446,1568,o),
(1435,1591,cs),
(1430,1602,o),
(1424,1616,o),
(1416,1635,cs),
(1408,1653,o),
(1400,1671,o),
(1392,1688,cs),
(1383,1709,o),
(1373,1730,o),
(1362,1752,c),
(1338,1730,o),
(1315,1709,o),
(1293,1688,cs),
(1274,1671,o),
(1255,1653,o),
(1236,1635,cs),
(1217,1616,o),
(1201,1602,o),
(1189,1591,cs),
(1172,1576,o),
(1153,1568,o),
(1134,1568,cs),
(1089,1568,o),
(1048,1594,o),
(1048,1622,cs),
(1048,1631,o),
(1052,1640,o),
(1061,1648,cs)
);
}
);
};
layerId = "DC66AB0F-19FD-4F06-8C39-5D32AA939720";
shapes = (
{
ref = E;
},
{
pos = (706,723);
ref = circumflexcomb;
}
);
width = 1155;
}
);
unicode = 202;
},
{
glyphname = Edblgrave;
lastChange = "2024-04-18 13:07:54 +0000";
layers = (
{
background = {
anchors = (
{
name = top;
pos = (1137,2020);
}
);
shapes = (
{
closed = 1;
nodes = (
(1120.897,825,o),
(1162,802.093,o),
(1162,774,cs),
(1162,750.197,o),
(1131.585,727.739,o),
(1073,711,cs),
(1007.667,692.333,o),
(902.333,679,o),
(737,679,cs),
(560.773,679,o),
(369,578.888,o),
(369,399,cs),
(369,255.009,o),
(450.99,129,o),
(623,129,cs),
(797.667,129,o),
(908.5,152.167,o),
(986.5,183.5,cs),
(1025.5,199.167,o),
(1057.5,216,o),
(1082.5,234,cs),
(1133.591,270.785,o),
(1171.82,302.078,o),
(1219.5,323.5,cs),
(1242.5,333.833,o),
(1271.333,339,o),
(1306,339,cs),
(1362,339,o),
(1396,310.667,o),
(1396,260,cs),
(1396,207.524,o),
(1307.491,132.468,o),
(1169,72,cs),
(1025.859,9.502,o),
(826.305,-38,o),
(616,-38,cs),
(351.402,-38,o),
(138,103.327,o),
(138,387,cs),
(138,509.667,o),
(197.833,611,o),
(294.5,687,cs),
(391.167,763,o),
(523.667,813.333,o),
(669,832,c),
(557,916,o),
(517,996.333,o),
(517,1075,cs),
(517,1188.879,o),
(608.552,1282.29,o),
(743,1345.5,cs),
(868.519,1404.513,o),
(1038.641,1443,o),
(1209,1443,cs),
(1430.775,1443,o),
(1614.826,1350.508,o),
(1636,1152,c),
(1636,1093.133,o),
(1577.848,1027,o),
(1477,1027,cs),
(1418.59,1027,o),
(1415,1056.269,o),
(1415,1095,cs),
(1415,1218.589,o),
(1362.091,1274,o),
(1199,1274,cs),
(1101.667,1274,o),
(990,1252.833,o),
(902,1213.5,cs),
(814,1174.167,o),
(751,1119,o),
(751,1051,cs),
(751,890.08,o),
(909.971,825,o),
(1078,825,cs)
);
},
{
closed = 1;
nodes = (
(1099,1632,o),
(1103,1614,o),
(1103,1599,cs),
(1103,1558,o),
(1084,1539,o),
(1059,1539,cs),
(1032,1539,o),
(998,1562,o),
(975,1607,cs),
(952,1649,o),
(928,1691,o),
(904,1732,cs),
(880,1773,o),
(856,1815,o),
(833,1857,cs),
(820,1880,o),
(815,1899,o),
(815,1920,cs),
(815,1979,o),
(859,2020,o),
(908,2020,cs),
(951,2020,o),
(997,1989,o),
(1024,1905,cs),
(1047,1821,o),
(1070,1739,o),
(1094,1655,cs)
);
},
{
closed = 1;
nodes = (
(1455,1632,o),
(1459,1614,o),
(1459,1599,cs),
(1459,1558,o),
(1440,1539,o),
(1415,1539,cs),
(1388,1539,o),
(1354,1562,o),
(1331,1607,cs),
(1308,1649,o),
(1284,1691,o),
(1260,1732,cs),
(1236,1773,o),
(1212,1815,o),
(1189,1857,cs),
(1176,1880,o),
(1171,1899,o),
(1171,1920,cs),
(1171,1979,o),
(1215,2020,o),
(1264,2020,cs),
(1307,2020,o),
(1353,1989,o),
(1380,1905,cs),
(1403,1821,o),
(1426,1739,o),
(1450,1655,cs)
);
}
);
};
layerId = "DC66AB0F-19FD-4F06-8C39-5D32AA939720";
shapes = (
{
alignment = -1;
ref = E;
},
{
alignment = -1;
pos = (118,713);
ref = dblgravecomb;
}
);
width = 1155;
}
);
unicode = 516;
},
{
glyphname = Edieresis;
lastChange = "2024-04-18 13:14:43 +0000";
layers = (
{
background = {
anchors = (
{
name = top;
pos = (1312,1800);
}
);
shapes = (
{
closed = 1;
nodes = (
(1120.897,825,o),
(1162,802.093,o),
(1162,774,cs),
(1162,750.197,o),
(1131.585,727.739,o),
(1073,711,cs),
(1007.667,692.333,o),
(902.333,679,o),
(737,679,cs),
(560.773,679,o),
(369,578.888,o),
(369,399,cs),
(369,255.009,o),
(450.99,129,o),
(623,129,cs),
(797.667,129,o),
(908.5,152.167,o),
(986.5,183.5,cs),
(1025.5,199.167,o),
(1057.5,216,o),
(1082.5,234,cs),
(1133.591,270.785,o),
(1171.82,302.078,o),
(1219.5,323.5,cs),
(1242.5,333.833,o),
(1271.333,339,o),
(1306,339,cs),
(1362,339,o),
(1396,310.667,o),
(1396,260,cs),
(1396,207.524,o),
(1307.491,132.468,o),
(1169,72,cs),
(1025.859,9.502,o),
(826.305,-38,o),
(616,-38,cs),
(351.402,-38,o),
(138,103.327,o),
(138,387,cs),
(138,509.667,o),
(197.833,611,o),
(294.5,687,cs),
(391.167,763,o),
(523.667,813.333,o),
(669,832,c),
(557,916,o),
(517,996.333,o),
(517,1075,cs),
(517,1188.879,o),
(608.552,1282.29,o),
(743,1345.5,cs),
(868.519,1404.513,o),
(1038.641,1443,o),
(1209,1443,cs),
(1430.775,1443,o),
(1614.826,1350.508,o),
(1636,1152,c),
(1636,1093.133,o),
(1577.848,1027,o),
(1477,1027,cs),
(1418.59,1027,o),
(1415,1056.269,o),
(1415,1095,cs),
(1415,1218.589,o),
(1362.091,1274,o),
(1199,1274,cs),
(1101.667,1274,o),
(990,1252.833,o),
(902,1213.5,cs),
(814,1174.167,o),
(751,1119,o),
(751,1051,cs),
(751,890.08,o),
(909.971,825,o),
(1078,825,cs)
);
},
{
closed = 1;
nodes = (
(1259,1635,o),
(1193,1575,o),
(1126,1575,cs),
(1077,1575,o),
(1046,1605,o),
(1046,1650,cs),
(1046,1732,o),
(1120,1800,o),
(1198,1800,cs),
(1247,1800,o),
(1274,1770,o),
(1274,1725,cs),
(1274,1718,o),
(1273,1710,o),
(1272,1702,cs)
);
},
{
closed = 1;
nodes = (
(1562,1635,o),
(1496,1575,o),
(1429,1575,cs),
(1380,1575,o),
(1349,1605,o),
(1349,1650,cs),
(1349,1732,o),
(1423,1800,o),
(1501,1800,cs),
(1550,1800,o),
(1577,1770,o),
(1577,1725,cs),
(1577,1718,o),
(1576,1710,o),
(1575,1702,cs)
);
}
);
};
layerId = "DC66AB0F-19FD-4F06-8C39-5D32AA939720";
shapes = (
{
ref = E;
},
{
pos = (353,723);
ref = dieresiscomb;
}
);
width = 1155;
}
);
unicode = 203;
},
{
glyphname = Egrave;
lastChange = "2024-04-18 13:15:09 +0000";
layers = (
{
background = {
anchors = (
{
name = top;
pos = (1210,2042);
}
);
shapes = (
{
closed = 1;
nodes = (
(1120.897,825,o),
(1162,802.093,o),
(1162,774,cs),
(1162,750.197,o),
(1131.585,727.739,o),
(1073,711,cs),
(1007.667,692.333,o),
(902.333,679,o),
(737,679,cs),
(560.773,679,o),
(369,578.888,o),
(369,399,cs),
(369,255.009,o),
(450.99,129,o),
(623,129,cs),
(797.667,129,o),
(908.5,152.167,o),
(986.5,183.5,cs),
(1025.5,199.167,o),
(1057.5,216,o),
(1082.5,234,cs),
(1133.591,270.785,o),
(1171.82,302.078,o),
(1219.5,323.5,cs),
(1242.5,333.833,o),
(1271.333,339,o),
(1306,339,cs),
(1362,339,o),
(1396,310.667,o),
(1396,260,cs),
(1396,207.524,o),
(1307.491,132.468,o),
(1169,72,cs),
(1025.859,9.502,o),
(826.305,-38,o),
(616,-38,cs),
(351.402,-38,o),
(138,103.327,o),
(138,387,cs),
(138,509.667,o),
(197.833,611,o),
(294.5,687,cs),
(391.167,763,o),
(523.667,813.333,o),
(669,832,c),
(557,916,o),
(517,996.333,o),
(517,1075,cs),
(517,1188.879,o),
(608.552,1282.29,o),
(743,1345.5,cs),
(868.519,1404.513,o),
(1038.641,1443,o),
(1209,1443,cs),
(1430.775,1443,o),
(1614.826,1350.508,o),
(1636,1152,c),
(1636,1093.133,o),
(1577.848,1027,o),
(1477,1027,cs),
(1418.59,1027,o),
(1415,1056.269,o),
(1415,1095,cs),
(1415,1218.589,o),
(1362.091,1274,o),
(1199,1274,cs),
(1101.667,1274,o),
(990,1252.833,o),
(902,1213.5,cs),
(814,1174.167,o),
(751,1119,o),
(751,1051,cs),
(751,890.08,o),
(909.971,825,o),
(1078,825,cs)
);
},
{
closed = 1;
nodes = (
(1337,1660,o),
(1338,1645,o),
(1338,1632,cs),
(1338,1535,o),
(1248,1540,o),
(1211,1629,cs),
(1192,1671,o),
(1172,1713,o),
(1152,1754,cs),
(1132,1795,o),
(1112,1837,o),
(1093,1879,cs),
(1085,1897,o),
(1081,1914,o),
(1081,1931,cs),
(1081,1993,o),
(1132,2042,o),
(1184,2042,cs),
(1227,2042,o),
(1270,2011,o),
(1289,1927,cs),
(1296,1885,o),
(1304,1843,o),
(1312,1802,cs),
(1319,1761,o),
(1327,1719,o),
(1334,1677,cs)
);
}
);
};
layerId = "DC66AB0F-19FD-4F06-8C39-5D32AA939720";
shapes = (
{
ref = E;
},
{
pos = (701,738);
ref = gravecomb;
}
);
width = 1155;
}
);
unicode = 200;
},
{
glyphname = Einvertedbreve;
lastChange = "2024-04-18 13:07:54 +0000";
layers = (
{
background = {
anchors = (
{
name = top;
pos = (1247,1792);
}
);
shapes = (
{
closed = 1;
nodes = (
(1120.897,825,o),
(1162,802.093,o),
(1162,774,cs),
(1162,750.197,o),
(1131.585,727.739,o),
(1073,711,cs),
(1007.667,692.333,o),
(902.333,679,o),
(737,679,cs),
(560.773,679,o),
(369,578.888,o),
(369,399,cs),
(369,255.009,o),
(450.99,129,o),
(623,129,cs),
(797.667,129,o),
(908.5,152.167,o),
(986.5,183.5,cs),
(1025.5,199.167,o),
(1057.5,216,o),
(1082.5,234,cs),
(1133.591,270.785,o),
(1171.82,302.078,o),
(1219.5,323.5,cs),
(1242.5,333.833,o),
(1271.333,339,o),
(1306,339,cs),
(1362,339,o),
(1396,310.667,o),
(1396,260,cs),
(1396,207.524,o),
(1307.491,132.468,o),
(1169,72,cs),
(1025.859,9.502,o),
(826.305,-38,o),
(616,-38,cs),
(351.402,-38,o),
(138,103.327,o),
(138,387,cs),
(138,509.667,o),
(197.833,611,o),
(294.5,687,cs),
(391.167,763,o),
(523.667,813.333,o),
(669,832,c),
(557,916,o),
(517,996.333,o),
(517,1075,cs),
(517,1188.879,o),
(608.552,1282.29,o),
(743,1345.5,cs),
(868.519,1404.513,o),
(1038.641,1443,o),
(1209,1443,cs),
(1430.775,1443,o),
(1614.826,1350.508,o),
(1636,1152,c),
(1636,1093.133,o),
(1577.848,1027,o),
(1477,1027,cs),
(1418.59,1027,o),
(1415,1056.269,o),
(1415,1095,cs),
(1415,1218.589,o),
(1362.091,1274,o),
(1199,1274,cs),
(1101.667,1274,o),
(990,1252.833,o),
(902,1213.5,cs),
(814,1174.167,o),
(751,1119,o),
(751,1051,cs),
(751,890.08,o),
(909.971,825,o),
(1078,825,cs)
);
},
{
closed = 1;
nodes = (
(1461,1579,o),
(1427,1566,o),
(1398,1566,cs),
(1373,1566,o),
(1353,1575,o),
(1353,1594,cs),
(1353,1598,o),
(1354,1603,o),
(1355,1608,cs),
(1356,1613,o),
(1357,1617,o),
(1357,1621,cs),
(1357,1656,o),
(1329,1681,o),
(1268,1681,cs),
(1195,1681,o),
(1145,1641,o),
(1134,1598,cs),
(1119,1550,o),
(1018,1549,o),
(1018,1592,cs),
(1018,1593,o),
(1019,1597,o),
(1020,1602,cs),
(1050,1707,o),
(1186,1792,o),
(1300,1792,cs),
(1413,1792,o),
(1475,1731,o),
(1475,1651,cs),
(1475,1634,o),
(1473,1618,o),
(1468,1602,cs)
);
}
);
};
layerId = "DC66AB0F-19FD-4F06-8C39-5D32AA939720";
shapes = (
{
alignment = -1;
ref = E;
},
{
alignment = -1;
pos = (447,728);
ref = breveinvertedcomb;
}
);
width = 1155;
}
);
unicode = 518;
},
{
glyphname = F;
lastChange = "2024-04-18 13:09:08 +0000";
layers = (
{
anchors = (
{
name = bottom;
pos = (428,0);
},
{
name = top;
pos = (428,1440);
}
);
background = {
shapes = (
{
closed = 1;
nodes = (
(1150.495,749.864,o),
(1126.109,738,o),
(1067,738,c),
(941.667,748.667,o),
(855.333,754,o),
(786,754,cs),
(718,754,o),
(670.333,749.333,o),
(621,736,c),
(601,704,o),
(558.167,630.167,o),
(509.5,541.5,cs),
(460.833,452.833,o),
(407.667,348,o),
(365,256,cs),
(319,156,o),
(277.833,81.333,o),
(241.5,32,cs),
(205.167,-17.333,o),
(174.333,-42,o),
(149,-42,cs),
(87.667,-42,o),
(62,-19.667,o),
(62,23,cs),
(62,73.667,o),
(100.667,165.333,o),
(166,296,cs),
(200.691,365.382,o),
(246.489,450.48,o),
(292,535,cs),
(340.1,624.329,o),
(367.481,675.123,o),
(373,688,cs),
(381.071,709.523,o),
(377.701,696.803,o),
(381,710,c),
(363,710,ls),
(337.667,710,o),
(317.333,712,o),
(302,716,cs),
(286.667,720,o),
(279,728.667,o),
(279,742,cs),
(279,749.333,o),
(282,758.667,o),
(288,770,cs),
(341.426,869.219,o),
(421.717,869,o),
(462,869,c),
(498,942.333,o),
(534,1015.667,o),
(570,1089,cs),
(705.749,1357.836,o),
(839.847,1443,o),
(1096,1443,cs),
(1154.667,1443,o),
(1201.5,1441.333,o),
(1236.5,1438,cs),
(1271.5,1434.667,o),
(1296,1431.333,o),
(1310,1428,cs),
(1363.333,1413.333,o),
(1383,1374.667,o),
(1383,1332,cs),
(1383,1266.067,o),
(1332.267,1190,o),
(1281,1190,cs),
(1273.667,1190,o),
(1267.333,1191.333,o),
(1262,1194,cs),
(1200.524,1221.944,o),
(1179.353,1232,o),
(1091,1232,cs),
(1045.667,1232,o),
(986.333,1230,o),
(897,1226,c),
(827.258,1104.597,o),
(771.02,1006.606,o),
(703,890,c),
(801.312,924.542,o),
(941.041,946,o),
(1052,946,cs),
(1102.667,946,o),
(1139.167,942,o),
(1161.5,934,cs),
(1183.833,926,o),
(1195,909.667,o),
(1195,885,cs),
(1195,874.333,o),
(1196.667,852.667,o),
(1182,826,c)
);
}
);
};
layerId = "DC66AB0F-19FD-4F06-8C39-5D32AA939720";
shapes = (
{
closed = 1;
nodes = (
(1150,750,o),
(1126,738,o),
(1067,738,c),
(942,749,o),
(855,754,o),
(786,754,cs),
(718,754,o),
(670,749,o),
(621,736,c),
(601,704,o),
(558,630,o),
(510,542,cs),
(461,453,o),
(408,348,o),
(365,256,cs),
(319,156,o),
(278,81,o),
(242,32,cs),
(205,-17,o),
(174,-42,o),
(149,-42,cs),
(88,-42,o),
(62,-20,o),
(62,23,cs),
(62,74,o),
(101,165,o),
(166,296,cs),
(201,365,o),
(246,450,o),
(292,535,cs),
(340,624,o),
(367,675,o),
(373,688,cs),
(381,710,o),
(378,697,o),
(381,710,c),
(363,710,ls),
(338,710,o),
(317,712,o),
(302,716,cs),
(287,720,o),
(279,729,o),
(279,742,cs),
(279,749,o),
(282,759,o),
(288,770,cs),
(341,869,o),
(422,869,o),
(462,869,c),
(570,1089,ls),
(706,1358,o),
(840,1443,o),
(1096,1443,cs),
(1155,1443,o),
(1202,1441,o),
(1237,1438,cs),
(1272,1435,o),
(1296,1431,o),
(1310,1428,cs),
(1363,1413,o),
(1383,1375,o),
(1383,1332,cs),
(1383,1266,o),
(1332,1190,o),
(1281,1190,cs),
(1274,1190,o),
(1267,1191,o),
(1262,1194,cs),
(1201,1222,o),
(1179,1232,o),
(1091,1232,cs),
(1046,1232,o),
(986,1230,o),
(897,1226,c),
(703,890,l),
(801,925,o),
(941,946,o),
(1052,946,cs),
(1103,946,o),
(1139,942,o),
(1162,934,cs),
(1184,926,o),
(1195,910,o),
(1195,885,cs),
(1195,874,o),
(1197,853,o),
(1182,826,c)
);
}
);
width = 855;
}
);
unicode = 70;
},
{
glyphname = G;
lastChange = "2024-04-18 13:55:54 +0000";
layers = (
{
anchors = (
{
name = bottom;
pos = (668,0);
},
{
name = top;
pos = (1068,1440);
}
);
background = {
shapes = (
{
closed = 1;
nodes = (
(1233.81,421.012,o),
(1182.92,275.723,o),
(1136.5,146.5,cs),
(1071.641,-34.055,o),
(1041.555,-131.613,o),
(1037,-143,cs),
(1022.106,-190.661,o),
(973.312,-256,o),
(925,-256,cs),
(882.333,-256,o),
(864,-236,o),
(864,-172,cs),
(864,-167.333,o),
(864,-162.667,o),
(864,-158,cs),
(864,-153.333,o),
(864.333,-148.333,o),
(865,-143,cs),
(867.824,-97.814,o),
(956.23,134.155,o),
(996,238,c),
(860.479,110.15,o),
(660.122,-40,o),
(496,-40,cs),
(311,-40,o),
(227,111.758,o),
(227,255,cs),
(227,259.667,o),
(227,264,o),
(227,268,cs),
(227,272,o),
(227.333,276,o),
(228,280,cs),
(243.832,533.313,o),
(374.016,825.863,o),
(552.5,1054,cs),
(641.167,1167.333,o),
(742.667,1264.833,o),
(848,1333.5,cs),
(953.333,1402.167,o),
(1061.667,1443,o),
(1167,1443,cs),
(1288.333,1443,o),
(1403.333,1390.333,o),
(1502,1265,cs),
(1524.667,1237,o),
(1528,1207.333,o),
(1528,1182,cs),
(1528,1122,o),
(1488.667,1085,o),
(1442,1085,cs),
(1399.333,1085,o),
(1366.333,1124.333,o),
(1321,1195,cs),
(1278.333,1259,o),
(1227,1286,o),
(1167,1286,cs),
(1028.979,1286,o),
(853.269,1130.165,o),
(710.5,923.5,cs),
(565.844,714.103,o),
(464,475.378,o),
(464,308,cs),
(464,234.315,o),
(484.583,142,o),
(574,142,cs),
(647.095,142,o),
(755.383,209.323,o),
(857,295,cs),
(958.307,380.416,o),
(1047.312,477.55,o),
(1081,537,c),
(1174,772,l),
(1196.667,822.667,o),
(1236.333,842,o),
(1275,842,cs),
(1312.72,842,o),
(1352,821.748,o),
(1352,772,cs),
(1352,644.562,o),
(1292.648,551.473,o),
(1245,435,c)
);
}
);
};
layerId = "DC66AB0F-19FD-4F06-8C39-5D32AA939720";
shapes = (
{
closed = 1;
nodes = (
(1234,421,o),
(1183,276,o),
(1137,147,cs),
(1072,-34,o),
(1042,-132,o),
(1037,-143,c),
(1022,-191,o),
(973,-256,o),
(925,-256,cs),
(882,-256,o),
(864,-236,o),
(864,-172,cs),
(864,-158,l),
(865,-143,ls),
(868,-98,o),
(956,134,o),
(996,238,c),
(860,110,o),
(660,-40,o),
(496,-40,cs),
(311,-40,o),
(227,112,o),
(227,255,cs),
(227,268,l),
(228,280,ls),
(244,533,o),
(374,826,o),
(553,1054,cs),
(641,1167,o),
(743,1265,o),
(848,1334,cs),
(953,1402,o),
(1062,1443,o),
(1167,1443,cs),
(1288,1443,o),
(1403,1390,o),
(1502,1265,cs),
(1525,1237,o),
(1528,1207,o),
(1528,1182,cs),
(1528,1122,o),
(1489,1085,o),
(1442,1085,cs),
(1399,1085,o),
(1366,1124,o),
(1321,1195,cs),
(1278,1259,o),
(1227,1286,o),
(1167,1286,cs),
(1029,1286,o),
(853,1130,o),
(711,924,cs),
(566,714,o),
(464,475,o),
(464,308,cs),
(464,234,o),
(485,142,o),
(574,142,cs),
(647,142,o),
(755,209,o),
(857,295,cs),
(958,380,o),
(1047,478,o),
(1081,537,c),
(1174,772,l),
(1197,823,o),
(1236,842,o),
(1275,842,cs),
(1313,842,o),
(1352,822,o),
(1352,772,cs),
(1352,645,o),
(1293,551,o),
(1245,435,c)
);
}
);
width = 1336;
}
);
unicode = 71;
},
{
glyphname = H;
lastChange = "2024-04-18 13:09:08 +0000";
layers = (
{
anchors = (
{
name = bottom;
pos = (734,0);
},
{
name = center;
pos = (734,1082);
},
{
name = top;
pos = (734,1440);
},
{
name = topleft;
pos = (20,1440);
}
);
background = {
shapes = (
{
closed = 1;
nodes = (
(1397.667,405,o),
(1394.833,404.833,o),
(1392.5,404.5,cs),
(1390.167,404.167,o),
(1387.667,404,o),
(1385,404,c),
(1319.667,257.333,o),
(1267.667,140.333,o),
(1241,91,cs),
(1197.093,10.935,o),
(1123.705,-32,o),
(1063,-32,cs),
(1021.667,-32,o),
(990,-12,o),
(990,28,cs),
(990,45.333,o),
(995.333,65.667,o),
(1006,89,cs),
(1150,394,l),
(1004.667,388.667,o),
(871,384.667,o),
(747,382,c),
(684.333,254,o),
(612,138,o),
(532,54,cs),
(452,-30,o),
(365.333,-82,o),
(272,-82,cs),
(236,-82,o),
(202.667,-72.667,o),
(172,-54,c),
(135.026,-38.154,o),
(78,38.806,o),
(78,113,cs),
(78,139.667,o),
(87.667,164.333,o),
(105,187,cs),
(118.546,202.804,o),
(146.748,251,o),
(189,251,cs),
(197,251,o),
(205.333,249.333,o),
(212,244,c),
(238.243,228.254,o),
(260.454,115,o),
(311,115,cs),
(347,115,o),
(383.5,143.833,o),
(421.5,192.5,cs),
(459.5,241.167,o),
(498.333,311,o),
(537,391,c),
(494.333,404.333,o),
(479,431.333,o),
(479,458,cs),
(479,490.853,o),
(533.715,525.528,o),
(598,528,c),
(665.986,694.189,o),
(741.144,925.02,o),
(785,1071.5,cs),
(836.333,1242.953,o),
(867.658,1357.08,o),
(875,1384,cs),
(885.667,1425.333,o),
(919.333,1443,o),
(954,1443,cs),
(1006,1443,o),
(1034,1414.333,o),
(1034,1325,cs),
(1034,1319.667,o),
(1034,1314.167,o),
(1034,1308.5,cs),
(1034,1302.833,o),
(1033.667,1296.667,o),
(1033,1290,cs),
(1028.963,1237.523,o),
(1006.482,1122.946,o),
(970,989.5,cs),
(932.724,853.148,o),
(881.626,691.893,o),
(814,530,c),
(925.673,530,o),
(1015.885,529.003,o),
(1206,524,cs),
(1206.667,524,o),
(1207.333,523.833,o),
(1208,523.5,cs),
(1208.667,523.167,o),
(1209.333,523,o),
(1210,523,c),
(1327.333,769.667,o),
(1434,994.167,o),
(1522,1157.5,cs),
(1598.225,1298.978,o),
(1674.09,1422,o),
(1723,1422,cs),
(1769.667,1422,o),
(1793,1398.333,o),
(1793,1361,cs),
(1793,1341,o),
(1788,1327.667,o),
(1780,1309,cs),
(1711.98,1144.182,o),
(1555.458,794.063,o),
(1432,513,c),
(1472,505,o),
(1501,491.667,o),
(1501,469,cs),
(1501,439.667,o),
(1473,409,o),
(1401,405,cs)
);
}
);
};
layerId = "DC66AB0F-19FD-4F06-8C39-5D32AA939720";
shapes = (
{
closed = 1;
nodes = (
(1393,405,l),
(1385,404,l),
(1320,257,o),
(1268,140,o),
(1241,91,cs),
(1197,11,o),
(1124,-32,o),
(1063,-32,cs),
(1022,-32,o),
(990,-12,o),
(990,28,cs),
(990,45,o),
(995,66,o),
(1006,89,cs),
(1150,394,l),
(1005,389,o),
(871,385,o),
(747,382,c),
(684,254,o),
(612,138,o),
(532,54,cs),
(452,-30,o),
(365,-82,o),
(272,-82,cs),
(236,-82,o),
(203,-73,o),
(172,-54,c),
(135,-38,o),
(78,39,o),
(78,113,cs),
(78,140,o),
(88,164,o),
(105,187,cs),
(119,203,o),
(147,251,o),
(189,251,cs),
(197,251,o),
(205,249,o),
(212,244,cs),
(238,228,o),
(260,115,o),
(311,115,cs),
(347,115,o),
(384,144,o),
(422,193,cs),
(460,241,o),
(498,311,o),
(537,391,c),
(494,404,o),
(479,431,o),
(479,458,cs),
(479,491,o),
(534,526,o),
(598,528,c),
(666,694,o),
(741,925,o),
(785,1072,cs),
(836,1243,o),
(868,1357,o),
(875,1384,cs),
(886,1425,o),
(919,1443,o),
(954,1443,cs),
(1006,1443,o),
(1034,1414,o),
(1034,1325,cs),
(1034,1309,l),
(1033,1290,ls),
(1029,1238,o),
(1006,1123,o),
(970,990,cs),
(933,853,o),
(882,692,o),
(814,530,c),
(926,530,o),
(1016,529,o),
(1206,524,cs),
(1207,524,o),
(1207,524,o),
(1208,524,c),
(1209,523,o),
(1209,523,o),
(1210,523,c),
(1327,770,o),
(1434,994,o),
(1522,1158,cs),
(1598,1299,o),
(1674,1422,o),
(1723,1422,cs),
(1770,1422,o),
(1793,1398,o),
(1793,1361,cs),
(1793,1341,o),
(1788,1328,o),
(1780,1309,cs),
(1712,1144,o),
(1555,794,o),
(1432,513,c),
(1472,505,o),
(1501,492,o),
(1501,469,cs),
(1501,440,o),
(1473,409,o),
(1401,405,cs)
);
}
);
width = 1467;
}
);
unicode = 72;
},
{
color = 9;
glyphname = Hbar;
lastChange = "2024-04-18 14:18:30 +0000";
layers = (
{
layerId = "DC66AB0F-19FD-4F06-8C39-5D32AA939720";
shapes = (
{
ref = H;
},
{
closed = 1;
nodes = (
(1831,1046,ls),
(1854,1046,o),
(1868,1023,o),
(1868,998,cs),
(1868,965,o),
(1845,928,o),
(1786,928,cs),
(535,928,ls),
(512,928,o),
(501,946,o),
(501,969,cs),
(501,1004,o),
(530,1046,o),
(597,1046,cs)
);
}
);
width = 1467;
}
);
unicode = 294;
},
{
glyphname = I;
lastChange = "2024-04-18 13:56:02 +0000";
layers = (
{
anchors = (
{
name = bottom;
pos = (538,0);
},
{
name = ogonek;
pos = (968,10);
},
{
name = top;
pos = (1248,1420);
},
{
name = topleft;
pos = (20,1440);
}
);
background = {
shapes = (
{
closed = 1;
nodes = (
(690,17.333,o),
(624,20,o),
(564,20,cs),
(494.505,20,o),
(403.882,15,o),
(325,15,cs),
(281,15,o),
(256,43.667,o),
(256,81,cs),
(256,88.333,o),
(257,96,o),
(259,104,cs),
(267.973,133.91,o),
(383.376,167.99,o),
(511,178,c),
(615.799,405.735,o),
(727.854,625.914,o),
(844,841,cs),
(956.757,1049.81,o),
(1044.18,1197.573,o),
(1091,1260,c),
(1057,1252.667,o),
(1024,1244.833,o),
(992,1236.5,cs),
(960,1228.167,o),
(924,1220,o),
(884,1212,c),
(876,1209.333,o),
(868,1208,o),
(860,1208,cs),
(821.333,1208,o),
(799,1239.333,o),
(799,1278,cs),
(799,1303.86,o),
(870.788,1344.97,o),
(985.5,1380.5,cs),
(1095.653,1414.618,o),
(1243.537,1443,o),
(1397,1443,cs),
(1443.667,1443,o),
(1480.167,1438.167,o),
(1506.5,1428.5,cs),
(1532.833,1418.833,o),
(1546,1402.333,o),
(1546,1379,cs),
(1546,1330.395,o),
(1486.373,1282,o),
(1422,1282,cs),
(1412.667,1282,o),
(1404,1282.5,o),
(1396,1283.5,cs),
(1388,1284.5,o),
(1379.333,1285,o),
(1370,1285,cs),
(1320.667,1285,o),
(1278.667,1282.667,o),
(1240,1280,c),
(1241.333,1273.333,o),
(1242,1268.333,o),
(1242,1265,cs),
(1242,1246.333,o),
(1233.667,1229.667,o),
(1227,1215,cs),
(1167.554,1090.355,o),
(1069.247,887.061,o),
(956.5,655,cs),
(835.661,406.283,o),
(767.153,270.305,o),
(720,176,c),
(856.235,163.836,o),
(975,134.497,o),
(975,74,cs),
(975,31.914,o),
(914.668,-6,o),
(862,-6,cs),
(846.667,-6,o),
(832.167,-4,o),
(818.5,0,cs),
(804.833,4,o),
(791.333,6.667,o),
(778,8,cs)
);
}
);
};
layerId = "DC66AB0F-19FD-4F06-8C39-5D32AA939720";
shapes = (
{
closed = 1;
nodes = (
(690,17,o),
(624,20,o),
(564,20,cs),
(495,20,o),
(404,15,o),
(325,15,cs),
(281,15,o),
(256,44,o),
(256,81,cs),
(256,88,o),
(257,96,o),
(259,104,cs),
(268,134,o),
(383,168,o),
(511,178,c),
(616,406,o),
(728,626,o),
(844,841,cs),
(957,1050,o),
(1044,1198,o),
(1091,1260,c),
(992,1237,ls),
(960,1228,o),
(924,1220,o),
(884,1212,c),
(876,1209,o),
(868,1208,o),
(860,1208,cs),
(821,1208,o),
(799,1239,o),
(799,1278,cs),
(799,1304,o),
(871,1345,o),
(986,1381,cs),
(1096,1415,o),
(1244,1443,o),
(1397,1443,cs),
(1444,1443,o),
(1480,1438,o),
(1507,1429,cs),
(1533,1419,o),
(1546,1402,o),
(1546,1379,cs),
(1546,1330,o),
(1486,1282,o),
(1422,1282,cs),
(1413,1282,o),
(1404,1283,o),
(1396,1284,cs),
(1388,1285,o),
(1379,1285,o),
(1370,1285,cs),
(1321,1285,o),
(1279,1283,o),
(1240,1280,c),
(1241,1273,o),
(1242,1268,o),
(1242,1265,cs),
(1242,1246,o),
(1234,1230,o),
(1227,1215,cs),
(957,655,ls),
(836,406,o),
(767,270,o),
(720,176,c),
(856,164,o),
(975,134,o),
(975,74,cs),
(975,32,o),
(915,-6,o),
(862,-6,cs),
(847,-6,o),
(832,-4,o),
(819,0,cs),
(805,4,o),
(791,7,o),
(778,8,cs)
);
}
);
width = 1075;
}
);
unicode = 73;
},
{
glyphname = Iacute;
lastChange = "2024-04-18 13:16:18 +0000";
layers = (
{
background = {
anchors = (
{
name = top;
pos = (1522,2028);
}
);
shapes = (
{
closed = 1;
nodes = (
(690,17.333,o),
(624,20,o),
(564,20,cs),
(494.505,20,o),
(403.882,15,o),
(325,15,cs),
(281,15,o),
(256,43.667,o),
(256,81,cs),
(256,88.333,o),
(257,96,o),
(259,104,cs),
(267.973,133.91,o),
(383.376,167.99,o),
(511,178,c),
(615.799,405.735,o),
(727.854,625.914,o),
(844,841,cs),
(956.757,1049.81,o),
(1044.18,1197.573,o),
(1091,1260,c),
(1057,1252.667,o),
(1024,1244.833,o),
(992,1236.5,cs),
(960,1228.167,o),
(924,1220,o),
(884,1212,c),
(876,1209.333,o),
(868,1208,o),
(860,1208,cs),
(821.333,1208,o),
(799,1239.333,o),
(799,1278,cs),
(799,1303.86,o),
(870.788,1344.97,o),
(985.5,1380.5,cs),
(1095.653,1414.618,o),
(1243.537,1443,o),
(1397,1443,cs),
(1443.667,1443,o),
(1480.167,1438.167,o),
(1506.5,1428.5,cs),
(1532.833,1418.833,o),
(1546,1402.333,o),
(1546,1379,cs),
(1546,1330.395,o),
(1486.373,1282,o),
(1422,1282,cs),
(1412.667,1282,o),
(1404,1282.5,o),
(1396,1283.5,cs),
(1388,1284.5,o),
(1379.333,1285,o),
(1370,1285,cs),
(1320.667,1285,o),
(1278.667,1282.667,o),
(1240,1280,c),
(1241.333,1273.333,o),
(1242,1268.333,o),
(1242,1265,cs),
(1242,1246.333,o),
(1233.667,1229.667,o),
(1227,1215,cs),
(1167.554,1090.355,o),
(1069.247,887.061,o),
(956.5,655,cs),
(835.661,406.283,o),
(767.153,270.305,o),
(720,176,c),
(856.235,163.836,o),
(975,134.497,o),
(975,74,cs),
(975,31.914,o),
(914.668,-6,o),
(862,-6,cs),
(846.667,-6,o),
(832.167,-4,o),
(818.5,0,cs),
(804.833,4,o),
(791.333,6.667,o),
(778,8,cs)
);
},
{
closed = 1;
nodes = (
(1380,1705,o),
(1404,1747,o),
(1429,1788,cs),
(1453,1829,o),
(1477,1871,o),
(1500,1913,cs),
(1551,1997,o),
(1607,2028,o),
(1650,2028,cs),
(1690,2028,o),
(1718,2000,o),
(1718,1959,cs),
(1718,1932,o),
(1708,1900,o),
(1677,1865,cs),
(1641,1823,o),
(1605,1781,o),
(1569,1740,cs),
(1532,1699,o),
(1496,1657,o),
(1460,1615,cs),
(1425,1570,o),
(1383,1547,o),
(1356,1547,cs),
(1335,1547,o),
(1325,1558,o),
(1325,1579,cs),
(1325,1598,o),
(1335,1626,o),
(1356,1663,cs)
);
}
);
};
layerId = "DC66AB0F-19FD-4F06-8C39-5D32AA939720";
shapes = (
{
ref = I;
},
{
pos = (537,700);
ref = acutecomb;
}
);
width = 1075;
}
);
unicode = 205;
},
{
glyphname = Icircumflex;
lastChange = "2024-04-18 13:16:18 +0000";
layers = (
{
background = {
anchors = (
{
name = top;
pos = (1341,1881);
}
);
shapes = (
{
closed = 1;
nodes = (
(690,17.333,o),
(624,20,o),
(564,20,cs),
(494.505,20,o),
(403.882,15,o),
(325,15,cs),
(281,15,o),
(256,43.667,o),
(256,81,cs),
(256,88.333,o),
(257,96,o),
(259,104,cs),
(267.973,133.91,o),
(383.376,167.99,o),
(511,178,c),
(615.799,405.735,o),
(727.854,625.914,o),
(844,841,cs),
(956.757,1049.81,o),
(1044.18,1197.573,o),
(1091,1260,c),
(1057,1252.667,o),
(1024,1244.833,o),
(992,1236.5,cs),
(960,1228.167,o),
(924,1220,o),
(884,1212,c),
(876,1209.333,o),
(868,1208,o),
(860,1208,cs),
(821.333,1208,o),
(799,1239.333,o),
(799,1278,cs),
(799,1303.86,o),
(870.788,1344.97,o),
(985.5,1380.5,cs),
(1095.653,1414.618,o),
(1243.537,1443,o),
(1397,1443,cs),
(1443.667,1443,o),
(1480.167,1438.167,o),
(1506.5,1428.5,cs),
(1532.833,1418.833,o),
(1546,1402.333,o),
(1546,1379,cs),
(1546,1330.395,o),
(1486.373,1282,o),
(1422,1282,cs),
(1412.667,1282,o),
(1404,1282.5,o),
(1396,1283.5,cs),
(1388,1284.5,o),
(1379.333,1285,o),
(1370,1285,cs),
(1320.667,1285,o),
(1278.667,1282.667,o),
(1240,1280,c),
(1241.333,1273.333,o),
(1242,1268.333,o),
(1242,1265,cs),
(1242,1246.333,o),
(1233.667,1229.667,o),
(1227,1215,cs),
(1167.554,1090.355,o),
(1069.247,887.061,o),
(956.5,655,cs),
(835.661,406.283,o),
(767.153,270.305,o),
(720,176,c),
(856.235,163.836,o),
(975,134.497,o),
(975,74,cs),
(975,31.914,o),
(914.668,-6,o),
(862,-6,cs),
(846.667,-6,o),
(832.167,-4,o),
(818.5,0,cs),
(804.833,4,o),
(791.333,6.667,o),
(778,8,cs)
);
},
{
closed = 1;
nodes = (
(1209,1729,o),
(1293,1805,o),
(1336,1840,cs),
(1377,1873,o),
(1393,1881,o),
(1425,1881,cs),
(1497,1881,o),
(1499,1819,o),
(1607,1600,cs),
(1609,1595,o),
(1610,1590,o),
(1610,1585,cs),
(1610,1553,o),
(1564,1532,o),
(1526,1532,cs),
(1497,1532,o),
(1470,1541,o),
(1459,1564,cs),
(1454,1575,o),
(1448,1589,o),
(1440,1608,cs),
(1432,1626,o),
(1424,1644,o),
(1416,1661,cs),
(1407,1682,o),
(1397,1703,o),
(1386,1725,c),
(1362,1703,o),
(1339,1682,o),
(1317,1661,cs),
(1298,1644,o),
(1279,1626,o),
(1260,1608,cs),
(1241,1589,o),
(1225,1575,o),
(1213,1564,cs),
(1196,1549,o),
(1177,1541,o),
(1158,1541,cs),
(1113,1541,o),
(1072,1567,o),
(1072,1595,cs),
(1072,1604,o),
(1076,1613,o),
(1085,1621,cs)
);
}
);
};
layerId = "DC66AB0F-19FD-4F06-8C39-5D32AA939720";
shapes = (
{
ref = I;
},
{
pos = (670,700);
ref = circumflexcomb;
}
);
width = 1075;
}
);
unicode = 206;
},
{
glyphname = Idblgrave;
lastChange = "2024-04-18 13:07:54 +0000";
layers = (
{
background = {
anchors = (
{
name = top;
pos = (1197,2031);
}
);
shapes = (
{
closed = 1;
nodes = (
(690,17.333,o),
(624,20,o),
(564,20,cs),
(494.505,20,o),
(403.882,15,o),
(325,15,cs),
(281,15,o),
(256,43.667,o),
(256,81,cs),
(256,88.333,o),
(257,96,o),
(259,104,cs),
(267.973,133.91,o),
(383.376,167.99,o),
(511,178,c),
(615.799,405.735,o),
(727.854,625.914,o),
(844,841,cs),
(956.757,1049.81,o),
(1044.18,1197.573,o),
(1091,1260,c),
(1057,1252.667,o),
(1024,1244.833,o),
(992,1236.5,cs),
(960,1228.167,o),
(924,1220,o),
(884,1212,c),
(876,1209.333,o),
(868,1208,o),
(860,1208,cs),
(821.333,1208,o),
(799,1239.333,o),
(799,1278,cs),
(799,1303.86,o),
(870.788,1344.97,o),
(985.5,1380.5,cs),
(1095.653,1414.618,o),
(1243.537,1443,o),
(1397,1443,cs),
(1443.667,1443,o),
(1480.167,1438.167,o),
(1506.5,1428.5,cs),
(1532.833,1418.833,o),
(1546,1402.333,o),
(1546,1379,cs),
(1546,1330.395,o),
(1486.373,1282,o),
(1422,1282,cs),
(1412.667,1282,o),
(1404,1282.5,o),
(1396,1283.5,cs),
(1388,1284.5,o),
(1379.333,1285,o),
(1370,1285,cs),
(1320.667,1285,o),
(1278.667,1282.667,o),
(1240,1280,c),
(1241.333,1273.333,o),
(1242,1268.333,o),
(1242,1265,cs),
(1242,1246.333,o),
(1233.667,1229.667,o),
(1227,1215,cs),
(1167.554,1090.355,o),
(1069.247,887.061,o),
(956.5,655,cs),
(835.661,406.283,o),
(767.153,270.305,o),
(720,176,c),
(856.235,163.836,o),
(975,134.497,o),
(975,74,cs),
(975,31.914,o),
(914.668,-6,o),
(862,-6,cs),
(846.667,-6,o),
(832.167,-4,o),
(818.5,0,cs),
(804.833,4,o),
(791.333,6.667,o),
(778,8,cs)
);
},
{
closed = 1;
nodes = (
(1159,1643,o),
(1163,1625,o),
(1163,1610,cs),
(1163,1569,o),
(1144,1550,o),
(1119,1550,cs),
(1092,1550,o),
(1058,1573,o),
(1035,1618,cs),
(1012,1660,o),
(988,1702,o),
(964,1743,cs),
(940,1784,o),
(916,1826,o),
(893,1868,cs),
(880,1891,o),
(875,1910,o),
(875,1931,cs),
(875,1990,o),
(919,2031,o),
(968,2031,cs),
(1011,2031,o),
(1057,2000,o),
(1084,1916,cs),
(1107,1832,o),
(1130,1750,o),
(1154,1666,cs)
);
},
{
closed = 1;
nodes = (
(1515,1643,o),
(1519,1625,o),
(1519,1610,cs),
(1519,1569,o),
(1500,1550,o),
(1475,1550,cs),
(1448,1550,o),
(1414,1573,o),
(1391,1618,cs),
(1368,1660,o),
(1344,1702,o),
(1320,1743,cs),
(1296,1784,o),
(1272,1826,o),
(1249,1868,cs),
(1236,1891,o),
(1231,1910,o),
(1231,1931,cs),
(1231,1990,o),
(1275,2031,o),
(1324,2031,cs),
(1367,2031,o),
(1413,2000,o),
(1440,1916,cs),
(1463,1832,o),
(1486,1750,o),
(1510,1666,cs)
);
}
);
};
layerId = "DC66AB0F-19FD-4F06-8C39-5D32AA939720";
shapes = (
{
alignment = -1;
ref = I;
},
{
alignment = -1;
pos = (178,724);
ref = dblgravecomb;
}
);
width = 1075;
}
);
unicode = 520;
},
{
glyphname = Idieresis;
lastChange = "2024-04-18 13:16:18 +0000";
layers = (
{
background = {
anchors = (
{
name = top;
pos = (1375,1787);
}
);
shapes = (
{
closed = 1;
nodes = (
(690,17.333,o),
(624,20,o),
(564,20,cs),
(494.505,20,o),
(403.882,15,o),
(325,15,cs),
(281,15,o),
(256,43.667,o),
(256,81,cs),
(256,88.333,o),
(257,96,o),
(259,104,cs),
(267.973,133.91,o),
(383.376,167.99,o),
(511,178,c),
(615.799,405.735,o),
(727.854,625.914,o),
(844,841,cs),
(956.757,1049.81,o),
(1044.18,1197.573,o),
(1091,1260,c),
(1057,1252.667,o),
(1024,1244.833,o),
(992,1236.5,cs),
(960,1228.167,o),
(924,1220,o),
(884,1212,c),
(876,1209.333,o),
(868,1208,o),
(860,1208,cs),
(821.333,1208,o),
(799,1239.333,o),
(799,1278,cs),
(799,1303.86,o),
(870.788,1344.97,o),
(985.5,1380.5,cs),
(1095.653,1414.618,o),
(1243.537,1443,o),
(1397,1443,cs),
(1443.667,1443,o),
(1480.167,1438.167,o),
(1506.5,1428.5,cs),
(1532.833,1418.833,o),
(1546,1402.333,o),
(1546,1379,cs),
(1546,1330.395,o),
(1486.373,1282,o),
(1422,1282,cs),
(1412.667,1282,o),
(1404,1282.5,o),
(1396,1283.5,cs),
(1388,1284.5,o),
(1379.333,1285,o),
(1370,1285,cs),
(1320.667,1285,o),
(1278.667,1282.667,o),
(1240,1280,c),
(1241.333,1273.333,o),
(1242,1268.333,o),
(1242,1265,cs),
(1242,1246.333,o),
(1233.667,1229.667,o),
(1227,1215,cs),
(1167.554,1090.355,o),
(1069.247,887.061,o),
(956.5,655,cs),
(835.661,406.283,o),
(767.153,270.305,o),
(720,176,c),
(856.235,163.836,o),
(975,134.497,o),
(975,74,cs),
(975,31.914,o),
(914.668,-6,o),
(862,-6,cs),
(846.667,-6,o),
(832.167,-4,o),
(818.5,0,cs),
(804.833,4,o),
(791.333,6.667,o),
(778,8,cs)
);
},
{
closed = 1;
nodes = (
(1322,1622,o),
(1256,1562,o),
(1189,1562,cs),
(1140,1562,o),
(1109,1592,o),
(1109,1637,cs),
(1109,1719,o),
(1183,1787,o),
(1261,1787,cs),
(1310,1787,o),
(1337,1757,o),
(1337,1712,cs),
(1337,1705,o),
(1336,1697,o),
(1335,1689,cs)
);
},
{
closed = 1;
nodes = (
(1625,1622,o),
(1559,1562,o),
(1492,1562,cs),
(1443,1562,o),
(1412,1592,o),
(1412,1637,cs),
(1412,1719,o),
(1486,1787,o),
(1564,1787,cs),
(1613,1787,o),
(1640,1757,o),
(1640,1712,cs),
(1640,1705,o),
(1639,1697,o),
(1638,1689,cs)
);
}
);
};
layerId = "DC66AB0F-19FD-4F06-8C39-5D32AA939720";
shapes = (
{
ref = I;
},
{
pos = (317,700);
ref = dieresiscomb;
}
);
width = 1075;
}
);
unicode = 207;
},
{
glyphname = Igrave;
lastChange = "2024-04-18 13:16:18 +0000";
layers = (
{
background = {
anchors = (
{
name = top;
pos = (1254,2048);
}
);
shapes = (
{
closed = 1;
nodes = (
(690,17.333,o),
(624,20,o),
(564,20,cs),
(494.505,20,o),
(403.882,15,o),
(325,15,cs),
(281,15,o),
(256,43.667,o),
(256,81,cs),
(256,88.333,o),
(257,96,o),
(259,104,cs),
(267.973,133.91,o),
(383.376,167.99,o),
(511,178,c),
(615.799,405.735,o),
(727.854,625.914,o),
(844,841,cs),
(956.757,1049.81,o),
(1044.18,1197.573,o),
(1091,1260,c),
(1057,1252.667,o),
(1024,1244.833,o),
(992,1236.5,cs),
(960,1228.167,o),
(924,1220,o),
(884,1212,c),
(876,1209.333,o),
(868,1208,o),
(860,1208,cs),
(821.333,1208,o),
(799,1239.333,o),
(799,1278,cs),
(799,1303.86,o),
(870.788,1344.97,o),
(985.5,1380.5,cs),
(1095.653,1414.618,o),
(1243.537,1443,o),
(1397,1443,cs),
(1443.667,1443,o),
(1480.167,1438.167,o),
(1506.5,1428.5,cs),
(1532.833,1418.833,o),
(1546,1402.333,o),
(1546,1379,cs),
(1546,1330.395,o),
(1486.373,1282,o),
(1422,1282,cs),
(1412.667,1282,o),
(1404,1282.5,o),
(1396,1283.5,cs),
(1388,1284.5,o),
(1379.333,1285,o),
(1370,1285,cs),
(1320.667,1285,o),
(1278.667,1282.667,o),
(1240,1280,c),
(1241.333,1273.333,o),
(1242,1268.333,o),
(1242,1265,cs),
(1242,1246.333,o),
(1233.667,1229.667,o),
(1227,1215,cs),
(1167.554,1090.355,o),
(1069.247,887.061,o),
(956.5,655,cs),
(835.661,406.283,o),
(767.153,270.305,o),
(720,176,c),
(856.235,163.836,o),
(975,134.497,o),
(975,74,cs),
(975,31.914,o),
(914.668,-6,o),
(862,-6,cs),
(846.667,-6,o),
(832.167,-4,o),
(818.5,0,cs),
(804.833,4,o),
(791.333,6.667,o),
(778,8,cs)
);
},
{
closed = 1;
nodes = (
(1381,1666,o),
(1382,1651,o),
(1382,1638,cs),
(1382,1541,o),
(1292,1546,o),
(1255,1635,cs),
(1236,1677,o),
(1216,1719,o),
(1196,1760,cs),
(1176,1801,o),
(1156,1843,o),
(1137,1885,cs),
(1129,1903,o),
(1125,1920,o),
(1125,1937,cs),
(1125,1999,o),
(1176,2048,o),
(1228,2048,cs),
(1271,2048,o),
(1314,2017,o),
(1333,1933,cs),
(1340,1891,o),
(1348,1849,o),
(1356,1808,cs),
(1363,1767,o),
(1371,1725,o),
(1378,1683,cs)
);
}
);
};
layerId = "DC66AB0F-19FD-4F06-8C39-5D32AA939720";
shapes = (
{
ref = I;
},
{
pos = (665,715);
ref = gravecomb;
}
);
width = 1075;
}
);
unicode = 204;
},
{
glyphname = Iinvertedbreve;
lastChange = "2024-04-18 13:07:54 +0000";
layers = (
{
background = {
anchors = (
{
name = top;
pos = (1329,1788);
}
);
shapes = (
{
closed = 1;
nodes = (
(690,17.333,o),
(624,20,o),
(564,20,cs),
(494.505,20,o),
(403.882,15,o),
(325,15,cs),
(281,15,o),
(256,43.667,o),
(256,81,cs),
(256,88.333,o),
(257,96,o),
(259,104,cs),
(267.973,133.91,o),
(383.376,167.99,o),
(511,178,c),
(615.799,405.735,o),
(727.854,625.914,o),
(844,841,cs),
(956.757,1049.81,o),
(1044.18,1197.573,o),
(1091,1260,c),
(1057,1252.667,o),
(1024,1244.833,o),
(992,1236.5,cs),
(960,1228.167,o),
(924,1220,o),
(884,1212,c),
(876,1209.333,o),
(868,1208,o),
(860,1208,cs),
(821.333,1208,o),
(799,1239.333,o),
(799,1278,cs),
(799,1303.86,o),
(870.788,1344.97,o),
(985.5,1380.5,cs),
(1095.653,1414.618,o),
(1243.537,1443,o),
(1397,1443,cs),
(1443.667,1443,o),
(1480.167,1438.167,o),
(1506.5,1428.5,cs),
(1532.833,1418.833,o),
(1546,1402.333,o),
(1546,1379,cs),
(1546,1330.395,o),
(1486.373,1282,o),
(1422,1282,cs),
(1412.667,1282,o),
(1404,1282.5,o),
(1396,1283.5,cs),
(1388,1284.5,o),
(1379.333,1285,o),
(1370,1285,cs),
(1320.667,1285,o),
(1278.667,1282.667,o),
(1240,1280,c),
(1241.333,1273.333,o),
(1242,1268.333,o),
(1242,1265,cs),
(1242,1246.333,o),
(1233.667,1229.667,o),
(1227,1215,cs),
(1167.554,1090.355,o),
(1069.247,887.061,o),
(956.5,655,cs),
(835.661,406.283,o),
(767.153,270.305,o),
(720,176,c),
(856.235,163.836,o),
(975,134.497,o),
(975,74,cs),
(975,31.914,o),
(914.668,-6,o),
(862,-6,cs),
(846.667,-6,o),
(832.167,-4,o),
(818.5,0,cs),
(804.833,4,o),
(791.333,6.667,o),
(778,8,cs)
);
},
{
closed = 1;
nodes = (
(1543,1575,o),
(1509,1562,o),
(1480,1562,cs),
(1455,1562,o),
(1435,1571,o),
(1435,1590,cs),
(1435,1594,o),
(1436,1599,o),
(1437,1604,cs),
(1438,1609,o),
(1439,1613,o),
(1439,1617,cs),
(1439,1652,o),
(1411,1677,o),
(1350,1677,cs),
(1277,1677,o),
(1227,1637,o),
(1216,1594,cs),
(1201,1546,o),
(1100,1545,o),
(1100,1588,cs),
(1100,1589,o),
(1101,1593,o),
(1102,1598,cs),
(1132,1703,o),
(1268,1788,o),
(1382,1788,cs),
(1495,1788,o),
(1557,1727,o),
(1557,1647,cs),
(1557,1630,o),
(1555,1614,o),
(1550,1598,cs)
);
}
);
};
layerId = "DC66AB0F-19FD-4F06-8C39-5D32AA939720";
shapes = (
{
alignment = -1;
ref = I;
},
{
alignment = -1;
pos = (529,724);
ref = breveinvertedcomb;
}
);
width = 1075;
}
);
unicode = 522;
},
{
glyphname = J;
lastChange = "2024-04-18 13:09:08 +0000";
layers = (
{
anchors = (
{
name = bottom;
pos = (629,0);
},
{
name = top;
pos = (629,1440);
}
);
background = {
shapes = (
{
closed = 1;
nodes = (
(1264,636,l),
(1181.333,453.333,o),
(1084.5,283,o),
(974.5,159,cs),
(864.5,35,o),
(744,-43,o),
(616,-43,cs),
(541.333,-43,o),
(465.833,-19.833,o),
(386.5,31.5,cs),
(307.167,82.833,o),
(226.667,162.333,o),
(144,277,c),
(124,299.667,o),
(117,321.333,o),
(117,348,cs),
(117,387.998,o),
(168.994,477,o),
(257,477,cs),
(283.667,477,o),
(306.333,468.667,o),
(325,446,c),
(431.667,232.667,o),
(536.333,138,o),
(639,138,cs),
(713.667,138,o),
(787.667,187.833,o),
(861,280.5,cs),
(934.333,373.167,o),
(1008.333,507.667,o),
(1083,677,c),
(1370,1272,l),
(1298.667,1272.667,o),
(1239.833,1273,o),
(1193.5,1273,cs),
(1147.167,1273,o),
(1115.333,1273,o),
(1098,1273,cs),
(1050.904,1273,o),
(1018,1320.216,o),
(1018,1357,cs),
(1018,1394.333,o),
(1046,1420,o),
(1110,1420,cs),
(1116,1420,o),
(1122.167,1419.833,o),
(1128.5,1419.5,cs),
(1134.833,1419.167,o),
(1141,1419,o),
(1147,1419,cs),
(1340.259,1419,o),
(1547.322,1444,o),
(1736,1444,cs),
(1868.693,1444,o),
(1924,1431,o),
(1924,1392,cs),
(1924,1340.22,o),
(1878.669,1295,o),
(1728,1295,cs),
(1689.333,1295,o),
(1643.667,1291.667,o),
(1589,1285,c)
);
}
);
};
layerId = "DC66AB0F-19FD-4F06-8C39-5D32AA939720";
shapes = (
{
closed = 1;
nodes = (
(1264,636,l),
(1181,453,o),
(1085,283,o),
(975,159,cs),
(865,35,o),
(744,-43,o),
(616,-43,cs),
(541,-43,o),
(466,-20,o),
(387,32,cs),
(307,83,o),
(227,162,o),
(144,277,c),
(124,300,o),
(117,321,o),
(117,348,cs),
(117,387.998,o),
(168.994,477,o),
(257,477,cs),
(284,477,o),
(306,469,o),
(325,446,c),
(432,233,o),
(536,138,o),
(639,138,cs),
(714,138,o),
(788,188,o),
(861,281,cs),
(934,373,o),
(1008,508,o),
(1083,677,c),
(1370,1272,l),
(1194,1273,l),
(1098,1273,ls),
(1051,1273,o),
(1018,1320,o),
(1018,1357,cs),
(1018,1394,o),
(1046,1420,o),
(1110,1420,cs),
(1129,1420,l),
(1147,1419,ls),
(1340,1419,o),
(1547,1444,o),
(1736,1444,cs),
(1869,1444,o),
(1924,1431,o),
(1924,1392,cs),
(1924,1340,o),
(1879,1295,o),
(1728,1295,cs),
(1689,1295,o),
(1644,1292,o),
(1589,1285,c)
);
}
);
width = 1257;
}
);
unicode = 74;
},
{
glyphname = K;
lastChange = "2024-04-18 13:09:08 +0000";
layers = (
{
anchors = (
{
name = bottom;
pos = (798,0);
},
{
name = top;
pos = (798,1440);
}
);
background = {
shapes = (
{
closed = 1;
nodes = (
(252.636,-38.844,o),
(197,35.738,o),
(197,108,cs),
(197,134.667,o),
(206.333,161,o),
(225,187,c),
(248.79,214.755,o),
(273.785,251,o),
(311,251,cs),
(319,251,o),
(327.333,249.333,o),
(334,244,c),
(358.72,229.168,o),
(380.959,115,o),
(430,115,cs),
(475.333,115,o),
(527,162.667,o),
(579,240,cs),
(631,317.333,o),
(685.167,423.667,o),
(736.5,541,cs),
(834.357,764.672,o),
(935.727,1062.605,o),
(987.5,1225.5,cs),
(1001.167,1268.5,o),
(1012.333,1304,o),
(1021,1332,cs),
(1029.667,1360,o),
(1035,1377.667,o),
(1037,1385,cs),
(1049,1426.333,o),
(1082.333,1444,o),
(1117,1444,cs),
(1167.667,1444,o),
(1195,1417.667,o),
(1195,1335,cs),
(1195,1321.667,o),
(1194.333,1307,o),
(1193,1291,cs),
(1189,1252.333,o),
(1175,1181.333,o),
(1151,1092,cs),
(1127,1002.667,o),
(1093.333,893.667,o),
(1052,779,c),
(1328.175,1014.617,o),
(1522.445,1170.38,o),
(1642,1256.5,cs),
(1746.508,1331.781,o),
(1812.81,1368,o),
(1844,1368,cs),
(1885.019,1368,o),
(1903,1317.437,o),
(1903,1300,cs),
(1903,1277.333,o),
(1891.667,1255.667,o),
(1869,1241,cs),
(1729.83,1143.581,o),
(1566.996,1013.677,o),
(1415,886,cs),
(1264.853,759.876,o),
(1135.758,649.573,o),
(1061,593,c),
(1129.483,501.258,o),
(1199.077,412.513,o),
(1258.5,333.5,cs),
(1319.167,252.833,o),
(1376.333,176.667,o),
(1427,98,cs),
(1444.333,71.333,o),
(1451,44.333,o),
(1451,23,cs),
(1451,-45.871,o),
(1381.349,-83,o),
(1347,-83,cs),
(1303,-83,o),
(1262,-48,o),
(1234,0,c),
(1180.676,70.525,o),
(1146.101,120.38,o),
(1111.5,177,cs),
(1073.637,238.957,o),
(1020.714,319.794,o),
(920,469,c),
(849.333,322.333,o),
(768.333,184.333,o),
(679,83,cs),
(589.667,-18.333,o),
(491.667,-82,o),
(389,-82,cs),
(353,-82,o),
(318.667,-72.667,o),
(288,-54,c)
);
}
);
};
layerId = "DC66AB0F-19FD-4F06-8C39-5D32AA939720";
shapes = (
{
closed = 1;
nodes = (
(253,-39,o),
(197,36,o),
(197,108,cs),
(197,135,o),
(206,161,o),
(225,187,cs),
(249,215,o),
(274,251,o),
(311,251,cs),
(319,251,o),
(327,249,o),
(334,244,cs),
(359,229,o),
(381,115,o),
(430,115,cs),
(475,115,o),
(527,163,o),
(579,240,cs),
(631,317,o),
(685,424,o),
(737,541,cs),
(834,765,o),
(936,1063,o),
(988,1226,cs),
(1021,1332,l),
(1037,1385,ls),
(1049,1426,o),
(1082,1444,o),
(1117,1444,cs),
(1168,1444,o),
(1195,1418,o),
(1195,1335,cs),
(1193,1291,ls),
(1189,1252,o),
(1175,1181,o),
(1151,1092,cs),
(1127,1003,o),
(1093,894,o),
(1052,779,c),
(1328,1015,o),
(1522,1170,o),
(1642,1257,cs),
(1747,1332,o),
(1813,1368,o),
(1844,1368,cs),
(1885,1368,o),
(1903,1317,o),
(1903,1300,cs),
(1903,1277,o),
(1892,1256,o),
(1869,1241,cs),
(1730,1144,o),
(1567,1014,o),
(1415,886,cs),
(1265,760,o),
(1136,650,o),
(1061,593,c),
(1129,501,o),
(1199,413,o),
(1259,334,cs),
(1319,253,o),
(1376,177,o),
(1427,98,cs),
(1444,71,o),
(1451,44,o),
(1451,23,cs),
(1451,-46,o),
(1381,-83,o),
(1347,-83,cs),
(1303,-83,o),
(1262,-48,o),
(1234,0,c),
(1181,71,o),
(1146,120,o),
(1112,177,cs),
(1074,239,o),
(1021,320,o),
(920,469,c),
(849,322,o),
(768,184,o),
(679,83,cs),
(590,-18,o),
(492,-82,o),
(389,-82,cs),
(353,-82,o),
(319,-73,o),
(288,-54,c)
);
}
);
width = 1596;
}
);
unicode = 75;
},
{
glyphname = L;
lastChange = "2024-04-18 14:09:39 +0000";
layers = (
{
anchors = (
{
name = bottom;
pos = (649,0);
},
{
name = center;
pos = (649,720);
},
{
name = top;
pos = (649,1440);
},
{
name = topright;
pos = (1467,1480);
}
);
background = {
shapes = (
{
closed = 1;
nodes = (
(326,167.641,o),
(419.761,131.327,o),
(571,129,c),
(502.065,165.766,o),
(404.152,228,o),
(362,228,cs),
(338,228,o),
(326,221.667,o),
(326,209,cs)
);
},
{
closed = 1;
nodes = (
(1255.462,1402.923,o),
(1331.44,1443,o),
(1392,1443,cs),
(1434.667,1443,o),
(1468,1420.667,o),
(1468,1378,cs),
(1468,1361.333,o),
(1463.667,1343.333,o),
(1455,1324,cs),
(1333.969,1064.649,o),
(1232.188,856.057,o),
(1110,621.5,cs),
(1000.362,411.035,o),
(894.944,230.63,o),
(822,136,c),
(938,144,o),
(1030.667,157.667,o),
(1120,175,cs),
(1207.184,191.916,o),
(1300.238,214.536,o),
(1400,235,c),
(1406.667,237.667,o),
(1415.333,239,o),
(1422,239,cs),
(1463.333,239,o),
(1489,200.333,o),
(1489,159,cs),
(1489,121.281,o),
(1379.061,75.091,o),
(1207.5,35.5,cs),
(1044.572,-2.099,o),
(825.474,-30,o),
(607,-30,cs),
(279.626,-30,o),
(136,65.869,o),
(136,194,cs),
(136,318.421,o),
(234.153,364,o),
(363,364,cs),
(463.891,364,o),
(594.678,283,o),
(667,208,c),
(697.667,288,o),
(742.333,388.833,o),
(793,497.5,cs),
(843.667,606.167,o),
(901,722.333,o),
(957,833,cs),
(1013,943.667,o),
(1067.667,1048.667,o),
(1113,1134,cs),
(1158.333,1219.333,o),
(1195,1287.333,o),
(1215,1322,c)
);
}
);
};
layerId = "DC66AB0F-19FD-4F06-8C39-5D32AA939720";
shapes = (
{
closed = 1;
nodes = (
(326,168,o),
(420,131,o),
(571,129,c),
(502,166,o),
(404,228,o),
(362,228,cs),
(338,228,o),
(326,222,o),
(326,209,cs)
);
},
{
closed = 1;
nodes = (
(1255,1403,o),
(1331,1443,o),
(1392,1443,cs),
(1435,1443,o),
(1468,1421,o),
(1468,1378,cs),
(1468,1361,o),
(1464,1343,o),
(1455,1324,cs),
(1334,1065,o),
(1232,856,o),
(1110,622,cs),
(1000,411,o),
(895,231,o),
(822,136,c),
(938,144,o),
(1031,158,o),
(1120,175,cs),
(1207,192,o),
(1300,215,o),
(1400,235,c),
(1407,238,o),
(1415,239,o),
(1422,239,cs),
(1463,239,o),
(1489,200,o),
(1489,159,cs),
(1489,121,o),
(1379,75,o),
(1208,36,cs),
(1045,-2,o),
(825,-30,o),
(607,-30,cs),
(280,-30,o),
(136,66,o),
(136,194,cs),
(136,318,o),
(234,364,o),
(363,364,cs),
(464,364,o),
(595,283,o),
(667,208,c),
(698,288,o),
(742,389,o),
(793,498,cs),
(844,606,o),
(901,722,o),
(957,833,cs),
(1013,944,o),
(1068,1049,o),
(1113,1134,cs),
(1158,1219,o),
(1195,1287,o),
(1215,1322,c)
);
}
);
width = 1297;
}
);
unicode = 76;
},
{
glyphname = Lslash;
lastChange = "2024-04-18 13:07:54 +0000";
layers = (
{
background = {
shapes = (
{
closed = 1;
nodes = (
(196,167.641,o),
(289.761,131.327,o),
(441,129,c),
(372.065,165.766,o),
(274.152,228,o),
(232,228,cs),
(208,228,o),
(196,221.667,o),
(196,209,cs)
);
},
{
closed = 1;
nodes = (
(1125.462,1402.923,o),
(1201.44,1443,o),
(1262,1443,cs),
(1304.667,1443,o),
(1338,1420.667,o),
(1338,1378,cs),
(1338,1361.333,o),
(1333.667,1343.333,o),
(1325,1324,cs),
(1287.667,1244,o),
(1249.667,1163.333,o),
(1211,1082,cs),
(1182.333,1022,o),
(1153.667,963.333,o),
(1125,906,c),
(1160.333,915.333,o),
(1192.667,924,o),
(1222,932,cs),
(1256.667,941.333,o),
(1285.333,949,o),
(1308,955,cs),
(1310,955.667,o),
(1312.667,956,o),
(1316,956,cs),
(1340,956,o),
(1359,929.333,o),
(1359,900,cs),
(1359,872,o),
(1341.667,841,o),
(1295,829,cs),
(1271,822.333,o),
(1241.333,814.333,o),
(1206,805,cs),
(1170.667,795,o),
(1132.667,784.667,o),
(1092,774,cs),
(1079.333,770.667,o),
(1066.333,767.333,o),
(1053,764,c),
(1028.333,716,o),
(1004,668.667,o),
(980,622,cs),
(870.87,411.534,o),
(764.644,230.241,o),
(692,136,c),
(808,144,o),
(900.667,157.667,o),
(990,175,cs),
(1077.184,191.916,o),
(1170.238,214.536,o),
(1270,235,c),
(1276.667,237.667,o),
(1285.333,239,o),
(1292,239,cs),
(1333.333,239,o),
(1359,200.333,o),
(1359,159,cs),
(1359,121.281,o),
(1249.061,75.091,o),
(1077.5,35.5,cs),
(914.572,-2.099,o),
(695.474,-30,o),
(477,-30,cs),
(149.626,-30,o),
(6,65.869,o),
(6,194,cs),
(6,318.421,o),
(104.153,364,o),
(233,364,cs),
(333.891,364,o),
(464.678,283,o),
(537,208,c),
(567.667,288,o),
(612.333,388.667,o),
(663,498,cs),
(688.333,551.333,o),
(715,606.667,o),
(743,664,cs),
(748.333,674.667,o),
(751.333,681,o),
(752,683,c),
(742.667,680.333,o),
(733.667,678,o),
(725,676,cs),
(689.667,666.667,o),
(660,658.667,o),
(636,652,cs),
(634,651.333,o),
(630.667,651,o),
(626,651,cs),
(604.667,651,o),
(590,673.333,o),
(590,700,cs),
(590,730.667,o),
(609,767.333,o),
(665,782,cs),
(688.333,788,o),
(717.333,795.667,o),
(752,805,cs),
(774.667,811,o),
(798.333,817.333,o),
(823,824,c),
(824.333,826.667,o),
(825.667,829.667,o),
(827,833,cs),
(883,943.667,o),
(937.667,1048.667,o),
(983,1134,cs),
(1028.333,1219.333,o),
(1065,1287.333,o),
(1085,1322,c)
);
}
);
};
layerId = "DC66AB0F-19FD-4F06-8C39-5D32AA939720";
shapes = (
{
closed = 1;
nodes = (
(196,168,o),
(290,131,o),
(441,129,c),
(372,166,o),
(274,228,o),
(232,228,cs),
(208,228,o),
(196,222,o),
(196,209,cs)
);
},
{
closed = 1;
nodes = (
(1125,1403,o),
(1201,1443,o),
(1262,1443,cs),
(1305,1443,o),
(1338,1421,o),
(1338,1378,cs),
(1338,1361,o),
(1334,1343,o),
(1325,1324,cs),
(1211,1082,l),
(1125,906,l),
(1222,932,l),
(1308,955,l),
(1310,956,o),
(1313,956,o),
(1316,956,cs),
(1340,956,o),
(1359,929,o),
(1359,900,cs),
(1359,872,o),
(1342,841,o),
(1295,829,cs),
(1206,805,l),
(1092,774,l),
(1053,764,l),
(980,622,ls),
(871,412,o),
(765,230,o),
(692,136,c),
(808,144,o),
(901,158,o),
(990,175,cs),
(1077,192,o),
(1170,215,o),
(1270,235,c),
(1277,238,o),
(1285,239,o),
(1292,239,cs),
(1333,239,o),
(1359,200,o),
(1359,159,cs),
(1359,121,o),
(1249,75,o),
(1078,36,cs),
(915,-2,o),
(695,-30,o),
(477,-30,cs),
(150,-30,o),
(6,66,o),
(6,194,cs),
(6,318,o),
(104,364,o),
(233,364,cs),
(334,364,o),
(465,283,o),
(537,208,c),
(568,288,o),
(612,389,o),
(663,498,cs),
(743,664,l),
(752,683,l),
(725,676,l),
(636,652,l),
(634,651,o),
(631,651,o),
(626,651,cs),
(605,651,o),
(590,673,o),
(590,700,cs),
(590,731,o),
(609,767,o),
(665,782,cs),
(752,805,l),
(823,824,l),
(827,833,ls),
(883,944,o),
(938,1049,o),
(983,1134,cs),
(1028,1219,o),
(1065,1287,o),
(1085,1322,c)
);
}
);
width = 1168;
}
);
unicode = 321;
},
{
glyphname = M;
lastChange = "2024-04-18 13:09:08 +0000";
layers = (
{
anchors = (
{
name = bottom;
pos = (911,0);
},
{
name = top;
pos = (911,1440);
}
);
background = {
shapes = (
{
closed = 1;
nodes = (
(1506.788,279.201,o),
(1557.919,712.28,o),
(1596,989,c),
(1525.333,853,o),
(1451.167,711.833,o),
(1386.5,588.5,cs),
(1321.833,465.167,o),
(1265.333,361.333,o),
(1232,300,c),
(1171.934,219.041,o),
(1109.411,146,o),
(1053,146,cs),
(1015.667,146,o),
(992,162,o),
(992,194,cs),
(992,200.667,o),
(992.333,206.333,o),
(995,213,c),
(987,402.333,o),
(983,597.333,o),
(983,784,cs),
(983,806,o),
(983,828,o),
(983,850,cs),
(983,872,o),
(983.333,893.667,o),
(984,915,c),
(901.622,729.651,o),
(800.696,527.386,o),
(694,354.5,cs),
(587.249,181.525,o),
(474.428,42.762,o),
(379,3,cs),
(323,-19.667,o),
(283,-29,o),
(251,-29,cs),
(203,-29,o),
(180,-7,o),
(180,21,cs),
(180,54.333,o),
(209.333,95,o),
(260,115,cs),
(321.333,139,o),
(395.667,226.667,o),
(473,344,cs),
(550.333,461.333,o),
(630.5,611,o),
(704.5,759,cs),
(778.5,907,o),
(845.333,1054.333,o),
(896,1169,cs),
(951.21,1293.948,o),
(981.292,1366.014,o),
(989,1384,cs),
(1007.667,1425.333,o),
(1044.333,1443,o),
(1079,1443,cs),
(1127,1443,o),
(1143,1420.667,o),
(1143,1354,c),
(1153.667,1270,o),
(1160.667,1199.5,o),
(1166,1121.5,cs),
(1171.333,1043.5,o),
(1173,957.333,o),
(1173,840,cs),
(1173,798,o),
(1172.167,751.667,o),
(1170.5,701,cs),
(1168.833,650.333,o),
(1168,593.667,o),
(1168,531,c),
(1328,821.667,o),
(1450.167,1044.5,o),
(1541.5,1194.5,cs),
(1618.354,1320.72,o),
(1689.59,1422,o),
(1732,1422,cs),
(1739,1422,ls),
(1741,1422,o),
(1743,1422.167,o),
(1745,1422.5,cs),
(1747,1422.833,o),
(1749,1423,o),
(1751,1423,cs),
(1783,1423,o),
(1803,1379,o),
(1803,1315,c),
(1795.244,1219.991,o),
(1775.448,1053.709,o),
(1750,848,cs),
(1725.715,651.693,o),
(1700.025,453.263,o),
(1686,307,cs),
(1684.667,298.333,o),
(1684,289.5,o),
(1684,280.5,cs),
(1684,271.5,o),
(1684,262.333,o),
(1684,253,cs),
(1684,235.667,o),
(1684.333,218.167,o),
(1685,200.5,cs),
(1685.667,182.833,o),
(1686,165.333,o),
(1686,148,cs),
(1686,66.805,o),
(1680.28,-23,o),
(1544,-23,cs),
(1508,-23,o),
(1485,0.333,o),
(1485,71,c)
);
}
);
};
layerId = "DC66AB0F-19FD-4F06-8C39-5D32AA939720";
shapes = (
{
closed = 1;
nodes = (
(1507,279,o),
(1558,712,o),
(1596,989,c),
(1387,589,ls),
(1322,465,o),
(1265,361,o),
(1232,300,c),
(1172,219,o),
(1109,146,o),
(1053,146,cs),
(1016,146,o),
(992,162,o),
(992,194,cs),
(992,201,o),
(992,206,o),
(995,213,c),
(987,402,o),
(983,597,o),
(983,784,cs),
(983,850,l),
(984,915,l),
(902,730,o),
(801,527,o),
(694,355,cs),
(587,182,o),
(474,43,o),
(379,3,cs),
(323,-20,o),
(283,-29,o),
(251,-29,cs),
(203,-29,o),
(180,-7,o),
(180,21,cs),
(180,54,o),
(209,95,o),
(260,115,cs),
(321,139,o),
(396,227,o),
(473,344,cs),
(550,461,o),
(631,611,o),
(705,759,cs),
(779,907,o),
(845,1054,o),
(896,1169,cs),
(951,1294,o),
(981,1366,o),
(989,1384,cs),
(1008,1425,o),
(1044,1443,o),
(1079,1443,cs),
(1127,1443,o),
(1143,1421,o),
(1143,1354,c),
(1154,1270,o),
(1161,1200,o),
(1166,1122,cs),
(1171,1044,o),
(1173,957,o),
(1173,840,cs),
(1173,798,o),
(1172,752,o),
(1171,701,cs),
(1169,650,o),
(1168,594,o),
(1168,531,c),
(1328,822,o),
(1450,1045,o),
(1542,1195,cs),
(1618,1321,o),
(1690,1422,o),
(1732,1422,cs),
(1739,1422,l),
(1745,1423,l),
(1751,1423,ls),
(1783,1423,o),
(1803,1379,o),
(1803,1315,c),
(1795,1220,o),
(1775,1054,o),
(1750,848,cs),
(1726,652,o),
(1700,453,o),
(1686,307,cs),
(1685,298,o),
(1684,290,o),
(1684,281,cs),
(1684,253,l),
(1685,201,l),
(1686,148,ls),
(1686,67,o),
(1680,-23,o),
(1544,-23,cs),
(1508,-23,o),
(1485,0,o),
(1485,71,c)
);
}
);
width = 1821;
}
);
unicode = 77;
},
{
glyphname = N;
lastChange = "2024-04-18 13:16:29 +0000";
layers = (
{
anchors = (
{
name = bottom;
pos = (764,0);
},
{
name = top;
pos = (1504,1440);
}
);
background = {
shapes = (
{
closed = 1;
nodes = (
(1096.765,1210.015,o),
(1128.378,1029.223,o),
(1159.5,845.5,cs),
(1187.229,681.809,o),
(1224.458,461.196,o),
(1250,342,c),
(1384.667,607.333,o),
(1511,849.833,o),
(1619,1038.5,cs),
(1727,1227.167,o),
(1816,1364.667,o),
(1880,1422,cs),
(1908,1448.667,o),
(1939.667,1458,o),
(1969,1458,cs),
(2011.667,1458,o),
(2046,1434.333,o),
(2046,1401,cs),
(2046,1381,o),
(2039.667,1370,o),
(2025,1354,cs),
(1969.935,1290.877,o),
(1924.818,1244.162,o),
(1877.5,1184.5,cs),
(1831.5,1126.5,o),
(1786.333,1058,o),
(1737,958,c),
(1643.971,786.413,o),
(1563.644,623.031,o),
(1479.5,446,cs),
(1404.777,288.79,o),
(1343.17,153.064,o),
(1308,91,c),
(1269.333,8.333,o),
(1214.333,-30.667,o),
(1173,-32,cs),
(1166,-32,ls),
(1112.558,-29.328,o),
(1059.651,5.78,o),
(1049,83,c),
(1017.169,208.334,o),
(996.635,329.726,o),
(974.5,463.5,cs),
(949.434,614.985,o),
(924.892,778.943,o),
(882,1009,c),
(822.522,810.741,o),
(724.592,545.403,o),
(602,313.5,cs),
(522,162.167,o),
(433.167,41.667,o),
(340.5,-29,cs),
(294.167,-64.333,o),
(247.667,-82,o),
(201,-82,cs),
(169.623,-82,o),
(108,-51.788,o),
(108,-2,cs),
(108,16.667,o),
(115.667,29.667,o),
(129,51,cs),
(163.521,106.764,o),
(297.982,134.354,o),
(400,234,cs),
(432,264.667,o),
(477.167,348.833,o),
(528.5,457.5,cs),
(579.833,566.167,o),
(636.667,701,o),
(690,833,cs),
(743.333,965,o),
(792.5,1095.833,o),
(830.5,1196.5,cs),
(872.206,1306.985,o),
(893.877,1369.913,o),
(899,1384,cs),
(912.333,1424,o),
(945.333,1441.667,o),
(980,1443,cs),
(979.333,1443,o),
(978.667,1442.667,o),
(978,1442,c),
(980,1442,o),
(982.167,1442.167,o),
(984.5,1442.5,cs),
(986.833,1442.833,o),
(989,1443,o),
(991,1443,cs),
(1020.333,1443,o),
(1053,1417.667,o),
(1065,1347,c)
);
}
);
};
layerId = "DC66AB0F-19FD-4F06-8C39-5D32AA939720";
shapes = (
{
closed = 1;
nodes = (
(1097,1210,o),
(1128,1029,o),
(1160,846,cs),
(1187,682,o),
(1224,461,o),
(1250,342,c),
(1385,607,o),
(1511,850,o),
(1619,1039,cs),
(1727,1227,o),
(1816,1365,o),
(1880,1422,cs),
(1908,1449,o),
(1940,1458,o),
(1969,1458,cs),
(2012,1458,o),
(2046,1434,o),
(2046,1401,cs),
(2046,1381,o),
(2040,1370,o),
(2025,1354,cs),
(1970,1291,o),
(1925,1244,o),
(1878,1185,cs),
(1832,1127,o),
(1786,1058,o),
(1737,958,c),
(1644,786,o),
(1564,623,o),
(1480,446,cs),
(1405,289,o),
(1343,153,o),
(1308,91,c),
(1269,8,o),
(1214,-31,o),
(1173,-32,cs),
(1166,-32,ls),
(1113,-29,o),
(1060,6,o),
(1049,83,c),
(1017,208,o),
(997,330,o),
(975,464,cs),
(949,615,o),
(925,779,o),
(882,1009,c),
(823,811,o),
(725,545,o),
(602,314,cs),
(522,162,o),
(433,42,o),
(341,-29,cs),
(294,-64,o),
(248,-82,o),
(201,-82,cs),
(170,-82,o),
(108,-52,o),
(108,-2,cs),
(108,17,o),
(116,30,o),
(129,51,cs),
(164,107,o),
(298,134,o),
(400,234,cs),
(432,265,o),
(477,349,o),
(529,458,cs),
(580,566,o),
(637,701,o),
(690,833,cs),
(743,965,o),
(793,1096,o),
(831,1197,cs),
(872,1307,o),
(894,1370,o),
(899,1384,cs),
(912,1424,o),
(945,1442,o),
(980,1443,cs),
(979,1443,o),
(979,1443,o),
(978,1442,c),
(985,1443,l),
(991,1443,ls),
(1020,1443,o),
(1053,1418,o),
(1065,1347,c)
);
}
);
width = 1527;
}
);
unicode = 78;
},
{
glyphname = Ntilde;
lastChange = "2024-04-18 13:16:29 +0000";
layers = (
{
background = {
anchors = (
{
name = top;
pos = (1497,1744);
}
);
shapes = (
{
closed = 1;
nodes = (
(1096.765,1210.015,o),
(1128.378,1029.223,o),
(1159.5,845.5,cs),
(1187.229,681.809,o),
(1224.458,461.196,o),
(1250,342,c),
(1384.667,607.333,o),
(1511,849.833,o),
(1619,1038.5,cs),
(1727,1227.167,o),
(1816,1364.667,o),
(1880,1422,cs),
(1908,1448.667,o),
(1939.667,1458,o),
(1969,1458,cs),
(2011.667,1458,o),
(2046,1434.333,o),
(2046,1401,cs),
(2046,1381,o),
(2039.667,1370,o),
(2025,1354,cs),
(1969.935,1290.877,o),
(1924.818,1244.162,o),
(1877.5,1184.5,cs),
(1831.5,1126.5,o),
(1786.333,1058,o),
(1737,958,c),
(1643.971,786.413,o),
(1563.644,623.031,o),
(1479.5,446,cs),
(1404.777,288.79,o),
(1343.17,153.064,o),
(1308,91,c),
(1269.333,8.333,o),
(1214.333,-30.667,o),
(1173,-32,cs),
(1166,-32,ls),
(1112.558,-29.328,o),
(1059.651,5.78,o),
(1049,83,c),
(1017.169,208.334,o),
(996.635,329.726,o),
(974.5,463.5,cs),
(949.434,614.985,o),
(924.892,778.943,o),
(882,1009,c),
(822.522,810.741,o),
(724.592,545.403,o),
(602,313.5,cs),
(522,162.167,o),
(433.167,41.667,o),
(340.5,-29,cs),
(294.167,-64.333,o),
(247.667,-82,o),
(201,-82,cs),
(169.623,-82,o),
(108,-51.788,o),
(108,-2,cs),
(108,16.667,o),
(115.667,29.667,o),
(129,51,cs),
(163.521,106.764,o),
(297.982,134.354,o),
(400,234,cs),
(432,264.667,o),
(477.167,348.833,o),
(528.5,457.5,cs),
(579.833,566.167,o),
(636.667,701,o),
(690,833,cs),
(743.333,965,o),
(792.5,1095.833,o),
(830.5,1196.5,cs),
(872.206,1306.985,o),
(893.877,1369.913,o),
(899,1384,cs),
(912.333,1424,o),
(945.333,1441.667,o),
(980,1443,cs),
(979.333,1443,o),
(978.667,1442.667,o),
(978,1442,c),
(980,1442,o),
(982.167,1442.167,o),
(984.5,1442.5,cs),
(986.833,1442.833,o),
(989,1443,o),
(991,1443,cs),
(1020.333,1443,o),
(1053,1417.667,o),
(1065,1347,c)
);
},
{
closed = 1;
nodes = (
(1756,1597,o),
(1697,1516,o),
(1605,1516,cs),
(1597,1516,o),
(1589,1517,o),
(1581,1518,cs),
(1548,1521,o),
(1436,1576,o),
(1376,1586,cs),
(1375,1586,o),
(1373,1586,o),
(1372,1587,cs),
(1371,1587,o),
(1369,1587,o),
(1368,1587,cs),
(1344,1587,o),
(1339,1563,o),
(1329,1546,cs),
(1313,1515,o),
(1273,1503,o),
(1245,1503,cs),
(1214,1503,o),
(1188,1516,o),
(1188,1536,cs),
(1188,1541,o),
(1189,1544,o),
(1190,1546,cs),
(1237,1648,o),
(1314,1723,o),
(1396,1723,cs),
(1449,1723,o),
(1533,1657,o),
(1611,1657,cs),
(1639,1657,o),
(1659,1672,o),
(1670,1695,cs),
(1699,1763,o),
(1805,1754,o),
(1805,1706,cs),
(1805,1704,ls),
(1805,1703,o),
(1805,1702,o),
(1804,1701,cs),
(1803,1700,o),
(1803,1698,o),
(1802,1695,c)
);
}
);
};
layerId = "DC66AB0F-19FD-4F06-8C39-5D32AA939720";
shapes = (
{
ref = N;
},
{
pos = (369,720);
ref = tildecomb;
}
);
width = 1527;
}
);
unicode = 209;
},
{
glyphname = O;
lastChange = "2024-04-18 13:16:35 +0000";
layers = (
{
anchors = (
{
name = bottom;
pos = (671,0);
},
{
name = center;
pos = (671,720);
},
{
name = ogonek;
pos = (1207,10);
},
{
name = top;
pos = (1231,1440);
},
{
name = topleft;
pos = (20,1440);
},
{
name = topright;
pos = (1321,1440);
}
);
background = {
shapes = (
{
closed = 1;
nodes = (
(235,745.472,o),
(372.123,995.66,o),
(565.5,1170,cs),
(759.138,1344.575,o),
(993.345,1443,o),
(1188,1443,cs),
(1423.364,1443,o),
(1613.583,1336.502,o),
(1651,1112,cs),
(1651.667,1108.667,o),
(1652,1105.667,o),
(1652,1103,cs),
(1652,1100.333,o),
(1652,1097.333,o),
(1652,1094,cs),
(1652,1042,o),
(1615.667,1014,o),
(1581,1014,cs),
(1542.333,1014,o),
(1509.667,1057,o),
(1479,1133,c),
(1429.667,1226.333,o),
(1331.333,1267,o),
(1214,1267,cs),
(1061.845,1267,o),
(879.353,1181.79,o),
(728,1037.5,cs),
(577.315,893.847,o),
(472,697.977,o),
(472,486,cs),
(472,367.333,o),
(504,287.667,o),
(552,237,cs),
(600,186.333,o),
(662.667,165,o),
(724,165,cs),
(1000.186,165,o),
(1240,474.736,o),
(1240,976,cs),
(1240,988.667,o),
(1239.833,1001.167,o),
(1239.5,1013.5,cs),
(1239.167,1025.833,o),
(1239,1038.667,o),
(1239,1052,cs),
(1239,1118.667,o),
(1267.333,1149,o),
(1298,1149,cs),
(1400.926,1149,o),
(1425,1024.189,o),
(1425,896,cs),
(1425,630.398,o),
(1334.765,395.806,o),
(1193.5,232.5,cs),
(1052.182,69.132,o),
(868.63,-23,o),
(686,-23,cs),
(572.667,-23,o),
(460.167,7.167,o),
(375.5,82.5,cs),
(290.833,157.833,o),
(235,279,o),
(235,459,cs)
);
}
);
};
layerId = "DC66AB0F-19FD-4F06-8C39-5D32AA939720";
shapes = (
{
closed = 1;
nodes = (
(235,745,o),
(372,996,o),
(566,1170,cs),
(759,1345,o),
(993,1443,o),
(1188,1443,cs),
(1423,1443,o),
(1614,1337,o),
(1651,1112,cs),
(1652,1103,l),
(1652,1094,ls),
(1652,1042,o),
(1616,1014,o),
(1581,1014,cs),
(1542,1014,o),
(1510,1057,o),
(1479,1133,c),
(1430,1226,o),
(1331,1267,o),
(1214,1267,cs),
(1062,1267,o),
(879,1182,o),
(728,1038,cs),
(577,894,o),
(472,698,o),
(472,486,cs),
(472,367,o),
(504,288,o),
(552,237,cs),
(600,186,o),
(663,165,o),
(724,165,cs),
(1000,165,o),
(1240,475,o),
(1240,976,cs),
(1240,1014,l),
(1239,1052,ls),
(1239,1119,o),
(1267,1149,o),
(1298,1149,cs),
(1401,1149,o),
(1425,1024,o),
(1425,896,cs),
(1425,630,o),
(1335,396,o),
(1194,233,cs),
(1052,69,o),
(869,-23,o),
(686,-23,cs),
(573,-23,o),
(460,7,o),
(376,83,cs),
(291,158,o),
(235,279,o),
(235,459,cs)
);
}
);
width = 1341;
}
);
unicode = 79;
},
{
glyphname = Oacute;
lastChange = "2024-04-18 13:16:35 +0000";
layers = (
{
background = {
anchors = (
{
name = top;
pos = (1432,2022);
}
);
shapes = (
{
closed = 1;
nodes = (
(235,745.472,o),
(372.123,995.66,o),
(565.5,1170,cs),
(759.138,1344.575,o),
(993.345,1443,o),
(1188,1443,cs),
(1423.364,1443,o),
(1613.583,1336.502,o),
(1651,1112,cs),
(1651.667,1108.667,o),
(1652,1105.667,o),
(1652,1103,cs),
(1652,1100.333,o),
(1652,1097.333,o),
(1652,1094,cs),
(1652,1042,o),
(1615.667,1014,o),
(1581,1014,cs),
(1542.333,1014,o),
(1509.667,1057,o),
(1479,1133,c),
(1429.667,1226.333,o),
(1331.333,1267,o),
(1214,1267,cs),
(1061.845,1267,o),
(879.353,1181.79,o),
(728,1037.5,cs),
(577.315,893.847,o),
(472,697.977,o),
(472,486,cs),
(472,367.333,o),
(504,287.667,o),
(552,237,cs),
(600,186.333,o),
(662.667,165,o),
(724,165,cs),
(1000.186,165,o),
(1240,474.736,o),
(1240,976,cs),
(1240,988.667,o),
(1239.833,1001.167,o),
(1239.5,1013.5,cs),
(1239.167,1025.833,o),
(1239,1038.667,o),
(1239,1052,cs),
(1239,1118.667,o),
(1267.333,1149,o),
(1298,1149,cs),
(1400.926,1149,o),
(1425,1024.189,o),
(1425,896,cs),
(1425,630.398,o),
(1334.765,395.806,o),
(1193.5,232.5,cs),
(1052.182,69.132,o),
(868.63,-23,o),
(686,-23,cs),
(572.667,-23,o),
(460.167,7.167,o),
(375.5,82.5,cs),
(290.833,157.833,o),
(235,279,o),
(235,459,cs)
);
},
{
closed = 1;
nodes = (
(1290,1699,o),
(1314,1741,o),
(1339,1782,cs),
(1363,1823,o),
(1387,1865,o),
(1410,1907,cs),
(1461,1991,o),
(1517,2022,o),
(1560,2022,cs),
(1600,2022,o),
(1628,1994,o),
(1628,1953,cs),
(1628,1926,o),
(1618,1894,o),
(1587,1859,cs),
(1551,1817,o),
(1515,1775,o),
(1479,1734,cs),
(1442,1693,o),
(1406,1651,o),
(1370,1609,cs),
(1335,1564,o),
(1293,1541,o),
(1266,1541,cs),
(1245,1541,o),
(1235,1552,o),
(1235,1573,cs),
(1235,1592,o),
(1245,1620,o),
(1266,1657,cs)
);
}
);
};
layerId = "DC66AB0F-19FD-4F06-8C39-5D32AA939720";
shapes = (
{
ref = O;
},
{
pos = (520,720);
ref = acutecomb;
}
);
width = 1341;
}
);
unicode = 211;
},
{
glyphname = Ocircumflex;
lastChange = "2024-04-18 13:16:35 +0000";
layers = (
{
background = {
anchors = (
{
name = top;
pos = (1249,1901);
}
);
shapes = (
{
closed = 1;
nodes = (
(235,745.472,o),
(372.123,995.66,o),
(565.5,1170,cs),
(759.138,1344.575,o),
(993.345,1443,o),
(1188,1443,cs),
(1423.364,1443,o),
(1613.583,1336.502,o),
(1651,1112,cs),
(1651.667,1108.667,o),
(1652,1105.667,o),
(1652,1103,cs),
(1652,1100.333,o),
(1652,1097.333,o),
(1652,1094,cs),
(1652,1042,o),
(1615.667,1014,o),
(1581,1014,cs),
(1542.333,1014,o),
(1509.667,1057,o),
(1479,1133,c),
(1429.667,1226.333,o),
(1331.333,1267,o),
(1214,1267,cs),
(1061.845,1267,o),
(879.353,1181.79,o),
(728,1037.5,cs),
(577.315,893.847,o),
(472,697.977,o),
(472,486,cs),
(472,367.333,o),
(504,287.667,o),
(552,237,cs),
(600,186.333,o),
(662.667,165,o),
(724,165,cs),
(1000.186,165,o),
(1240,474.736,o),
(1240,976,cs),
(1240,988.667,o),
(1239.833,1001.167,o),
(1239.5,1013.5,cs),
(1239.167,1025.833,o),
(1239,1038.667,o),
(1239,1052,cs),
(1239,1118.667,o),
(1267.333,1149,o),
(1298,1149,cs),
(1400.926,1149,o),
(1425,1024.189,o),
(1425,896,cs),
(1425,630.398,o),
(1334.765,395.806,o),
(1193.5,232.5,cs),
(1052.182,69.132,o),
(868.63,-23,o),
(686,-23,cs),
(572.667,-23,o),
(460.167,7.167,o),
(375.5,82.5,cs),
(290.833,157.833,o),
(235,279,o),
(235,459,cs)
);
},
{
closed = 1;
nodes = (
(1117,1749,o),
(1201,1825,o),
(1244,1860,cs),
(1285,1893,o),
(1301,1901,o),
(1333,1901,cs),
(1405,1901,o),
(1407,1839,o),
(1515,1620,cs),
(1517,1615,o),
(1518,1610,o),
(1518,1605,cs),
(1518,1573,o),
(1472,1552,o),
(1434,1552,cs),
(1405,1552,o),
(1378,1561,o),
(1367,1584,cs),
(1362,1595,o),
(1356,1609,o),
(1348,1628,cs),
(1340,1646,o),
(1332,1664,o),
(1324,1681,cs),
(1315,1702,o),
(1305,1723,o),
(1294,1745,c),
(1270,1723,o),
(1247,1702,o),
(1225,1681,cs),
(1206,1664,o),
(1187,1646,o),
(1168,1628,cs),
(1149,1609,o),
(1133,1595,o),
(1121,1584,cs),
(1104,1569,o),
(1085,1561,o),
(1066,1561,cs),
(1021,1561,o),
(980,1587,o),
(980,1615,cs),
(980,1624,o),
(984,1633,o),
(993,1641,cs)
);
}
);
};
layerId = "DC66AB0F-19FD-4F06-8C39-5D32AA939720";
shapes = (
{
ref = O;
},
{
pos = (653,720);
ref = circumflexcomb;
}
);
width = 1341;
}
);
unicode = 212;
},
{
glyphname = Odblgrave;
lastChange = "2024-04-18 13:07:54 +0000";
layers = (
{
background = {
anchors = (
{
name = top;
pos = (1105,2053);
}
);
shapes = (
{
closed = 1;
nodes = (
(235,745.472,o),
(372.123,995.66,o),
(565.5,1170,cs),
(759.138,1344.575,o),
(993.345,1443,o),
(1188,1443,cs),
(1423.364,1443,o),
(1613.583,1336.502,o),
(1651,1112,cs),
(1651.667,1108.667,o),
(1652,1105.667,o),
(1652,1103,cs),
(1652,1100.333,o),
(1652,1097.333,o),
(1652,1094,cs),
(1652,1042,o),
(1615.667,1014,o),
(1581,1014,cs),
(1542.333,1014,o),
(1509.667,1057,o),
(1479,1133,c),
(1429.667,1226.333,o),
(1331.333,1267,o),
(1214,1267,cs),
(1061.845,1267,o),
(879.353,1181.79,o),
(728,1037.5,cs),
(577.315,893.847,o),
(472,697.977,o),
(472,486,cs),
(472,367.333,o),
(504,287.667,o),
(552,237,cs),
(600,186.333,o),
(662.667,165,o),
(724,165,cs),
(1000.186,165,o),
(1240,474.736,o),
(1240,976,cs),
(1240,988.667,o),
(1239.833,1001.167,o),
(1239.5,1013.5,cs),
(1239.167,1025.833,o),
(1239,1038.667,o),
(1239,1052,cs),
(1239,1118.667,o),
(1267.333,1149,o),
(1298,1149,cs),
(1400.926,1149,o),
(1425,1024.189,o),
(1425,896,cs),
(1425,630.398,o),
(1334.765,395.806,o),
(1193.5,232.5,cs),
(1052.182,69.132,o),
(868.63,-23,o),
(686,-23,cs),
(572.667,-23,o),
(460.167,7.167,o),
(375.5,82.5,cs),
(290.833,157.833,o),
(235,279,o),
(235,459,cs)
);
},
{
closed = 1;
nodes = (
(1067,1665,o),
(1071,1647,o),
(1071,1632,cs),
(1071,1591,o),
(1052,1572,o),
(1027,1572,cs),
(1000,1572,o),
(966,1595,o),
(943,1640,cs),
(920,1682,o),
(896,1724,o),
(872,1765,cs),
(848,1806,o),
(824,1848,o),
(801,1890,cs),
(788,1913,o),
(783,1932,o),
(783,1953,cs),
(783,2012,o),
(827,2053,o),
(876,2053,cs),
(919,2053,o),
(965,2022,o),
(992,1938,cs),
(1015,1854,o),
(1038,1772,o),
(1062,1688,cs)
);
},
{
closed = 1;
nodes = (
(1423,1665,o),
(1427,1647,o),
(1427,1632,cs),
(1427,1591,o),
(1408,1572,o),
(1383,1572,cs),
(1356,1572,o),
(1322,1595,o),
(1299,1640,cs),
(1276,1682,o),
(1252,1724,o),
(1228,1765,cs),
(1204,1806,o),
(1180,1848,o),
(1157,1890,cs),
(1144,1913,o),
(1139,1932,o),
(1139,1953,cs),
(1139,2012,o),
(1183,2053,o),
(1232,2053,cs),
(1275,2053,o),
(1321,2022,o),
(1348,1938,cs),
(1371,1854,o),
(1394,1772,o),
(1418,1688,cs)
);
}
);
};
layerId = "DC66AB0F-19FD-4F06-8C39-5D32AA939720";
shapes = (
{
alignment = -1;
ref = O;
},
{
alignment = -1;
pos = (86,746);
ref = dblgravecomb;
}
);
width = 1341;
}
);
unicode = 524;
},
{
glyphname = Odieresis;
lastChange = "2024-04-18 13:16:35 +0000";
layers = (
{
background = {
anchors = (
{
name = top;
pos = (1297,1781);
}
);
shapes = (
{
closed = 1;
nodes = (
(235,745.472,o),
(372.123,995.66,o),
(565.5,1170,cs),
(759.138,1344.575,o),
(993.345,1443,o),
(1188,1443,cs),
(1423.364,1443,o),
(1613.583,1336.502,o),
(1651,1112,cs),
(1651.667,1108.667,o),
(1652,1105.667,o),
(1652,1103,cs),
(1652,1100.333,o),
(1652,1097.333,o),
(1652,1094,cs),
(1652,1042,o),
(1615.667,1014,o),
(1581,1014,cs),
(1542.333,1014,o),
(1509.667,1057,o),
(1479,1133,c),
(1429.667,1226.333,o),
(1331.333,1267,o),
(1214,1267,cs),
(1061.845,1267,o),
(879.353,1181.79,o),
(728,1037.5,cs),
(577.315,893.847,o),
(472,697.977,o),
(472,486,cs),
(472,367.333,o),
(504,287.667,o),
(552,237,cs),
(600,186.333,o),
(662.667,165,o),
(724,165,cs),
(1000.186,165,o),
(1240,474.736,o),
(1240,976,cs),
(1240,988.667,o),
(1239.833,1001.167,o),
(1239.5,1013.5,cs),
(1239.167,1025.833,o),
(1239,1038.667,o),
(1239,1052,cs),
(1239,1118.667,o),
(1267.333,1149,o),
(1298,1149,cs),
(1400.926,1149,o),
(1425,1024.189,o),
(1425,896,cs),
(1425,630.398,o),
(1334.765,395.806,o),
(1193.5,232.5,cs),
(1052.182,69.132,o),
(868.63,-23,o),
(686,-23,cs),
(572.667,-23,o),
(460.167,7.167,o),
(375.5,82.5,cs),
(290.833,157.833,o),
(235,279,o),
(235,459,cs)
);
},
{
closed = 1;
nodes = (
(1244,1616,o),
(1178,1556,o),
(1111,1556,cs),
(1062,1556,o),
(1031,1586,o),
(1031,1631,cs),
(1031,1713,o),
(1105,1781,o),
(1183,1781,cs),
(1232,1781,o),
(1259,1751,o),
(1259,1706,cs),
(1259,1699,o),
(1258,1691,o),
(1257,1683,cs)
);
},
{
closed = 1;
nodes = (
(1547,1616,o),
(1481,1556,o),
(1414,1556,cs),
(1365,1556,o),
(1334,1586,o),
(1334,1631,cs),
(1334,1713,o),
(1408,1781,o),
(1486,1781,cs),
(1535,1781,o),
(1562,1751,o),
(1562,1706,cs),
(1562,1699,o),
(1561,1691,o),
(1560,1683,cs)
);
}
);
};
layerId = "DC66AB0F-19FD-4F06-8C39-5D32AA939720";
shapes = (
{
ref = O;
},
{
pos = (300,720);
ref = dieresiscomb;
}
);
width = 1341;
}
);
unicode = 214;
},
{
glyphname = Ograve;
lastChange = "2024-04-18 13:16:35 +0000";
layers = (
{
background = {
anchors = (
{
name = top;
pos = (1195,2015);
}
);
shapes = (
{
closed = 1;
nodes = (
(235,745.472,o),
(372.123,995.66,o),
(565.5,1170,cs),
(759.138,1344.575,o),
(993.345,1443,o),
(1188,1443,cs),
(1423.364,1443,o),
(1613.583,1336.502,o),
(1651,1112,cs),
(1651.667,1108.667,o),
(1652,1105.667,o),
(1652,1103,cs),
(1652,1100.333,o),
(1652,1097.333,o),
(1652,1094,cs),
(1652,1042,o),
(1615.667,1014,o),
(1581,1014,cs),
(1542.333,1014,o),
(1509.667,1057,o),
(1479,1133,c),
(1429.667,1226.333,o),
(1331.333,1267,o),
(1214,1267,cs),
(1061.845,1267,o),
(879.353,1181.79,o),
(728,1037.5,cs),
(577.315,893.847,o),
(472,697.977,o),
(472,486,cs),
(472,367.333,o),
(504,287.667,o),
(552,237,cs),
(600,186.333,o),
(662.667,165,o),
(724,165,cs),
(1000.186,165,o),
(1240,474.736,o),
(1240,976,cs),
(1240,988.667,o),
(1239.833,1001.167,o),
(1239.5,1013.5,cs),
(1239.167,1025.833,o),
(1239,1038.667,o),
(1239,1052,cs),
(1239,1118.667,o),
(1267.333,1149,o),
(1298,1149,cs),
(1400.926,1149,o),
(1425,1024.189,o),
(1425,896,cs),
(1425,630.398,o),
(1334.765,395.806,o),
(1193.5,232.5,cs),
(1052.182,69.132,o),
(868.63,-23,o),
(686,-23,cs),
(572.667,-23,o),
(460.167,7.167,o),
(375.5,82.5,cs),
(290.833,157.833,o),
(235,279,o),
(235,459,cs)
);
},
{
closed = 1;
nodes = (
(1322,1633,o),
(1323,1618,o),
(1323,1605,cs),
(1323,1508,o),
(1233,1513,o),
(1196,1602,cs),
(1177,1644,o),
(1157,1686,o),
(1137,1727,cs),
(1117,1768,o),
(1097,1810,o),
(1078,1852,cs),
(1070,1870,o),
(1066,1887,o),
(1066,1904,cs),
(1066,1966,o),
(1117,2015,o),
(1169,2015,cs),
(1212,2015,o),
(1255,1984,o),
(1274,1900,cs),
(1281,1858,o),
(1289,1816,o),
(1297,1775,cs),
(1304,1734,o),
(1312,1692,o),
(1319,1650,cs)
);
}
);
};
layerId = "DC66AB0F-19FD-4F06-8C39-5D32AA939720";
shapes = (
{
ref = O;
},
{
pos = (648,735);
ref = gravecomb;
}
);
width = 1341;
}
);
unicode = 210;
},
{
glyphname = Oinvertedbreve;
lastChange = "2024-04-18 13:07:54 +0000";
layers = (
{
background = {
anchors = (
{
name = top;
pos = (1186,1799);
}
);
shapes = (
{
closed = 1;
nodes = (
(235,745.472,o),
(372.123,995.66,o),
(565.5,1170,cs),
(759.138,1344.575,o),
(993.345,1443,o),
(1188,1443,cs),
(1423.364,1443,o),
(1613.583,1336.502,o),
(1651,1112,cs),
(1651.667,1108.667,o),
(1652,1105.667,o),
(1652,1103,cs),
(1652,1100.333,o),
(1652,1097.333,o),
(1652,1094,cs),
(1652,1042,o),
(1615.667,1014,o),
(1581,1014,cs),
(1542.333,1014,o),
(1509.667,1057,o),
(1479,1133,c),
(1429.667,1226.333,o),
(1331.333,1267,o),
(1214,1267,cs),
(1061.845,1267,o),
(879.353,1181.79,o),
(728,1037.5,cs),
(577.315,893.847,o),
(472,697.977,o),
(472,486,cs),
(472,367.333,o),
(504,287.667,o),
(552,237,cs),
(600,186.333,o),
(662.667,165,o),
(724,165,cs),
(1000.186,165,o),
(1240,474.736,o),
(1240,976,cs),
(1240,988.667,o),
(1239.833,1001.167,o),
(1239.5,1013.5,cs),
(1239.167,1025.833,o),
(1239,1038.667,o),
(1239,1052,cs),
(1239,1118.667,o),
(1267.333,1149,o),
(1298,1149,cs),
(1400.926,1149,o),
(1425,1024.189,o),
(1425,896,cs),
(1425,630.398,o),
(1334.765,395.806,o),
(1193.5,232.5,cs),
(1052.182,69.132,o),
(868.63,-23,o),
(686,-23,cs),
(572.667,-23,o),
(460.167,7.167,o),
(375.5,82.5,cs),
(290.833,157.833,o),
(235,279,o),
(235,459,cs)
);
},
{
closed = 1;
nodes = (
(1400,1586,o),
(1366,1573,o),
(1337,1573,cs),
(1312,1573,o),
(1292,1582,o),
(1292,1601,cs),
(1292,1605,o),
(1293,1610,o),
(1294,1615,cs),
(1295,1620,o),
(1296,1624,o),
(1296,1628,cs),
(1296,1663,o),
(1268,1688,o),
(1207,1688,cs),
(1134,1688,o),
(1084,1648,o),
(1073,1605,cs),
(1058,1557,o),
(957,1556,o),
(957,1599,cs),
(957,1600,o),
(958,1604,o),
(959,1609,cs),
(989,1714,o),
(1125,1799,o),
(1239,1799,cs),
(1352,1799,o),
(1414,1738,o),
(1414,1658,cs),
(1414,1641,o),
(1412,1625,o),
(1407,1609,cs)
);
}
);
};
layerId = "DC66AB0F-19FD-4F06-8C39-5D32AA939720";
shapes = (
{
alignment = -1;
ref = O;
},
{
alignment = -1;
pos = (386,735);
ref = breveinvertedcomb;
}
);
width = 1341;
}
);
unicode = 526;
},
{
glyphname = Oslash;
lastChange = "2024-04-18 13:07:54 +0000";
layers = (
{
background = {
shapes = (
{
closed = 1;
nodes = (
(396,214,l),
(438.667,179.333,o),
(491,165,o),
(543,165,cs),
(676.333,165,o),
(803.5,238.5,o),
(897.5,372.5,cs),
(991.5,506.5,o),
(1053.667,700.333,o),
(1059,943,c)
);
},
{
closed = 1;
nodes = (
(598.406,659.435,o),
(881.949,970.963,o),
(1135,1255,c),
(1103.667,1263,o),
(1069.667,1267,o),
(1033,1267,cs),
(880.845,1267,o),
(698.353,1181.79,o),
(547,1037.5,cs),
(396.315,893.847,o),
(291,697.977,o),
(291,486,cs),
(291,428.667,o),
(298,379.667,o),
(312,339,c)
);
},
{
closed = 1;
nodes = (
(54,745.472,o),
(191.123,995.66,o),
(384.5,1170,cs),
(578.138,1344.575,o),
(812.345,1443,o),
(1007,1443,cs),
(1099,1443,o),
(1186,1426.667,o),
(1258,1392,c),
(1353,1498,ls),
(1370.333,1517.333,o),
(1392.333,1527,o),
(1419,1527,cs),
(1463.843,1527,o),
(1510,1494.848,o),
(1510,1458,cs),
(1510,1450.667,o),
(1508.667,1444.333,o),
(1506,1439,cs),
(1503,1432,l),
(1383,1300,l),
(1426.55,1248.284,o),
(1471,1174.132,o),
(1471,1094,cs),
(1471,1042,o),
(1434.667,1014,o),
(1400,1014,cs),
(1361.333,1014,o),
(1328.667,1057,o),
(1298,1133,c),
(1290.667,1147,o),
(1281,1161,o),
(1269,1175,c),
(1203,1101,l),
(1233.667,1053,o),
(1244,976,o),
(1244,896,cs),
(1244,630.398,o),
(1153.765,395.806,o),
(1012.5,232.5,cs),
(871.182,69.132,o),
(687.63,-23,o),
(505,-23,cs),
(411.667,-23,o),
(320.333,-2,o),
(243,46,c),
(219.667,20,o),
(196.167,-5.833,o),
(172.5,-31.5,cs),
(148.833,-57.167,o),
(126,-82.667,o),
(104,-108,cs),
(86,-128.667,o),
(64.667,-139,o),
(40,-139,cs),
(-5.4,-139,o),
(-44,-105.307,o),
(-44,-75,cs),
(-44,-64.333,o),
(-40.667,-53.667,o),
(-34,-47,cs),
(-6,-15.667,o),
(22.167,15.833,o),
(50.5,47.5,cs),
(78.833,79.167,o),
(108,112,o),
(138,146,c),
(86,220.667,o),
(54,321.667,o),
(54,459,cs)
);
}
);
};
layerId = "DC66AB0F-19FD-4F06-8C39-5D32AA939720";
shapes = (
{
closed = 1;
nodes = (
(396,214,l),
(439,179,o),
(491,165,o),
(543,165,cs),
(676,165,o),
(804,239,o),
(898,373,cs),
(992,507,o),
(1054,700,o),
(1059,943,c)
);
},
{
closed = 1;
nodes = (
(598,659,o),
(882,971,o),
(1135,1255,c),
(1104,1263,o),
(1070,1267,o),
(1033,1267,cs),
(881,1267,o),
(698,1182,o),
(547,1038,cs),
(396,894,o),
(291,698,o),
(291,486,cs),
(291,429,o),
(298,380,o),
(312,339,c)
);
},
{
closed = 1;
nodes = (
(54,745,o),
(191,996,o),
(385,1170,cs),
(578,1345,o),
(812,1443,o),
(1007,1443,cs),
(1099,1443,o),
(1186,1427,o),
(1258,1392,c),
(1353,1498,ls),
(1370,1517,o),
(1392,1527,o),
(1419,1527,cs),
(1464,1527,o),
(1510,1495,o),
(1510,1458,cs),
(1510,1451,o),
(1509,1444,o),
(1506,1439,cs),
(1503,1432,l),
(1383,1300,l),
(1427,1248,o),
(1471,1174,o),
(1471,1094,cs),
(1471,1042,o),
(1435,1014,o),
(1400,1014,cs),
(1361,1014,o),
(1329,1057,o),
(1298,1133,c),
(1291,1147,o),
(1281,1161,o),
(1269,1175,c),
(1203,1101,l),
(1234,1053,o),
(1244,976,o),
(1244,896,cs),
(1244,630,o),
(1154,396,o),
(1013,233,cs),
(871,69,o),
(688,-23,o),
(505,-23,cs),
(412,-23,o),
(320,-2,o),
(243,46,c),
(173,-31,l),
(104,-108,ls),
(86,-129,o),
(65,-139,o),
(40,-139,cs),
(-5,-139,o),
(-44,-105,o),
(-44,-75,cs),
(-44,-64,o),
(-41,-54,o),
(-34,-47,cs),
(51,48,l),
(138,146,l),
(86,221,o),
(54,322,o),
(54,459,cs)
);
}
);
width = 1160;
}
);
unicode = 216;
},
{
glyphname = Otilde;
lastChange = "2024-04-18 13:16:35 +0000";
layers = (
{
background = {
anchors = (
{
name = top;
pos = (1337,1770);
}
);
shapes = (
{
closed = 1;
nodes = (
(235,745.472,o),
(372.123,995.66,o),
(565.5,1170,cs),
(759.138,1344.575,o),
(993.345,1443,o),
(1188,1443,cs),
(1423.364,1443,o),
(1613.583,1336.502,o),
(1651,1112,cs),
(1651.667,1108.667,o),
(1652,1105.667,o),
(1652,1103,cs),
(1652,1100.333,o),
(1652,1097.333,o),
(1652,1094,cs),
(1652,1042,o),
(1615.667,1014,o),
(1581,1014,cs),
(1542.333,1014,o),
(1509.667,1057,o),
(1479,1133,c),
(1429.667,1226.333,o),
(1331.333,1267,o),
(1214,1267,cs),
(1061.845,1267,o),
(879.353,1181.79,o),
(728,1037.5,cs),
(577.315,893.847,o),
(472,697.977,o),
(472,486,cs),
(472,367.333,o),
(504,287.667,o),
(552,237,cs),
(600,186.333,o),
(662.667,165,o),
(724,165,cs),
(1000.186,165,o),
(1240,474.736,o),
(1240,976,cs),
(1240,988.667,o),
(1239.833,1001.167,o),
(1239.5,1013.5,cs),
(1239.167,1025.833,o),
(1239,1038.667,o),
(1239,1052,cs),
(1239,1118.667,o),
(1267.333,1149,o),
(1298,1149,cs),
(1400.926,1149,o),
(1425,1024.189,o),
(1425,896,cs),
(1425,630.398,o),
(1334.765,395.806,o),
(1193.5,232.5,cs),
(1052.182,69.132,o),
(868.63,-23,o),
(686,-23,cs),
(572.667,-23,o),
(460.167,7.167,o),
(375.5,82.5,cs),
(290.833,157.833,o),
(235,279,o),
(235,459,cs)
);
},
{
closed = 1;
nodes = (
(1596,1623,o),
(1537,1542,o),
(1445,1542,cs),
(1437,1542,o),
(1429,1543,o),
(1421,1544,cs),
(1388,1547,o),
(1276,1602,o),
(1216,1612,cs),
(1215,1612,o),
(1213,1612,o),
(1212,1613,cs),
(1211,1613,o),
(1209,1613,o),
(1208,1613,cs),
(1184,1613,o),
(1179,1589,o),
(1169,1572,cs),
(1153,1541,o),
(1113,1529,o),
(1085,1529,cs),
(1054,1529,o),
(1028,1542,o),
(1028,1562,cs),
(1028,1567,o),
(1029,1570,o),
(1030,1572,cs),
(1077,1674,o),
(1154,1749,o),
(1236,1749,cs),
(1289,1749,o),
(1373,1683,o),
(1451,1683,cs),
(1479,1683,o),
(1499,1698,o),
(1510,1721,cs),
(1539,1789,o),
(1645,1780,o),
(1645,1732,cs),
(1645,1730,ls),
(1645,1729,o),
(1645,1728,o),
(1644,1727,cs),
(1643,1726,o),
(1643,1724,o),
(1642,1721,c)
);
}
);
};
layerId = "DC66AB0F-19FD-4F06-8C39-5D32AA939720";
shapes = (
{
ref = O;
},
{
pos = (96,720);
ref = tildecomb;
}
);
width = 1341;
}
);
unicode = 213;
},
{
glyphname = OE;
lastChange = "2024-04-18 13:06:27 +0000";
layers = (
{
background = {
shapes = (
{
closed = 1;
nodes = (
(436,246,o),
(675,150,o),
(926,150,c),
(1173,1267,l),
(866,1263,o),
(436,913,o),
(436,486,cs)
);
},
{
closed = 1;
nodes = (
(1508,825,ls),
(1584,825,o),
(1622,802,o),
(1622,774,cs),
(1622,721,o),
(1562,701,o),
(1494,688,cs),
(1458,681,o),
(1362,679,o),
(1217,679,c),
(1083,129,l),
(1607,129,o),
(1557,339,o),
(1766,339,cs),
(1822,339,o),
(1856,311,o),
(1856,260,cs),
(1856,156,o),
(1509,-38,o),
(977,-38,cs),
(532,-38,o),
(199,95,o),
(199,459,cs),
(199,1043,o),
(798,1443,o),
(1295,1443,cs),
(1623,1443,o),
(1838,1353,o),
(1867,1152,c),
(1867,1141,ls),
(1867,1089,o),
(1799,1027,o),
(1708,1027,cs),
(1652,1027,o),
(1646,1056,o),
(1646,1093,cs),
(1646,1124,ls),
(1646,1136,o),
(1647,1149,o),
(1644,1161,c),
(1636,1240,o),
(1505,1274,o),
(1350,1274,c),
(1259,825,l),
(1259,825,l)
);
}
);
};
layerId = "DC66AB0F-19FD-4F06-8C39-5D32AA939720";
shapes = (
{
closed = 1;
nodes = (
(436,246,o),
(675,150,o),
(926,150,c),
(1173,1267,l),
(866,1263,o),
(436,913,o),
(436,486,cs)
);
},
{
closed = 1;
nodes = (
(1508,825,ls),
(1584,825,o),
(1622,802,o),
(1622,774,cs),
(1622,721,o),
(1562,701,o),
(1494,688,cs),
(1458,681,o),
(1362,679,o),
(1217,679,c),
(1083,129,l),
(1607,129,o),
(1557,339,o),
(1766,339,cs),
(1822,339,o),
(1856,311,o),
(1856,260,cs),
(1856,156,o),
(1509,-38,o),
(977,-38,cs),
(532,-38,o),
(199,95,o),
(199,459,cs),
(199,1043,o),
(798,1443,o),
(1295,1443,cs),
(1623,1443,o),
(1838,1353,o),
(1867,1152,c),
(1867,1141,ls),
(1867,1089,o),
(1799,1027,o),
(1708,1027,cs),
(1652,1027,o),
(1646,1056,o),
(1646,1093,cs),
(1646,1124,ls),
(1646,1136,o),
(1647,1149,o),
(1644,1161,c),
(1636,1240,o),
(1505,1274,o),
(1350,1274,c),
(1259,825,l)
);
}
);
width = 1581;
}
);
unicode = 338;
},
{
glyphname = P;
lastChange = "2024-04-18 13:09:08 +0000";
layers = (
{
anchors = (
{
name = bottom;
pos = (596,0);
},
{
name = top;
pos = (596,1440);
}
);
background = {
shapes = (
{
closed = 1;
nodes = (
(727.021,457.467,o),
(681.324,326.095,o),
(613.5,186,cs),
(553.194,61.433,o),
(479.579,-38,o),
(408,-38,cs),
(327.457,-38,o),
(306,16.224,o),
(306,61,cs),
(306,93,o),
(317.333,128,o),
(332,156,cs),
(715,861,ls),
(775.811,968.028,o),
(825.669,984,o),
(864,984,cs),
(888,984,o),
(912,970,o),
(912,926,cs),
(912,904.667,o),
(906.333,875.333,o),
(895,838,cs),
(883.667,800.667,o),
(862.667,752.667,o),
(832,694,c),
(1044.627,710.356,o),
(1257,804.715,o),
(1257,984,cs),
(1257,1144.566,o),
(1151.049,1285,o),
(961,1285,cs),
(830.333,1285,o),
(738.833,1258,o),
(671.5,1218,cs),
(604.167,1178,o),
(561.167,1123.333,o),
(528.5,1070,cs),
(464.769,965.95,o),
(437.758,855,o),
(335,855,cs),
(269.667,855,o),
(239,889.667,o),
(239,951,cs),
(239,1012.333,o),
(273.667,1087.667,o),
(335,1161,cs),
(396.333,1234.333,o),
(484.667,1304,o),
(594,1356,cs),
(703.333,1408,o),
(833.333,1442,o),
(976,1442,cs),
(1243.159,1442,o),
(1488,1289.867,o),
(1488,985,cs),
(1488,845,o),
(1415.5,730.5,o),
(1301.5,652.5,cs),
(1187.5,574.5,o),
(1033.333,531,o),
(868,531,cs),
(833.333,531,o),
(797.667,531.667,o),
(763,537,c)
);
}
);
};
layerId = "DC66AB0F-19FD-4F06-8C39-5D32AA939720";
shapes = (
{
closed = 1;
nodes = (
(727,457,o),
(681,326,o),
(614,186,cs),
(553,61,o),
(480,-38,o),
(408,-38,cs),
(327,-38,o),
(306,16,o),
(306,61,cs),
(306,93,o),
(317,128,o),
(332,156,cs),
(715,861,ls),
(776,968,o),
(826,984,o),
(864,984,cs),
(888,984,o),
(912,970,o),
(912,926,cs),
(912,905,o),
(906,875,o),
(895,838,cs),
(884,801,o),
(863,753,o),
(832,694,c),
(1045,710,o),
(1257,805,o),
(1257,984,cs),
(1257,1145,o),
(1151,1285,o),
(961,1285,cs),
(830,1285,o),
(739,1258,o),
(672,1218,cs),
(604,1178,o),
(561,1123,o),
(529,1070,cs),
(465,966,o),
(438,855,o),
(335,855,cs),
(270,855,o),
(239,890,o),
(239,951,cs),
(239,1012,o),
(274,1088,o),
(335,1161,cs),
(396,1234,o),
(485,1304,o),
(594,1356,cs),
(703,1408,o),
(833,1442,o),
(976,1442,cs),
(1243,1442,o),
(1488,1290,o),
(1488,985,cs),
(1488,845,o),
(1416,731,o),
(1302,653,cs),
(1188,575,o),
(1033,531,o),
(868,531,cs),
(833,531,o),
(798,532,o),
(763,537,c)
);
}
);
width = 1191;
}
);
unicode = 80;
},
{
glyphname = Thorn;
lastChange = "2024-04-18 13:06:27 +0000";
layers = (
{
background = {
shapes = (
{
closed = 1;
nodes = (
(1102,972.707,o),
(1047.039,1082.932,o),
(938,1132,c),
(891.333,1025.333,o),
(835.167,903.5,o),
(786.5,797.5,cs),
(737.833,691.5,o),
(695.667,604,o),
(677,568,c),
(889.627,584.356,o),
(1102,678.715,o),
(1102,858,cs)
);
},
{
closed = 1;
nodes = (
(570.547,328.209,o),
(535.36,223.011,o),
(484,123.5,cs),
(436.535,31.537,o),
(377.242,-38,o),
(304,-38,cs),
(223.457,-38,o),
(202,16.224,o),
(202,61,cs),
(202,93,o),
(213.333,128,o),
(228,156,cs),
(756,1157,l),
(523.38,1143.631,o),
(428.246,1036.852,o),
(367,933,cs),
(307.354,831.862,o),
(277.183,729,o),
(180,729,cs),
(114.667,729,o),
(84,763.667,o),
(84,825,cs),
(84,886.333,o),
(118.667,961.667,o),
(180,1035,cs),
(241.333,1108.333,o),
(329.667,1178,o),
(439,1230,cs),
(548.333,1282,o),
(678.333,1316,o),
(821,1316,cs),
(822.333,1316,o),
(824,1315.833,o),
(826,1315.5,cs),
(828,1315.167,o),
(830,1315,o),
(832,1315,cs),
(839,1315,l),
(842,1320,ls),
(902.811,1427.028,o),
(952.669,1443,o),
(991,1443,cs),
(1015,1443,o),
(1039,1429,o),
(1039,1385,cs),
(1039,1380.333,o),
(1035.833,1369.667,o),
(1029.5,1353,cs),
(1023.167,1336.333,o),
(1015,1315.333,o),
(1005,1290,c),
(1190.558,1234.333,o),
(1333,1093.346,o),
(1333,859,cs),
(1333,719,o),
(1260.5,604.5,o),
(1146.5,526.5,cs),
(1032.5,448.5,o),
(878.333,405,o),
(713,405,cs),
(678.333,405,o),
(642.667,405.667,o),
(608,411,c)
);
}
);
};
layerId = "DC66AB0F-19FD-4F06-8C39-5D32AA939720";
shapes = (
{
closed = 1;
nodes = (
(1102,973,o),
(1047,1083,o),
(938,1132,c),
(891,1025,o),
(835,904,o),
(787,798,cs),
(738,692,o),
(696,604,o),
(677,568,c),
(890,584,o),
(1102,679,o),
(1102,858,cs)
);
},
{
closed = 1;
nodes = (
(571,328,o),
(535,223,o),
(484,124,cs),
(437,32,o),
(377,-38,o),
(304,-38,cs),
(223,-38,o),
(202,16,o),
(202,61,cs),
(202,93,o),
(213,128,o),
(228,156,cs),
(756,1157,l),
(523,1144,o),
(428,1037,o),
(367,933,cs),
(307,832,o),
(277,729,o),
(180,729,cs),
(115,729,o),
(84,764,o),
(84,825,cs),
(84,886,o),
(119,962,o),
(180,1035,cs),
(241,1108,o),
(330,1178,o),
(439,1230,cs),
(548,1282,o),
(678,1316,o),
(821,1316,cs),
(826,1316,l),
(832,1315,l),
(839,1315,l),
(842,1320,ls),
(903,1427,o),
(953,1443,o),
(991,1443,cs),
(1015,1443,o),
(1039,1429,o),
(1039,1385,cs),
(1039,1380,o),
(1036,1370,o),
(1030,1353,cs),
(1005,1290,l),
(1191,1234,o),
(1333,1093,o),
(1333,859,cs),
(1333,719,o),
(1261,605,o),
(1147,527,cs),
(1033,449,o),
(878,405,o),
(713,405,cs),
(678,405,o),
(643,406,o),
(608,411,c)
);
}
);
width = 1088;
}
);
unicode = 222;
},
{
glyphname = Q;
lastChange = "2024-04-18 13:09:08 +0000";
layers = (
{
anchors = (
{
name = bottom;
pos = (658,0);
},
{
name = top;
pos = (658,1440);
}
);
background = {
shapes = (
{
closed = 1;
nodes = (
(210,745.472,o),
(347.123,995.66,o),
(540.5,1170,cs),
(734.138,1344.575,o),
(968.345,1443,o),
(1163,1443,cs),
(1398.364,1443,o),
(1588.583,1336.502,o),
(1626,1112,cs),
(1626.667,1108.667,o),
(1627,1105.667,o),
(1627,1103,cs),
(1627,1100.333,o),
(1627,1097.333,o),
(1627,1094,cs),
(1627,1042,o),
(1590.667,1014,o),
(1556,1014,cs),
(1517.333,1014,o),
(1484.667,1057,o),
(1454,1133,c),
(1404.667,1226.333,o),
(1306.333,1267,o),
(1189,1267,cs),
(1036.845,1267,o),
(854.353,1181.79,o),
(703,1037.5,cs),
(552.315,893.847,o),
(447,697.977,o),
(447,486,cs),
(447,367.333,o),
(479,287.667,o),
(527,237,cs),
(575,186.333,o),
(637.667,165,o),
(699,165,cs),
(704,165,l),
(700,179.667,o),
(698,195.667,o),
(698,209,cs),
(698,266.574,o),
(741.975,299,o),
(788,299,cs),
(829.333,299,o),
(871.667,273.333,o),
(889,220,c),
(1009,300,o),
(1091.333,401.667,o),
(1142,535,cs),
(1192.667,668.333,o),
(1214,834,o),
(1214,1042,cs),
(1214,1115.333,o),
(1251.667,1149,o),
(1293,1149,cs),
(1380.512,1149,o),
(1400,1021.723,o),
(1400,896,cs),
(1400,688,o),
(1346,504.667,o),
(1258,358,cs),
(1170,211.333,o),
(1049.333,99.667,o),
(916,37,c),
(938.667,-69.667,o),
(976.667,-140,o),
(1022,-184,cs),
(1067.333,-228,o),
(1119.333,-245,o),
(1174,-245,cs),
(1261.662,-245,o),
(1362.427,-202.573,o),
(1402,-163,c),
(1406,-161,o),
(1409.5,-159.167,o),
(1412.5,-157.5,cs),
(1415.5,-155.833,o),
(1419,-155,o),
(1423,-155,cs),
(1444.333,-155,o),
(1464,-177.333,o),
(1464,-208,cs),
(1464,-234.667,o),
(1450.667,-265,o),
(1416,-297,c),
(1338.667,-385,o),
(1248.667,-427,o),
(1158,-427,cs),
(992.424,-427,o),
(832.049,-287.093,o),
(747,-16,c),
(717.667,-20,o),
(690.333,-23,o),
(661,-23,cs),
(547.667,-23,o),
(435.167,7.167,o),
(350.5,82.5,cs),
(265.833,157.833,o),
(210,279,o),
(210,459,cs)
);
}
);
};
layerId = "DC66AB0F-19FD-4F06-8C39-5D32AA939720";
shapes = (
{
closed = 1;
nodes = (
(210,745,o),
(347,996,o),
(541,1170,cs),
(734,1345,o),
(968,1443,o),
(1163,1443,cs),
(1398,1443,o),
(1589,1337,o),
(1626,1112,cs),
(1627,1103,l),
(1627,1094,ls),
(1627,1042,o),
(1591,1014,o),
(1556,1014,cs),
(1517,1014,o),
(1485,1057,o),
(1454,1133,c),
(1405,1226,o),
(1306,1267,o),
(1189,1267,cs),
(1037,1267,o),
(854,1182,o),
(703,1038,cs),
(552,894,o),
(447,698,o),
(447,486,cs),
(447,367,o),
(479,288,o),
(527,237,cs),
(575,186,o),
(638,165,o),
(699,165,cs),
(704,165,l),
(700,180,o),
(698,196,o),
(698,209,cs),
(698,267,o),
(742,299,o),
(788,299,cs),
(829,299,o),
(872,273,o),
(889,220,c),
(1009,300,o),
(1091,402,o),
(1142,535,cs),
(1193,668,o),
(1214,834,o),
(1214,1042,cs),
(1214,1115,o),
(1252,1149,o),
(1293,1149,cs),
(1381,1149,o),
(1400,1022,o),
(1400,896,cs),
(1400,688,o),
(1346,505,o),
(1258,358,cs),
(1170,211,o),
(1049,100,o),
(916,37,c),
(939,-70,o),
(977,-140,o),
(1022,-184,cs),
(1067,-228,o),
(1119,-245,o),
(1174,-245,cs),
(1262,-245,o),
(1362,-203,o),
(1402,-163,c),
(1413,-157,l),
(1416,-156,o),
(1419,-155,o),
(1423,-155,cs),
(1444,-155,o),
(1464,-177,o),
(1464,-208,cs),
(1464,-235,o),
(1451,-265,o),
(1416,-297,c),
(1339,-385,o),
(1249,-427,o),
(1158,-427,cs),
(992,-427,o),
(832,-287,o),
(747,-16,c),
(718,-20,o),
(690,-23,o),
(661,-23,cs),
(548,-23,o),
(435,7,o),
(351,83,cs),
(266,158,o),
(210,279,o),
(210,459,cs)
);
}
);
width = 1315;
}
);
unicode = 81;
},
{
glyphname = R;
lastChange = "2024-04-18 13:22:10 +0000";
layers = (
{
anchors = (
{
name = bottom;
pos = (610,0);
},
{
name = top;
pos = (1070,1443);
}
);
background = {
shapes = (
{
closed = 1;
nodes = (
(711,650.333,o),
(715.167,650,o),
(719.5,650,cs),
(723.833,650,o),
(728.333,650,o),
(733,650,cs),
(964.021,650,o),
(1158,869.124,o),
(1158,1050,cs),
(1158,1114,o),
(1135.5,1173.333,o),
(1085.5,1216,cs),
(1035.5,1258.667,o),
(958,1286,o),
(850,1286,cs),
(728.667,1286,o),
(643.833,1261,o),
(580.5,1225,cs),
(517.167,1189,o),
(475.833,1140.333,o),
(444.5,1091,cs),
(389.738,1004.78,o),
(353.403,896,o),
(255,896,cs),
(188.333,896,o),
(155,931.667,o),
(155,993,cs),
(155,1079.208,o),
(227.547,1190.642,o),
(352,1282.5,cs),
(478.461,1375.84,o),
(659.798,1443,o),
(862,1443,cs),
(1137.664,1443,o),
(1380,1303.258,o),
(1380,1028,cs),
(1380,891.89,o),
(1300.731,766.687,o),
(1185.5,673.5,cs),
(1072.29,581.947,o),
(927.309,516.397,o),
(797,494,c),
(820.085,373.443,o),
(910.423,156.068,o),
(1018,148,cs),
(1023.333,147.333,o),
(1028.333,147,o),
(1033,147,cs),
(1037.667,147,o),
(1042.333,147,o),
(1047,147,cs),
(1144.333,147,o),
(1221.333,185.333,o),
(1272,224,cs),
(1302,246,o),
(1328,271.667,o),
(1350,301,cs),
(1370.667,324.333,o),
(1391.667,336,o),
(1413,336,cs),
(1439.667,336,o),
(1461,316,o),
(1461,284,cs),
(1461,253.333,o),
(1443.667,211,o),
(1397,167,cs),
(1259.667,37.667,o),
(1126.333,-19,o),
(1009,-19,cs),
(913,-19,o),
(831.667,39.667,o),
(765,133,cs),
(698.333,226.333,o),
(643.667,355.333,o),
(601,494,c),
(569.878,423.112,o),
(535.777,307.32,o),
(477,166.5,cs),
(428.713,50.813,o),
(364.079,-38,o),
(290,-38,cs),
(206.385,-38,o),
(187,20.647,o),
(187,64,cs),
(187,94.667,o),
(195.333,128,o),
(210,156,cs),
(505,696,ls),
(555.667,786.667,o),
(607.833,874.667,o),
(656.5,940,cs),
(705.167,1005.333,o),
(749.333,1048,o),
(784,1048,cs),
(806.006,1048,o),
(839,1035.969,o),
(839,986,cs),
(839,960.667,o),
(823,913.667,o),
(799,855,cs),
(775,796.333,o),
(741.667,724.333,o),
(707,651,c)
);
}
);
};
layerId = "DC66AB0F-19FD-4F06-8C39-5D32AA939720";
shapes = (
{
closed = 1;
nodes = (
(720,650,l),
(733,650,ls),
(964,650,o),
(1158,869,o),
(1158,1050,cs),
(1158,1114,o),
(1136,1173,o),
(1086,1216,cs),
(1036,1259,o),
(958,1286,o),
(850,1286,cs),
(729,1286,o),
(644,1261,o),
(581,1225,cs),
(517,1189,o),
(476,1140,o),
(445,1091,cs),
(390,1005,o),
(353,896,o),
(255,896,cs),
(188,896,o),
(155,932,o),
(155,993,cs),
(155,1079,o),
(228,1191,o),
(352,1283,cs),
(478,1376,o),
(660,1443,o),
(862,1443,cs),
(1138,1443,o),
(1380,1303,o),
(1380,1028,cs),
(1380,892,o),
(1301,767,o),
(1186,674,cs),
(1072,582,o),
(927,516,o),
(797,494,c),
(820,373,o),
(910,156,o),
(1018,148,cs),
(1033,147,l),
(1047,147,ls),
(1144,147,o),
(1221,185,o),
(1272,224,cs),
(1302,246,o),
(1328,272,o),
(1350,301,c),
(1371,324,o),
(1392,336,o),
(1413,336,cs),
(1440,336,o),
(1461,316,o),
(1461,284,cs),
(1461,253,o),
(1444,211,o),
(1397,167,cs),
(1260,38,o),
(1126,-19,o),
(1009,-19,cs),
(913,-19,o),
(832,40,o),
(765,133,cs),
(698,226,o),
(644,355,o),
(601,494,c),
(570,423,o),
(536,307,o),
(477,167,cs),
(429,51,o),
(364,-38,o),
(290,-38,cs),
(206,-38,o),
(187,21,o),
(187,64,cs),
(187,95,o),
(195,128,o),
(210,156,cs),
(505,696,ls),
(556,787,o),
(608,875,o),
(657,940,cs),
(705,1005,o),
(749,1048,o),
(784,1048,cs),
(806.006,1048,o),
(839,1036,o),
(839,986,cs),
(839,961,o),
(823,914,o),
(799,855,cs),
(775,796,o),
(742,724,o),
(707,651,c)
);
}
);
width = 1219;
}
);
unicode = 82;
},
{
glyphname = Rdblgrave;
lastChange = "2024-04-18 13:07:54 +0000";
layers = (
{
background = {
anchors = (
{
name = top;
pos = (953,2068);
}
);
shapes = (
{
closed = 1;
nodes = (
(711,650.333,o),
(715.167,650,o),
(719.5,650,cs),
(723.833,650,o),
(728.333,650,o),
(733,650,cs),
(964.021,650,o),
(1158,869.124,o),
(1158,1050,cs),
(1158,1114,o),
(1135.5,1173.333,o),
(1085.5,1216,cs),
(1035.5,1258.667,o),
(958,1286,o),
(850,1286,cs),
(728.667,1286,o),
(643.833,1261,o),
(580.5,1225,cs),
(517.167,1189,o),
(475.833,1140.333,o),
(444.5,1091,cs),
(389.738,1004.78,o),
(353.403,896,o),
(255,896,cs),
(188.333,896,o),
(155,931.667,o),
(155,993,cs),
(155,1079.208,o),
(227.547,1190.642,o),
(352,1282.5,cs),
(478.461,1375.84,o),
(659.798,1443,o),
(862,1443,cs),
(1137.664,1443,o),
(1380,1303.258,o),
(1380,1028,cs),
(1380,891.89,o),
(1300.731,766.687,o),
(1185.5,673.5,cs),
(1072.29,581.947,o),
(927.309,516.397,o),
(797,494,c),
(820.085,373.443,o),
(910.423,156.068,o),
(1018,148,cs),
(1023.333,147.333,o),
(1028.333,147,o),
(1033,147,cs),
(1037.667,147,o),
(1042.333,147,o),
(1047,147,cs),
(1144.333,147,o),
(1221.333,185.333,o),
(1272,224,cs),
(1302,246,o),
(1328,271.667,o),
(1350,301,cs),
(1370.667,324.333,o),
(1391.667,336,o),
(1413,336,cs),
(1439.667,336,o),
(1461,316,o),
(1461,284,cs),
(1461,253.333,o),
(1443.667,211,o),
(1397,167,cs),
(1259.667,37.667,o),
(1126.333,-19,o),
(1009,-19,cs),
(913,-19,o),
(831.667,39.667,o),
(765,133,cs),
(698.333,226.333,o),
(643.667,355.333,o),
(601,494,c),
(569.878,423.112,o),
(535.777,307.32,o),
(477,166.5,cs),
(428.713,50.813,o),
(364.079,-38,o),
(290,-38,cs),
(206.385,-38,o),
(187,20.647,o),
(187,64,cs),
(187,94.667,o),
(195.333,128,o),
(210,156,cs),
(505,696,ls),
(555.667,786.667,o),
(607.833,874.667,o),
(656.5,940,cs),
(705.167,1005.333,o),
(749.333,1048,o),
(784,1048,cs),
(806.006,1048,o),
(839,1035.969,o),
(839,986,cs),
(839,960.667,o),
(823,913.667,o),
(799,855,cs),
(775,796.333,o),
(741.667,724.333,o),
(707,651,c)
);
},
{
closed = 1;
nodes = (
(915,1680,o),
(919,1662,o),
(919,1647,cs),
(919,1606,o),
(900,1587,o),
(875,1587,cs),
(848,1587,o),
(814,1610,o),
(791,1655,cs),
(768,1697,o),
(744,1739,o),
(720,1780,cs),
(696,1821,o),
(672,1863,o),
(649,1905,cs),
(636,1928,o),
(631,1947,o),
(631,1968,cs),
(631,2027,o),
(675,2068,o),
(724,2068,cs),
(767,2068,o),
(813,2037,o),
(840,1953,cs),
(863,1869,o),
(886,1787,o),
(910,1703,cs)
);
},
{
closed = 1;
nodes = (
(1271,1680,o),
(1275,1662,o),
(1275,1647,cs),
(1275,1606,o),
(1256,1587,o),
(1231,1587,cs),
(1204,1587,o),
(1170,1610,o),
(1147,1655,cs),
(1124,1697,o),
(1100,1739,o),
(1076,1780,cs),
(1052,1821,o),
(1028,1863,o),
(1005,1905,cs),
(992,1928,o),
(987,1947,o),
(987,1968,cs),
(987,2027,o),
(1031,2068,o),
(1080,2068,cs),
(1123,2068,o),
(1169,2037,o),
(1196,1953,cs),
(1219,1869,o),
(1242,1787,o),
(1266,1703,cs)
);
}
);
};
layerId = "DC66AB0F-19FD-4F06-8C39-5D32AA939720";
shapes = (
{
alignment = -1;
ref = R;
},
{
alignment = -1;
pos = (-66,761);
ref = dblgravecomb;
}
);
width = 1219;
}
);
unicode = 528;
},
{
glyphname = Rinvertedbreve;
lastChange = "2024-04-18 13:07:54 +0000";
layers = (
{
background = {
anchors = (
{
name = top;
pos = (1071,1821);
}
);
shapes = (
{
closed = 1;
nodes = (
(711,650.333,o),
(715.167,650,o),
(719.5,650,cs),
(723.833,650,o),
(728.333,650,o),
(733,650,cs),
(964.021,650,o),
(1158,869.124,o),
(1158,1050,cs),
(1158,1114,o),
(1135.5,1173.333,o),
(1085.5,1216,cs),
(1035.5,1258.667,o),
(958,1286,o),
(850,1286,cs),
(728.667,1286,o),
(643.833,1261,o),
(580.5,1225,cs),
(517.167,1189,o),
(475.833,1140.333,o),
(444.5,1091,cs),
(389.738,1004.78,o),
(353.403,896,o),
(255,896,cs),
(188.333,896,o),
(155,931.667,o),
(155,993,cs),
(155,1079.208,o),
(227.547,1190.642,o),
(352,1282.5,cs),
(478.461,1375.84,o),
(659.798,1443,o),
(862,1443,cs),
(1137.664,1443,o),
(1380,1303.258,o),
(1380,1028,cs),
(1380,891.89,o),
(1300.731,766.687,o),
(1185.5,673.5,cs),
(1072.29,581.947,o),
(927.309,516.397,o),
(797,494,c),
(820.085,373.443,o),
(910.423,156.068,o),
(1018,148,cs),
(1023.333,147.333,o),
(1028.333,147,o),
(1033,147,cs),
(1037.667,147,o),
(1042.333,147,o),
(1047,147,cs),
(1144.333,147,o),
(1221.333,185.333,o),
(1272,224,cs),
(1302,246,o),
(1328,271.667,o),
(1350,301,cs),
(1370.667,324.333,o),
(1391.667,336,o),
(1413,336,cs),
(1439.667,336,o),
(1461,316,o),
(1461,284,cs),
(1461,253.333,o),
(1443.667,211,o),
(1397,167,cs),
(1259.667,37.667,o),
(1126.333,-19,o),
(1009,-19,cs),
(913,-19,o),
(831.667,39.667,o),
(765,133,cs),
(698.333,226.333,o),
(643.667,355.333,o),
(601,494,c),
(569.878,423.112,o),
(535.777,307.32,o),
(477,166.5,cs),
(428.713,50.813,o),
(364.079,-38,o),
(290,-38,cs),
(206.385,-38,o),
(187,20.647,o),
(187,64,cs),
(187,94.667,o),
(195.333,128,o),
(210,156,cs),
(505,696,ls),
(555.667,786.667,o),
(607.833,874.667,o),
(656.5,940,cs),
(705.167,1005.333,o),
(749.333,1048,o),
(784,1048,cs),
(806.006,1048,o),
(839,1035.969,o),
(839,986,cs),
(839,960.667,o),
(823,913.667,o),
(799,855,cs),
(775,796.333,o),
(741.667,724.333,o),
(707,651,c)
);
},
{
closed = 1;
nodes = (
(1285,1608,o),
(1251,1595,o),
(1222,1595,cs),
(1197,1595,o),
(1177,1604,o),
(1177,1623,cs),
(1177,1627,o),
(1178,1632,o),
(1179,1637,cs),
(1180,1642,o),
(1181,1646,o),
(1181,1650,cs),
(1181,1685,o),
(1153,1710,o),
(1092,1710,cs),
(1019,1710,o),
(969,1670,o),
(958,1627,cs),
(943,1579,o),
(842,1578,o),
(842,1621,cs),
(842,1622,o),
(843,1626,o),
(844,1631,cs),
(874,1736,o),
(1010,1821,o),
(1124,1821,cs),
(1237,1821,o),
(1299,1760,o),
(1299,1680,cs),
(1299,1663,o),
(1297,1647,o),
(1292,1631,cs)
);
}
);
};
layerId = "DC66AB0F-19FD-4F06-8C39-5D32AA939720";
shapes = (
{
alignment = -1;
ref = R;
},
{
alignment = -1;
pos = (271,757);
ref = breveinvertedcomb;
}
);
width = 1219;
}
);
unicode = 530;
},
{
glyphname = S;
lastChange = "2024-04-18 13:16:46 +0000";
layers = (
{
anchors = (
{
name = bottom;
pos = (598,0);
},
{
name = top;
pos = (1198,1440);
}
);
background = {
shapes = (
{
closed = 1;
nodes = (
(573.667,557,o),
(591,520,o),
(591,480,cs),
(591,441.368,o),
(579.788,424.828,o),
(513,397,cs),
(438.333,365,o),
(393,317,o),
(393,273,cs),
(393,216.589,o),
(465.344,168,o),
(643,168,cs),
(826.437,168,o),
(984,261.888,o),
(984,391,cs),
(984,439,o),
(945.667,491,o),
(859,547,cs),
(782.333,597,o),
(724.167,637.333,o),
(684.5,668,cs),
(644.833,698.667,o),
(620.333,718,o),
(611,726,cs),
(511,814,o),
(462,892,o),
(462,980,cs),
(462,1099.671,o),
(554.555,1214.872,o),
(686.5,1302.5,cs),
(818.545,1390.194,o),
(977.718,1443,o),
(1105,1443,cs),
(1236.412,1443,o),
(1334,1385.223,o),
(1334,1248,cs),
(1334,1148,o),
(1277.333,1056.667,o),
(1160,978,cs),
(1134,960,o),
(1110,951,o),
(1088,951,cs),
(1042.667,951,o),
(1014,989,o),
(1014,1033,cs),
(1014,1070.333,o),
(1034.667,1110.333,o),
(1084,1137,cs),
(1122.667,1157,o),
(1158,1195,o),
(1158,1227,cs),
(1158,1257.667,o),
(1134.333,1264,o),
(1105,1264,cs),
(1021.843,1264,o),
(911.817,1232.17,o),
(818.5,1182,cs),
(720.093,1129.093,o),
(658,1062.741,o),
(658,1002,cs),
(658,945.321,o),
(706.599,902.565,o),
(794,839,cs),
(1028,666,ls),
(1143.434,581.348,o),
(1218,502.626,o),
(1218,407,cs),
(1218,194.669,o),
(986.927,-20,o),
(636,-20,cs),
(473.333,-20,o),
(361.333,7.833,o),
(288,52.5,cs),
(214.667,97.167,o),
(183,157,o),
(183,221,cs),
(183,287.667,o),
(218.5,358.667,o),
(280.5,420,cs),
(342.5,481.333,o),
(431,531.667,o),
(535,557,c)
);
}
);
};
layerId = "DC66AB0F-19FD-4F06-8C39-5D32AA939720";
shapes = (
{
closed = 1;
nodes = (
(574,557,o),
(591,520,o),
(591,480,cs),
(591,441,o),
(580,425,o),
(513,397,cs),
(438,365,o),
(393,317,o),
(393,273,cs),
(393,217,o),
(465,168,o),
(643,168,cs),
(826,168,o),
(984,262,o),
(984,391,cs),
(984,439,o),
(946,491,o),
(859,547,cs),
(782,597,o),
(724,637,o),
(685,668,cs),
(611,726,l),
(511,814,o),
(462,892,o),
(462,980,cs),
(462,1100,o),
(555,1215,o),
(687,1303,cs),
(819,1390,o),
(978,1443,o),
(1105,1443,cs),
(1236,1443,o),
(1334,1385,o),
(1334,1248,cs),
(1334,1148,o),
(1277,1057,o),
(1160,978,cs),
(1134,960,o),
(1110,951,o),
(1088,951,cs),
(1043,951,o),
(1014,989,o),
(1014,1033,cs),
(1014,1070,o),
(1035,1110,o),
(1084,1137,cs),
(1123,1157,o),
(1158,1195,o),
(1158,1227,cs),
(1158,1258,o),
(1134,1264,o),
(1105,1264,cs),
(1022,1264,o),
(912,1232,o),
(819,1182,cs),
(720,1129,o),
(658,1063,o),
(658,1002,cs),
(658,945,o),
(707,903,o),
(794,839,cs),
(1028,666,ls),
(1143,581,o),
(1218,503,o),
(1218,407,cs),
(1218,195,o),
(987,-20,o),
(636,-20,cs),
(473,-20,o),
(361,8,o),
(288,53,cs),
(215,97,o),
(183,157,o),
(183,221,cs),
(183,288,o),
(219,359,o),
(281,420,cs),
(343,481,o),
(431,532,o),
(535,557,c)
);
}
);
width = 1196;
}
);
unicode = 83;
},
{
glyphname = Scaron;
lastChange = "2024-04-18 13:16:46 +0000";
layers = (
{
background = {
anchors = (
{
name = top;
pos = (1200,1935);
}
);
shapes = (
{
closed = 1;
nodes = (
(573.667,557,o),
(591,520,o),
(591,480,cs),
(591,441.368,o),
(579.788,424.828,o),
(513,397,cs),
(438.333,365,o),
(393,317,o),
(393,273,cs),
(393,216.589,o),
(465.344,168,o),
(643,168,cs),
(826.437,168,o),
(984,261.888,o),
(984,391,cs),
(984,439,o),
(945.667,491,o),
(859,547,cs),
(782.333,597,o),
(724.167,637.333,o),
(684.5,668,cs),
(644.833,698.667,o),
(620.333,718,o),
(611,726,cs),
(511,814,o),
(462,892,o),
(462,980,cs),
(462,1099.671,o),
(554.555,1214.872,o),
(686.5,1302.5,cs),
(818.545,1390.194,o),
(977.718,1443,o),
(1105,1443,cs),
(1236.412,1443,o),
(1334,1385.223,o),
(1334,1248,cs),
(1334,1148,o),
(1277.333,1056.667,o),
(1160,978,cs),
(1134,960,o),
(1110,951,o),
(1088,951,cs),
(1042.667,951,o),
(1014,989,o),
(1014,1033,cs),
(1014,1070.333,o),
(1034.667,1110.333,o),
(1084,1137,cs),
(1122.667,1157,o),
(1158,1195,o),
(1158,1227,cs),
(1158,1257.667,o),
(1134.333,1264,o),
(1105,1264,cs),
(1021.843,1264,o),
(911.817,1232.17,o),
(818.5,1182,cs),
(720.093,1129.093,o),
(658,1062.741,o),
(658,1002,cs),
(658,945.321,o),
(706.599,902.565,o),
(794,839,cs),
(1028,666,ls),
(1143.434,581.348,o),
(1218,502.626,o),
(1218,407,cs),
(1218,194.669,o),
(986.927,-20,o),
(636,-20,cs),
(473.333,-20,o),
(361.333,7.833,o),
(288,52.5,cs),
(214.667,97.167,o),
(183,157,o),
(183,221,cs),
(183,287.667,o),
(218.5,358.667,o),
(280.5,420,cs),
(342.5,481.333,o),
(431,531.667,o),
(535,557,c)
);
},
{
closed = 1;
nodes = (
(1324,1738,o),
(1233,1662,o),
(1187,1627,cs),
(1143,1594,o),
(1127,1586,o),
(1095,1586,cs),
(1059,1586,o),
(1042,1601,o),
(1022,1644,cs),
(1003,1685,o),
(974,1772,o),
(935,1867,cs),
(932,1874,o),
(931,1878,o),
(931,1881,cs),
(931,1914,o),
(983,1935,o),
(1020,1935,cs),
(1048,1935,o),
(1077,1926,o),
(1085,1903,cs),
(1089,1892,o),
(1094,1878,o),
(1101,1860,cs),
(1108,1842,o),
(1114,1824,o),
(1121,1807,cs),
(1127,1789,o),
(1133,1774,o),
(1138,1761,cs),
(1146,1742,l),
(1171,1764,o),
(1196,1785,o),
(1219,1806,cs),
(1239,1823,o),
(1259,1841,o),
(1280,1859,cs),
(1301,1877,o),
(1318,1892,o),
(1331,1903,cs),
(1349,1918,o),
(1368,1926,o),
(1387,1926,cs),
(1427,1926,o),
(1469,1902,o),
(1469,1874,cs),
(1469,1863,o),
(1464,1854,o),
(1455,1846,cs)
);
}
);
};
layerId = "DC66AB0F-19FD-4F06-8C39-5D32AA939720";
shapes = (
{
ref = S;
},
{
pos = (48,720);
ref = caroncomb;
}
);
width = 1196;
}
);
unicode = 352;
},
{
glyphname = Scommaaccent;
lastChange = "2024-04-18 13:07:54 +0000";
layers = (
{
background = {
shapes = (
{
closed = 1;
nodes = (
(573.667,557,o),
(591,520,o),
(591,480,cs),
(591,441.368,o),
(579.788,424.828,o),
(513,397,cs),
(438.333,365,o),
(393,317,o),
(393,273,cs),
(393,216.589,o),
(465.344,168,o),
(643,168,cs),
(826.437,168,o),
(984,261.888,o),
(984,391,cs),
(984,439,o),
(945.667,491,o),
(859,547,cs),
(782.333,597,o),
(724.167,637.333,o),
(684.5,668,cs),
(644.833,698.667,o),
(620.333,718,o),
(611,726,cs),
(511,814,o),
(462,892,o),
(462,980,cs),
(462,1099.671,o),
(554.555,1214.872,o),
(686.5,1302.5,cs),
(818.545,1390.194,o),
(977.718,1443,o),
(1105,1443,cs),
(1236.412,1443,o),
(1334,1385.223,o),
(1334,1248,cs),
(1334,1148,o),
(1277.333,1056.667,o),
(1160,978,cs),
(1134,960,o),
(1110,951,o),
(1088,951,cs),
(1042.667,951,o),
(1014,989,o),
(1014,1033,cs),
(1014,1070.333,o),
(1034.667,1110.333,o),
(1084,1137,cs),
(1122.667,1157,o),
(1158,1195,o),
(1158,1227,cs),
(1158,1257.667,o),
(1134.333,1264,o),
(1105,1264,cs),
(1021.843,1264,o),
(911.817,1232.17,o),
(818.5,1182,cs),
(720.093,1129.093,o),
(658,1062.741,o),
(658,1002,cs),
(658,945.321,o),
(706.599,902.565,o),
(794,839,cs),
(1028,666,ls),
(1143.434,581.348,o),
(1218,502.626,o),
(1218,407,cs),
(1218,194.669,o),
(986.927,-20,o),
(636,-20,cs),
(473.333,-20,o),
(361.333,7.833,o),
(288,52.5,cs),
(214.667,97.167,o),
(183,157,o),
(183,221,cs),
(183,287.667,o),
(218.5,358.667,o),
(280.5,420,cs),
(342.5,481.333,o),
(431,531.667,o),
(535,557,c)
);
},
{
closed = 1;
nodes = (
(633,-256,o),
(580,-333,o),
(529,-408,cs),
(477,-483,o),
(425,-560,o),
(372,-639,cs),
(349,-671,o),
(323,-685,o),
(300,-685,cs),
(280,-685,o),
(265,-675,o),
(265,-656,cs),
(265,-649,o),
(266,-644,o),
(269,-639,c),
(298,-560,o),
(326,-483,o),
(353,-408,cs),
(380,-333,o),
(407,-256,o),
(436,-177,cs),
(458,-118,o),
(529,-92,o),
(588,-92,cs),
(644,-92,o),
(693,-114,o),
(693,-151,cs),
(693,-160,o),
(691,-168,o),
(686,-177,c)
);
}
);
};
layerId = "DC66AB0F-19FD-4F06-8C39-5D32AA939720";
shapes = (
{
alignment = -1;
ref = S;
},
{
alignment = -1;
pos = (84,-410);
ref = comma;
}
);
width = 1196;
}
);
unicode = 536;
},
{
glyphname = T;
lastChange = "2024-04-18 14:08:51 +0000";
layers = (
{
anchors = (
{
name = bottom;
pos = (508,0);
},
{
name = center;
pos = (508,720);
},
{
name = top;
pos = (1108,1440);
}
);
background = {
shapes = (
{
closed = 1;
nodes = (
(488.538,-33.923,o),
(412.56,-74,o),
(352,-74,cs),
(309.333,-74,o),
(276,-51.667,o),
(276,-9,cs),
(276,5.667,o),
(278.333,23.667,o),
(289,45,cs),
(390.333,254.333,o),
(492.5,450,o),
(586.5,618,cs),
(633.5,702,o),
(678,778.5,o),
(720,847.5,cs),
(842.411,1048.604,o),
(941.325,1178,o),
(976,1178,cs),
(1022.667,1178,o),
(1045,1147,o),
(1045,1111,cs),
(1045,1096.333,o),
(1041.333,1081.667,o),
(1034,1067,cs),
(964.048,924.297,o),
(860.147,711.359,o),
(763,510.5,cs),
(674.374,327.261,o),
(562.283,103.165,o),
(529,47,c)
);
},
{
closed = 1;
nodes = (
(1698,1165.93,o),
(1621.362,1026,o),
(1511,1026,cs),
(1476.736,1026,o),
(1422,1035.123,o),
(1422,1081,cs),
(1422,1106.026,o),
(1479,1176.737,o),
(1479,1209,cs),
(1479,1231.667,o),
(1463,1248.167,o),
(1431,1258.5,cs),
(1399,1268.833,o),
(1345.333,1274,o),
(1270,1274,cs),
(1055.019,1266.39,o),
(891.059,1241.867,o),
(754,1203,cs),
(664.667,1177.667,o),
(579.167,1149.167,o),
(490.5,1116.5,cs),
(446.167,1100.167,o),
(399,1083.667,o),
(349,1067,cs),
(344.333,1065.667,o),
(339.833,1064.333,o),
(335.5,1063,cs),
(331.167,1061.667,o),
(327.333,1061,o),
(324,1061,cs),
(281.578,1061,o),
(252,1103.3,o),
(252,1145,cs),
(252,1196.258,o),
(378.052,1268.926,o),
(581,1333.5,cs),
(780.738,1397.053,o),
(1035.061,1443,o),
(1282,1443,cs),
(1567.339,1443,o),
(1695.333,1347.664,o),
(1698,1217,cs)
);
}
);
};
layerId = "DC66AB0F-19FD-4F06-8C39-5D32AA939720";
shapes = (
{
closed = 1;
nodes = (
(489,-34,o),
(413,-74,o),
(352,-74,cs),
(309,-74,o),
(276,-52,o),
(276,-9,cs),
(276,6,o),
(278,24,o),
(289,45,cs),
(390,254,o),
(493,450,o),
(587,618,cs),
(634,702,o),
(678,779,o),
(720,848,cs),
(842,1049,o),
(941,1178,o),
(976,1178,cs),
(1023,1178,o),
(1045,1147,o),
(1045,1111,cs),
(1045,1096,o),
(1041,1082,o),
(1034,1067,cs),
(763,511,ls),
(674,327,o),
(562,103,o),
(529,47,c)
);
},
{
closed = 1;
nodes = (
(1698,1166,o),
(1621,1026,o),
(1511,1026,cs),
(1477,1026,o),
(1422,1035,o),
(1422,1081,cs),
(1422,1106,o),
(1479,1177,o),
(1479,1209,cs),
(1479,1232,o),
(1463,1248,o),
(1431,1259,cs),
(1399,1269,o),
(1345,1274,o),
(1270,1274,cs),
(1055,1266,o),
(891,1242,o),
(754,1203,cs),
(665,1178,o),
(579,1149,o),
(491,1117,cs),
(446,1100,o),
(399,1084,o),
(349,1067,cs),
(336,1063,ls),
(331,1062,o),
(327,1061,o),
(324,1061,cs),
(282,1061,o),
(252,1103,o),
(252,1145,cs),
(252,1196,o),
(378,1269,o),
(581,1334,cs),
(781,1397,o),
(1035,1443,o),
(1282,1443,cs),
(1567,1443,o),
(1695,1348,o),
(1698,1217,cs)
);
}
);
width = 1015;
}
);
unicode = 84;
},
{
glyphname = Tcommaaccent;
lastChange = "2024-04-18 13:07:54 +0000";
layers = (
{
background = {
shapes = (
{
closed = 1;
nodes = (
(488.538,-33.923,o),
(412.56,-74,o),
(352,-74,cs),
(309.333,-74,o),
(276,-51.667,o),
(276,-9,cs),
(276,5.667,o),
(278.333,23.667,o),
(289,45,cs),
(390.333,254.333,o),
(492.5,450,o),
(586.5,618,cs),
(633.5,702,o),
(678,778.5,o),
(720,847.5,cs),
(842.411,1048.604,o),
(941.325,1178,o),
(976,1178,cs),
(1022.667,1178,o),
(1045,1147,o),
(1045,1111,cs),
(1045,1096.333,o),
(1041.333,1081.667,o),
(1034,1067,cs),
(964.048,924.297,o),
(860.147,711.359,o),
(763,510.5,cs),
(674.374,327.261,o),
(562.283,103.165,o),
(529,47,c)
);
},
{
closed = 1;
nodes = (
(1698,1165.93,o),
(1621.362,1026,o),
(1511,1026,cs),
(1476.736,1026,o),
(1422,1035.123,o),
(1422,1081,cs),
(1422,1106.026,o),
(1479,1176.737,o),
(1479,1209,cs),
(1479,1231.667,o),
(1463,1248.167,o),
(1431,1258.5,cs),
(1399,1268.833,o),
(1345.333,1274,o),
(1270,1274,cs),
(1055.019,1266.39,o),
(891.059,1241.867,o),
(754,1203,cs),
(664.667,1177.667,o),
(579.167,1149.167,o),
(490.5,1116.5,cs),
(446.167,1100.167,o),
(399,1083.667,o),
(349,1067,cs),
(344.333,1065.667,o),
(339.833,1064.333,o),
(335.5,1063,cs),
(331.167,1061.667,o),
(327.333,1061,o),
(324,1061,cs),
(281.578,1061,o),
(252,1103.3,o),
(252,1145,cs),
(252,1196.258,o),
(378.052,1268.926,o),
(581,1333.5,cs),
(780.738,1397.053,o),
(1035.061,1443,o),
(1282,1443,cs),
(1567.339,1443,o),
(1695.333,1347.664,o),
(1698,1217,cs)
);
},
{
closed = 1;
nodes = (
(347,-318,o),
(294,-395,o),
(243,-470,cs),
(191,-545,o),
(139,-622,o),
(86,-701,cs),
(63,-733,o),
(37,-747,o),
(14,-747,cs),
(-6,-747,o),
(-21,-737,o),
(-21,-718,cs),
(-21,-711,o),
(-20,-706,o),
(-17,-701,c),
(12,-622,o),
(40,-545,o),
(67,-470,cs),
(94,-395,o),
(121,-318,o),
(150,-239,cs),
(172,-180,o),
(243,-154,o),
(302,-154,cs),
(358,-154,o),
(407,-176,o),
(407,-213,cs),
(407,-222,o),
(405,-230,o),
(400,-239,c)
);
}
);
};
layerId = "DC66AB0F-19FD-4F06-8C39-5D32AA939720";
shapes = (
{
alignment = -1;
ref = T;
},
{
alignment = -1;
pos = (-202,-472);
ref = comma;
}
);
width = 1015;
}
);
unicode = 538;
},
{
glyphname = U;
lastChange = "2024-04-18 13:59:20 +0000";
layers = (
{
anchors = (
{
name = bottom;
pos = (598,0);
},
{
name = ogonek;
pos = (826,10);
},
{
name = top;
pos = (1008,1440);
},
{
name = topright;
pos = (1175,1440);
}
);
background = {
shapes = (
{
closed = 1;
nodes = (
(609.667,1424.333,o),
(655.667,1443,o),
(697,1443,cs),
(742.308,1443,o),
(783,1426.352,o),
(783,1369,cs),
(783,1334.333,o),
(769.333,1291,o),
(736,1227,cs),
(602.667,991,o),
(513.667,723.333,o),
(459,462,cs),
(453.667,428.667,o),
(453,398,o),
(453,370,cs),
(453,215.664,o),
(538.159,157,o),
(622,157,cs),
(772.667,157,o),
(915.833,269.5,o),
(1024.5,467.5,cs),
(1133.167,665.5,o),
(1206.333,947.667,o),
(1217,1289,cs),
(1219.685,1361.489,o),
(1267.509,1396,o),
(1320,1396,cs),
(1385,1396,o),
(1400,1292.319,o),
(1400,1184,cs),
(1400,948,o),
(1354,734.833,o),
(1278,555.5,cs),
(1240,465.833,o),
(1195.167,385.167,o),
(1143.5,313.5,cs),
(987.612,97.269,o),
(782.729,-26,o),
(585,-26,cs),
(420.749,-26,o),
(236,114.029,o),
(236,362,cs),
(236,384.667,o),
(237,409.667,o),
(241,435,cs),
(266.289,584.786,o),
(298.456,712.738,o),
(350,855,cs),
(402.68,1000.398,o),
(474.177,1153.353,o),
(575,1355,cs)
);
}
);
};
layerId = "DC66AB0F-19FD-4F06-8C39-5D32AA939720";
shapes = (
{
closed = 1;
nodes = (
(610,1424,o),
(656,1443,o),
(697,1443,cs),
(742,1443,o),
(783,1426,o),
(783,1369,cs),
(783,1334,o),
(769,1291,o),
(736,1227,cs),
(603,991,o),
(514,723,o),
(459,462,c),
(454,429,o),
(453,398,o),
(453,370,cs),
(453,216,o),
(538,157,o),
(622,157,cs),
(773,157,o),
(916,270,o),
(1025,468,cs),
(1133,666,o),
(1206,948,o),
(1217,1289,cs),
(1220,1361,o),
(1268,1396,o),
(1320,1396,cs),
(1385,1396,o),
(1400,1292,o),
(1400,1184,cs),
(1400,948,o),
(1354,735,o),
(1278,556,cs),
(1240,466,o),
(1195,385,o),
(1144,314,cs),
(988,97,o),
(783,-26,o),
(585,-26,cs),
(421,-26,o),
(236,114,o),
(236,362,cs),
(236,385,o),
(237,410,o),
(241,435,cs),
(266,585,o),
(298,713,o),
(350,855,cs),
(403,1000,o),
(474,1153,o),
(575,1355,cs)
);
}
);
width = 1195;
}
);
unicode = 85;
},
{
glyphname = Uacute;
lastChange = "2024-04-18 13:16:57 +0000";
layers = (
{
background = {
anchors = (
{
name = top;
pos = (1191,1923);
}
);
shapes = (
{
closed = 1;
nodes = (
(609.667,1424.333,o),
(655.667,1443,o),
(697,1443,cs),
(742.308,1443,o),
(783,1426.352,o),
(783,1369,cs),
(783,1334.333,o),
(769.333,1291,o),
(736,1227,cs),
(602.667,991,o),
(513.667,723.333,o),
(459,462,cs),
(453.667,428.667,o),
(453,398,o),
(453,370,cs),
(453,215.664,o),
(538.159,157,o),
(622,157,cs),
(772.667,157,o),
(915.833,269.5,o),
(1024.5,467.5,cs),
(1133.167,665.5,o),
(1206.333,947.667,o),
(1217,1289,cs),
(1219.685,1361.489,o),
(1267.509,1396,o),
(1320,1396,cs),
(1385,1396,o),
(1400,1292.319,o),
(1400,1184,cs),
(1400,948,o),
(1354,734.833,o),
(1278,555.5,cs),
(1240,465.833,o),
(1195.167,385.167,o),
(1143.5,313.5,cs),
(987.612,97.269,o),
(782.729,-26,o),
(585,-26,cs),
(420.749,-26,o),
(236,114.029,o),
(236,362,cs),
(236,384.667,o),
(237,409.667,o),
(241,435,cs),
(266.289,584.786,o),
(298.456,712.738,o),
(350,855,cs),
(402.68,1000.398,o),
(474.177,1153.353,o),
(575,1355,cs)
);
},
{
closed = 1;
nodes = (
(1049,1600,o),
(1073,1642,o),
(1098,1683,cs),
(1122,1724,o),
(1146,1766,o),
(1169,1808,cs),
(1220,1892,o),
(1276,1923,o),
(1319,1923,cs),
(1359,1923,o),
(1387,1895,o),
(1387,1854,cs),
(1387,1827,o),
(1377,1795,o),
(1346,1760,cs),
(1310,1718,o),
(1274,1676,o),
(1238,1635,cs),
(1201,1594,o),
(1165,1552,o),
(1129,1510,cs),
(1094,1465,o),
(1052,1442,o),
(1025,1442,cs),
(1004,1442,o),
(994,1453,o),
(994,1474,cs),
(994,1493,o),
(1004,1521,o),
(1025,1558,cs)
);
}
);
};
layerId = "DC66AB0F-19FD-4F06-8C39-5D32AA939720";
shapes = (
{
ref = U;
},
{
pos = (297,720);
ref = acutecomb;
}
);
width = 1195;
}
);
unicode = 218;
},
{
glyphname = Ucircumflex;
lastChange = "2024-04-18 13:16:57 +0000";
layers = (
{
background = {
anchors = (
{
name = top;
pos = (1105,1950);
}
);
shapes = (
{
closed = 1;
nodes = (
(609.667,1424.333,o),
(655.667,1443,o),
(697,1443,cs),
(742.308,1443,o),
(783,1426.352,o),
(783,1369,cs),
(783,1334.333,o),
(769.333,1291,o),
(736,1227,cs),
(602.667,991,o),
(513.667,723.333,o),
(459,462,cs),
(453.667,428.667,o),
(453,398,o),
(453,370,cs),
(453,215.664,o),
(538.159,157,o),
(622,157,cs),
(772.667,157,o),
(915.833,269.5,o),
(1024.5,467.5,cs),
(1133.167,665.5,o),
(1206.333,947.667,o),
(1217,1289,cs),
(1219.685,1361.489,o),
(1267.509,1396,o),
(1320,1396,cs),
(1385,1396,o),
(1400,1292.319,o),
(1400,1184,cs),
(1400,948,o),
(1354,734.833,o),
(1278,555.5,cs),
(1240,465.833,o),
(1195.167,385.167,o),
(1143.5,313.5,cs),
(987.612,97.269,o),
(782.729,-26,o),
(585,-26,cs),
(420.749,-26,o),
(236,114.029,o),
(236,362,cs),
(236,384.667,o),
(237,409.667,o),
(241,435,cs),
(266.289,584.786,o),
(298.456,712.738,o),
(350,855,cs),
(402.68,1000.398,o),
(474.177,1153.353,o),
(575,1355,cs)
);
},
{
closed = 1;
nodes = (
(973,1798,o),
(1057,1874,o),
(1100,1909,cs),
(1141,1942,o),
(1157,1950,o),
(1189,1950,cs),
(1261,1950,o),
(1263,1888,o),
(1371,1669,cs),
(1373,1664,o),
(1374,1659,o),
(1374,1654,cs),
(1374,1622,o),
(1328,1601,o),
(1290,1601,cs),
(1261,1601,o),
(1234,1610,o),
(1223,1633,cs),
(1218,1644,o),
(1212,1658,o),
(1204,1677,cs),
(1196,1695,o),
(1188,1713,o),
(1180,1730,cs),
(1171,1751,o),
(1161,1772,o),
(1150,1794,c),
(1126,1772,o),
(1103,1751,o),
(1081,1730,cs),
(1062,1713,o),
(1043,1695,o),
(1024,1677,cs),
(1005,1658,o),
(989,1644,o),
(977,1633,cs),
(960,1618,o),
(941,1610,o),
(922,1610,cs),
(877,1610,o),
(836,1636,o),
(836,1664,cs),
(836,1673,o),
(840,1682,o),
(849,1690,cs)
);
}
);
};
layerId = "DC66AB0F-19FD-4F06-8C39-5D32AA939720";
shapes = (
{
ref = U;
},
{
pos = (430,720);
ref = circumflexcomb;
}
);
width = 1195;
}
);
unicode = 219;
},
{
glyphname = Udblgrave;
lastChange = "2024-04-18 13:07:54 +0000";
layers = (
{
background = {
anchors = (
{
name = top;
pos = (949,1987);
}
);
shapes = (
{
closed = 1;
nodes = (
(609.667,1424.333,o),
(655.667,1443,o),
(697,1443,cs),
(742.308,1443,o),
(783,1426.352,o),
(783,1369,cs),
(783,1334.333,o),
(769.333,1291,o),
(736,1227,cs),
(602.667,991,o),
(513.667,723.333,o),
(459,462,cs),
(453.667,428.667,o),
(453,398,o),
(453,370,cs),
(453,215.664,o),
(538.159,157,o),
(622,157,cs),
(772.667,157,o),
(915.833,269.5,o),
(1024.5,467.5,cs),
(1133.167,665.5,o),
(1206.333,947.667,o),
(1217,1289,cs),
(1219.685,1361.489,o),
(1267.509,1396,o),
(1320,1396,cs),
(1385,1396,o),
(1400,1292.319,o),
(1400,1184,cs),
(1400,948,o),
(1354,734.833,o),
(1278,555.5,cs),
(1240,465.833,o),
(1195.167,385.167,o),
(1143.5,313.5,cs),
(987.612,97.269,o),
(782.729,-26,o),
(585,-26,cs),
(420.749,-26,o),
(236,114.029,o),
(236,362,cs),
(236,384.667,o),
(237,409.667,o),
(241,435,cs),
(266.289,584.786,o),
(298.456,712.738,o),
(350,855,cs),
(402.68,1000.398,o),
(474.177,1153.353,o),
(575,1355,cs)
);
},
{
closed = 1;
nodes = (
(911,1599,o),
(915,1581,o),
(915,1566,cs),
(915,1525,o),
(896,1506,o),
(871,1506,cs),
(844,1506,o),
(810,1529,o),
(787,1574,cs),
(764,1616,o),
(740,1658,o),
(716,1699,cs),
(692,1740,o),
(668,1782,o),
(645,1824,cs),
(632,1847,o),
(627,1866,o),
(627,1887,cs),
(627,1946,o),
(671,1987,o),
(720,1987,cs),
(763,1987,o),
(809,1956,o),
(836,1872,cs),
(859,1788,o),
(882,1706,o),
(906,1622,cs)
);
},
{
closed = 1;
nodes = (
(1267,1599,o),
(1271,1581,o),
(1271,1566,cs),
(1271,1525,o),
(1252,1506,o),
(1227,1506,cs),
(1200,1506,o),
(1166,1529,o),
(1143,1574,cs),
(1120,1616,o),
(1096,1658,o),
(1072,1699,cs),
(1048,1740,o),
(1024,1782,o),
(1001,1824,cs),
(988,1847,o),
(983,1866,o),
(983,1887,cs),
(983,1946,o),
(1027,1987,o),
(1076,1987,cs),
(1119,1987,o),
(1165,1956,o),
(1192,1872,cs),
(1215,1788,o),
(1238,1706,o),
(1262,1622,cs)
);
}
);
};
layerId = "DC66AB0F-19FD-4F06-8C39-5D32AA939720";
shapes = (
{
alignment = -1;
ref = U;
},
{
alignment = -1;
pos = (-70,680);
ref = dblgravecomb;
}
);
width = 1195;
}
);
unicode = 532;
},
{
glyphname = Udieresis;
lastChange = "2024-04-18 13:16:57 +0000";
layers = (
{
background = {
anchors = (
{
name = top;
pos = (1108,1717);
}
);
shapes = (
{
closed = 1;
nodes = (
(609.667,1424.333,o),
(655.667,1443,o),
(697,1443,cs),
(742.308,1443,o),
(783,1426.352,o),
(783,1369,cs),
(783,1334.333,o),
(769.333,1291,o),
(736,1227,cs),
(602.667,991,o),
(513.667,723.333,o),
(459,462,cs),
(453.667,428.667,o),
(453,398,o),
(453,370,cs),
(453,215.664,o),
(538.159,157,o),
(622,157,cs),
(772.667,157,o),
(915.833,269.5,o),
(1024.5,467.5,cs),
(1133.167,665.5,o),
(1206.333,947.667,o),
(1217,1289,cs),
(1219.685,1361.489,o),
(1267.509,1396,o),
(1320,1396,cs),
(1385,1396,o),
(1400,1292.319,o),
(1400,1184,cs),
(1400,948,o),
(1354,734.833,o),
(1278,555.5,cs),
(1240,465.833,o),
(1195.167,385.167,o),
(1143.5,313.5,cs),
(987.612,97.269,o),
(782.729,-26,o),
(585,-26,cs),
(420.749,-26,o),
(236,114.029,o),
(236,362,cs),
(236,384.667,o),
(237,409.667,o),
(241,435,cs),
(266.289,584.786,o),
(298.456,712.738,o),
(350,855,cs),
(402.68,1000.398,o),
(474.177,1153.353,o),
(575,1355,cs)
);
},
{
closed = 1;
nodes = (
(1055,1552,o),
(989,1492,o),
(922,1492,cs),
(873,1492,o),
(842,1522,o),
(842,1567,cs),
(842,1649,o),
(916,1717,o),
(994,1717,cs),
(1043,1717,o),
(1070,1687,o),
(1070,1642,cs),
(1070,1635,o),
(1069,1627,o),
(1068,1619,cs)
);
},
{
closed = 1;
nodes = (
(1358,1552,o),
(1292,1492,o),
(1225,1492,cs),
(1176,1492,o),
(1145,1522,o),
(1145,1567,cs),
(1145,1649,o),
(1219,1717,o),
(1297,1717,cs),
(1346,1717,o),
(1373,1687,o),
(1373,1642,cs),
(1373,1635,o),
(1372,1627,o),
(1371,1619,cs)
);
}
);
};
layerId = "DC66AB0F-19FD-4F06-8C39-5D32AA939720";
shapes = (
{
ref = U;
},
{
pos = (77,720);
ref = dieresiscomb;
}
);
width = 1195;
}
);
unicode = 220;
},
{
glyphname = Ugrave;
lastChange = "2024-04-18 13:16:57 +0000";
layers = (
{
background = {
anchors = (
{
name = top;
pos = (993,1923);
}
);
shapes = (
{
closed = 1;
nodes = (
(609.667,1424.333,o),
(655.667,1443,o),
(697,1443,cs),
(742.308,1443,o),
(783,1426.352,o),
(783,1369,cs),
(783,1334.333,o),
(769.333,1291,o),
(736,1227,cs),
(602.667,991,o),
(513.667,723.333,o),
(459,462,cs),
(453.667,428.667,o),
(453,398,o),
(453,370,cs),
(453,215.664,o),
(538.159,157,o),
(622,157,cs),
(772.667,157,o),
(915.833,269.5,o),
(1024.5,467.5,cs),
(1133.167,665.5,o),
(1206.333,947.667,o),
(1217,1289,cs),
(1219.685,1361.489,o),
(1267.509,1396,o),
(1320,1396,cs),
(1385,1396,o),
(1400,1292.319,o),
(1400,1184,cs),
(1400,948,o),
(1354,734.833,o),
(1278,555.5,cs),
(1240,465.833,o),
(1195.167,385.167,o),
(1143.5,313.5,cs),
(987.612,97.269,o),
(782.729,-26,o),
(585,-26,cs),
(420.749,-26,o),
(236,114.029,o),
(236,362,cs),
(236,384.667,o),
(237,409.667,o),
(241,435,cs),
(266.289,584.786,o),
(298.456,712.738,o),
(350,855,cs),
(402.68,1000.398,o),
(474.177,1153.353,o),
(575,1355,cs)
);
},
{
closed = 1;
nodes = (
(1120,1541,o),
(1121,1526,o),
(1121,1513,cs),
(1121,1416,o),
(1031,1421,o),
(994,1510,cs),
(975,1552,o),
(955,1594,o),
(935,1635,cs),
(915,1676,o),
(895,1718,o),
(876,1760,cs),
(868,1778,o),
(864,1795,o),
(864,1812,cs),
(864,1874,o),
(915,1923,o),
(967,1923,cs),
(1010,1923,o),
(1053,1892,o),
(1072,1808,cs),
(1079,1766,o),
(1087,1724,o),
(1095,1683,cs),
(1102,1642,o),
(1110,1600,o),
(1117,1558,cs)
);
}
);
};
layerId = "DC66AB0F-19FD-4F06-8C39-5D32AA939720";
shapes = (
{
ref = U;
},
{
pos = (425,735);
ref = gravecomb;
}
);
width = 1195;
}
);
unicode = 217;
},
{
glyphname = Uinvertedbreve;
lastChange = "2024-04-18 13:07:54 +0000";
layers = (
{
background = {
anchors = (
{
name = top;
pos = (1103,1755);
}
);
shapes = (
{
closed = 1;
nodes = (
(609.667,1424.333,o),
(655.667,1443,o),
(697,1443,cs),
(742.308,1443,o),
(783,1426.352,o),
(783,1369,cs),
(783,1334.333,o),
(769.333,1291,o),
(736,1227,cs),
(602.667,991,o),
(513.667,723.333,o),
(459,462,cs),
(453.667,428.667,o),
(453,398,o),
(453,370,cs),
(453,215.664,o),
(538.159,157,o),
(622,157,cs),
(772.667,157,o),
(915.833,269.5,o),
(1024.5,467.5,cs),
(1133.167,665.5,o),
(1206.333,947.667,o),
(1217,1289,cs),
(1219.685,1361.489,o),
(1267.509,1396,o),
(1320,1396,cs),
(1385,1396,o),
(1400,1292.319,o),
(1400,1184,cs),
(1400,948,o),
(1354,734.833,o),
(1278,555.5,cs),
(1240,465.833,o),
(1195.167,385.167,o),
(1143.5,313.5,cs),
(987.612,97.269,o),
(782.729,-26,o),
(585,-26,cs),
(420.749,-26,o),
(236,114.029,o),
(236,362,cs),
(236,384.667,o),
(237,409.667,o),
(241,435,cs),
(266.289,584.786,o),
(298.456,712.738,o),
(350,855,cs),
(402.68,1000.398,o),
(474.177,1153.353,o),
(575,1355,cs)
);
},
{
closed = 1;
nodes = (
(1317,1542,o),
(1283,1529,o),
(1254,1529,cs),
(1229,1529,o),
(1209,1538,o),
(1209,1557,cs),
(1209,1561,o),
(1210,1566,o),
(1211,1571,cs),
(1212,1576,o),
(1213,1580,o),
(1213,1584,cs),
(1213,1619,o),
(1185,1644,o),
(1124,1644,cs),
(1051,1644,o),
(1001,1604,o),
(990,1561,cs),
(975,1513,o),
(874,1512,o),
(874,1555,cs),
(874,1556,o),
(875,1560,o),
(876,1565,cs),
(906,1670,o),
(1042,1755,o),
(1156,1755,cs),
(1269,1755,o),
(1331,1694,o),
(1331,1614,cs),
(1331,1597,o),
(1329,1581,o),
(1324,1565,cs)
);
}
);
};
layerId = "DC66AB0F-19FD-4F06-8C39-5D32AA939720";
shapes = (
{
alignment = -1;
ref = U;
},
{
alignment = -1;
pos = (303,691);
ref = breveinvertedcomb;
}
);
width = 1195;
}
);
unicode = 534;
},
{
glyphname = V;
lastChange = "2024-04-18 13:09:08 +0000";
layers = (
{
anchors = (
{
name = bottom;
pos = (484,0);
},
{
name = top;
pos = (484,1440);
}
);
background = {
shapes = (
{
closed = 1;
nodes = (
(1258.333,1192.333,o),
(1233.167,1131.167,o),
(1196.5,1050.5,cs),
(1178.167,1010.167,o),
(1156.667,965.667,o),
(1132,917,cs),
(1065.337,785.477,o),
(968.032,605.341,o),
(876,454,cs),
(776,288.667,o),
(679.333,149,o),
(602,57,c),
(607.333,47,o),
(610,37,o),
(610,27,cs),
(610,-36.337,o),
(491.898,-69,o),
(386,-69,cs),
(343.333,-69,o),
(321,-47.667,o),
(321,-17,cs),
(321,20.333,o),
(341.667,44.333,o),
(367,55,c),
(359.099,110.307,o),
(345.949,185.033,o),
(325,334,cs),
(309.675,442.975,o),
(288.581,609.127,o),
(283,704,cs),
(276.333,800,o),
(272,885,o),
(272,961,cs),
(272,1033,o),
(276.333,1094.333,o),
(283,1141,cs),
(298.842,1236.052,o),
(387.837,1328,o),
(466,1328,cs),
(510,1328,o),
(526,1289.667,o),
(526,1223,cs),
(526,1180.333,o),
(518,1122,o),
(510,1074,cs),
(506,1048.667,o),
(502.667,1028,o),
(500,1012,cs),
(495,989,ls),
(491,965,o),
(490,932.333,o),
(490,891,cs),
(490,718.835,o),
(518.725,427.004,o),
(548,262,c),
(640,382,o),
(739,536.333,o),
(819,699,cs),
(853,766.333,o),
(886.5,835.333,o),
(919.5,906,cs),
(952.5,976.667,o),
(986,1045.667,o),
(1020,1113,cs),
(1081.333,1225.667,o),
(1137.333,1282,o),
(1188,1282,cs),
(1230.667,1282,o),
(1262,1271.667,o),
(1262,1233,cs),
(1262,1227,o),
(1261.667,1222.333,o),
(1261,1219,cs)
);
}
);
};
layerId = "DC66AB0F-19FD-4F06-8C39-5D32AA939720";
shapes = (
{
closed = 1;
nodes = (
(1258,1192,o),
(1233,1131,o),
(1197,1051,cs),
(1178,1010,o),
(1157,966,o),
(1132,917,cs),
(1065,785,o),
(968,605,o),
(876,454,cs),
(776,289,o),
(679,149,o),
(602,57,c),
(607,47,o),
(610,37,o),
(610,27,cs),
(610,-36,o),
(492,-69,o),
(386,-69,cs),
(343,-69,o),
(321,-48,o),
(321,-17,cs),
(321,20,o),
(342,44,o),
(367,55,c),
(359,110,o),
(346,185,o),
(325,334,cs),
(310,443,o),
(289,609,o),
(283,704,cs),
(276,800,o),
(272,885,o),
(272,961,cs),
(272,1033,o),
(276,1094,o),
(283,1141,cs),
(299,1236,o),
(388,1328,o),
(466,1328,cs),
(510,1328,o),
(526,1290,o),
(526,1223,cs),
(526,1180,o),
(518,1122,o),
(510,1074,cs),
(500,1012,l),
(495,989,ls),
(491,965,o),
(490,932,o),
(490,891,cs),
(490,719,o),
(519,427,o),
(548,262,c),
(640,382,o),
(739,536,o),
(819,699,cs),
(853,766,o),
(887,835,o),
(920,906,cs),
(953,977,o),
(986,1046,o),
(1020,1113,cs),
(1081,1226,o),
(1137,1282,o),
(1188,1282,cs),
(1231,1282,o),
(1262,1272,o),
(1262,1233,cs),
(1262,1227,o),
(1262,1222,o),
(1261,1219,c)
);
}
);
width = 968;
}
);
unicode = 86;
},
{
glyphname = W;
lastChange = "2024-04-18 13:59:59 +0000";
layers = (
{
anchors = (
{
name = bottom;
pos = (686,0);
},
{
name = top;
pos = (1086,1320);
}
);
background = {
shapes = (
{
closed = 1;
nodes = (
(1611,1012.333,o),
(1520.667,777.667,o),
(1372,487,cs),
(1208.532,154.705,o),
(1127.652,-16,o),
(984,-16,cs),
(934.667,-16,o),
(901.333,2.833,o),
(876,71.5,cs),
(850.667,140.167,o),
(834.333,258.667,o),
(821,460,c),
(598,133,ls),
(519.396,17.715,o),
(464.077,-25,o),
(380,-25,cs),
(322.667,-25,o),
(280,9,o),
(280,73,cs),
(280,262.002,o),
(279.302,520.694,o),
(322,937,c),
(298.667,909.667,o),
(279,890,o),
(263,878,cs),
(247,866,o),
(234,860,o),
(224,860,cs),
(206.667,860,o),
(199,875.667,o),
(199,901,cs),
(199,945,o),
(222.333,1016.667,o),
(265,1094,cs),
(307.667,1171.333,o),
(371.333,1252,o),
(454,1312,cs),
(462,1317.333,o),
(471,1320,o),
(481,1320,cs),
(527.933,1320,o),
(572,1245.296,o),
(572,1175,cs),
(572,1159,o),
(571,1145.667,o),
(569,1135,cs),
(563.624,1111.344,o),
(555.29,1080.393,o),
(550,1055,cs),
(543.333,1023,o),
(535.667,975.667,o),
(525,889,cs),
(501.505,696.344,o),
(493.823,406.105,o),
(485,212,c),
(542.674,282.782,o),
(652.231,458.501,o),
(711,554,cs),
(727.667,579.333,o),
(740.667,600,o),
(750,616,cs),
(764,641,l),
(788.667,703.667,o),
(813.667,765.333,o),
(839,826,cs),
(864.333,886.667,o),
(889.333,947,o),
(914,1007,cs),
(962,1124.333,o),
(1014.333,1191,o),
(1077,1191,cs),
(1127.667,1191,o),
(1161,1171,o),
(1161,1143,cs),
(1161,1052.046,o),
(1054.386,882.641,o),
(1024,739,c),
(1017.333,623,o),
(1013,547,o),
(1013,479,cs),
(1013,395,o),
(1012.333,299,o),
(1023,215,c),
(1102.571,330.378,o),
(1196.012,476.522,o),
(1276,627.5,cs),
(1356.697,779.816,o),
(1421.178,932.903,o),
(1447,1064,cs),
(1460,1139,l),
(1460,1141.667,o),
(1460.333,1144.333,o),
(1461,1147,cs),
(1461.667,1149.667,o),
(1462,1152.333,o),
(1462,1155,c),
(1477.632,1233.159,o),
(1494.689,1284,o),
(1566,1284,cs),
(1623.333,1284,o),
(1648,1276.333,o),
(1648,1235,cs),
(1648,1228.333,o),
(1647.5,1221.667,o),
(1646.5,1215,cs),
(1645.5,1208.333,o),
(1644.333,1200.333,o),
(1643,1191,cs)
);
}
);
};
layerId = "DC66AB0F-19FD-4F06-8C39-5D32AA939720";
shapes = (
{
closed = 1;
nodes = (
(1611,1012,o),
(1521,778,o),
(1372,487,cs),
(1209,155,o),
(1128,-16,o),
(984,-16,cs),
(935,-16,o),
(901,3,o),
(876,72,cs),
(851,140,o),
(834,259,o),
(821,460,c),
(598,133,ls),
(519,18,o),
(464,-25,o),
(380,-25,cs),
(323,-25,o),
(280,9,o),
(280,73,cs),
(280,262.002,o),
(279,521,o),
(322,937,c),
(299,910,o),
(279,890,o),
(263,878,cs),
(247,866,o),
(234,860,o),
(224,860,cs),
(207,860,o),
(199,876,o),
(199,901,cs),
(199,945,o),
(222,1017,o),
(265,1094,cs),
(308,1171,o),
(371,1252,o),
(454,1312,cs),
(462,1317,o),
(471,1320,o),
(481,1320,cs),
(528,1320,o),
(572,1245,o),
(572,1175,cs),
(572,1159,o),
(571,1146,o),
(569,1135,cs),
(550,1055,ls),
(543,1023,o),
(536,976,o),
(525,889,cs),
(502,696,o),
(494,406,o),
(485,212,c),
(543,283,o),
(652,459,o),
(711,554,cs),
(750,616,l),
(764,641,l),
(839,826,l),
(914,1007,ls),
(962,1124,o),
(1014,1191,o),
(1077,1191,cs),
(1128,1191,o),
(1161,1171,o),
(1161,1143,cs),
(1161,1052,o),
(1054,883,o),
(1024,739,c),
(1017,623,o),
(1013,547,o),
(1013,479,cs),
(1013,395,o),
(1012,299,o),
(1023,215,c),
(1103,330,o),
(1196,477,o),
(1276,628,cs),
(1357,780,o),
(1421,933,o),
(1447,1064,cs),
(1460,1139,l),
(1460,1142,o),
(1460,1144,o),
(1461,1147,cs),
(1462,1150,o),
(1462,1152,o),
(1462,1155,c),
(1478,1233,o),
(1495,1284,o),
(1566,1284,cs),
(1623,1284,o),
(1648,1276,o),
(1648,1235,cs),
(1648,1228,o),
(1648,1222,o),
(1647,1215,cs),
(1643,1191,ls)
);
}
);
width = 1372;
}
);
unicode = 87;
},
{
glyphname = X;
lastChange = "2024-04-18 13:09:08 +0000";
layers = (
{
anchors = (
{
name = bottom;
pos = (544,0);
},
{
name = top;
pos = (544,1440);
}
);
background = {
shapes = (
{
closed = 1;
nodes = (
(1250.339,1419.339,o),
(1335.527,1457,o),
(1391,1457,cs),
(1421.667,1457,o),
(1433,1445.667,o),
(1433,1427,cs),
(1433,1370.245,o),
(1316.25,1237.167,o),
(1272,1188,cs),
(1090.667,985.333,o),
(931.333,808.333,o),
(786,655,c),
(827.353,507.568,o),
(866.473,397.376,o),
(906,310,cs),
(942.514,229.284,o),
(999.171,133.017,o),
(1060,27,cs),
(1063.333,21,o),
(1065,15,o),
(1065,9,cs),
(1065,-23.199,o),
(1012.319,-41,o),
(978,-41,cs),
(926,-41,o),
(877,-8.5,o),
(821,73.5,cs),
(765,155.5,o),
(703.667,287.333,o),
(625,486,c),
(478.333,332.667,o),
(367.5,222,o),
(281.5,142,cs),
(238.5,102,o),
(200.833,69.333,o),
(168.5,44,cs),
(79.116,-26.032,o),
(20.351,-53,o),
(-44,-53,cs),
(-74.667,-53,o),
(-102,-38.333,o),
(-102,7,cs),
(-102,91.755,o),
(25.675,135.095,o),
(61,161,cs),
(122.333,202.333,o),
(196.667,268,o),
(282,352,cs),
(367.333,436,o),
(462.333,537.333,o),
(565,652,c),
(501,840,o),
(462.667,984,o),
(432,1112,cs),
(422,1153.333,o),
(413,1190.167,o),
(405,1222.5,cs),
(397,1254.833,o),
(393,1280.667,o),
(393,1300,cs),
(393,1372.935,o),
(511.755,1497,o),
(583,1497,cs),
(603.667,1497,o),
(621.667,1486.167,o),
(637,1464.5,cs),
(652.333,1442.833,o),
(660,1405.333,o),
(660,1352,cs),
(660,1313.126,o),
(653.147,1316.294,o),
(638,1286,cs),
(637.333,1284,o),
(637,1279.667,o),
(637,1273,cs),
(637,1247.667,o),
(645.333,1199.667,o),
(662,1129,cs),
(678.667,1058.333,o),
(702,966.667,o),
(732,854,c),
(732,852.667,o),
(732.667,850,o),
(734,846,c),
(794,917,l),
(944.015,1069.647,o),
(1038.823,1228.698,o),
(1198,1367,c)
);
}
);
};
layerId = "DC66AB0F-19FD-4F06-8C39-5D32AA939720";
shapes = (
{
closed = 1;
nodes = (
(1250,1419,o),
(1336,1457,o),
(1391,1457,cs),
(1422,1457,o),
(1433,1446,o),
(1433,1427,cs),
(1433,1370,o),
(1316,1237,o),
(1272,1188,cs),
(1091,985,o),
(931,808,o),
(786,655,c),
(827,508,o),
(866,397,o),
(906,310,cs),
(943,229,o),
(999,133,o),
(1060,27,cs),
(1063,21,o),
(1065,15,o),
(1065,9,cs),
(1065,-23,o),
(1012,-41,o),
(978,-41,cs),
(926,-41,o),
(877,-8,o),
(821,74,cs),
(765,156,o),
(704,287,o),
(625,486,c),
(478,333,o),
(368,222,o),
(282,142,cs),
(239,102,o),
(201,69,o),
(169,44,cs),
(79,-26,o),
(20,-53,o),
(-44,-53,cs),
(-75,-53,o),
(-102,-38,o),
(-102,7,cs),
(-102,92,o),
(26,135,o),
(61,161,cs),
(122,202,o),
(197,268,o),
(282,352,cs),
(367,436,o),
(462,537,o),
(565,652,c),
(501,840,o),
(463,984,o),
(432,1112,cs),
(405,1223,ls),
(397,1255,o),
(393,1281,o),
(393,1300,cs),
(393,1373,o),
(512,1497,o),
(583,1497,cs),
(604,1497,o),
(622,1486,o),
(637,1465,cs),
(652,1443,o),
(660,1405,o),
(660,1352,cs),
(660,1313,o),
(653,1316,o),
(638,1286,cs),
(637,1284,o),
(637,1280,o),
(637,1273,cs),
(637,1248,o),
(645,1200,o),
(662,1129,cs),
(679,1058,o),
(702,967,o),
(732,854,c),
(732,853,o),
(733,850,o),
(734,846,c),
(794,917,l),
(944,1070,o),
(1039,1229,o),
(1198,1367,c)
);
}
);
width = 1087;
}
);
unicode = 88;
},
{
glyphname = Y;
lastChange = "2024-04-18 13:17:12 +0000";
layers = (
{
anchors = (
{
name = bottom;
pos = (485,0);
},
{
name = top;
pos = (1115,1390);
},
{
name = topleft;
pos = (20,1440);
}
);
background = {
shapes = (
{
closed = 1;
nodes = (
(638,665,l),
(558,758.333,o),
(489,869,o),
(461,997,c),
(438.333,1074.333,o),
(431,1140.667,o),
(431,1198,cs),
(431,1346.419,o),
(510.53,1444,o),
(609,1444,cs),
(657.667,1444,o),
(682,1418.333,o),
(682,1367,cs),
(682,1323.477,o),
(648,1245.044,o),
(648,1172,cs),
(648,1010.111,o),
(730.507,847.053,o),
(815,760,c),
(889,808,ls),
(967.667,858.667,o),
(1049.333,912.667,o),
(1112,974,c),
(1204.38,1083.858,o),
(1260.116,1192.466,o),
(1276,1256,cs),
(1299.964,1367.833,o),
(1311.586,1414,o),
(1450,1414,cs),
(1482,1414,o),
(1498,1391.333,o),
(1498,1346,cs),
(1498,1334.923,o),
(1492.617,1287.113,o),
(1470.5,1227,cs),
(1444.5,1156.333,o),
(1394.333,1058.333,o),
(1297,945,c),
(1166.996,820.528,o),
(1017.76,733.699,o),
(859,639,cs),
(815,613,l),
(613,231,ls),
(593.667,193.667,o),
(579.833,165.167,o),
(571.5,145.5,cs),
(563.167,125.833,o),
(558.333,112.333,o),
(557,105,c),
(557,-37.675,o),
(462.76,-99,o),
(398,-99,cs),
(348.667,-99,o),
(308,-69.333,o),
(308,-12,cs),
(308,32.945,o),
(307.537,23.099,o),
(374,164,c)
);
}
);
};
layerId = "DC66AB0F-19FD-4F06-8C39-5D32AA939720";
shapes = (
{
closed = 1;
nodes = (
(638,665,l),
(558,758,o),
(489,869,o),
(461,997,c),
(438,1074,o),
(431,1141,o),
(431,1198,cs),
(431,1346,o),
(511,1444,o),
(609,1444,cs),
(658,1444,o),
(682,1418,o),
(682,1367,cs),
(682,1323,o),
(648,1245,o),
(648,1172,cs),
(648,1010,o),
(731,847,o),
(815,760,c),
(889,808,ls),
(968,859,o),
(1049,913,o),
(1112,974,c),
(1204,1084,o),
(1260,1192,o),
(1276,1256,cs),
(1300,1368,o),
(1312,1414,o),
(1450,1414,cs),
(1482,1414,o),
(1498,1391,o),
(1498,1346,cs),
(1498,1335,o),
(1493,1287,o),
(1471,1227,cs),
(1445,1156,o),
(1394,1058,o),
(1297,945,c),
(1167,821,o),
(1018,734,o),
(859,639,cs),
(815,613,l),
(613,231,ls),
(594,194,o),
(580,165,o),
(572,146,cs),
(563,126,o),
(558,112,o),
(557,105,c),
(557,-38,o),
(463,-99,o),
(398,-99,cs),
(349,-99,o),
(308,-69,o),
(308,-12,cs),
(308,33,o),
(308,23,o),
(374,164,c)
);
}
);
width = 969;
}
);
unicode = 89;
},
{
glyphname = Yacute;
lastChange = "2024-04-18 13:17:12 +0000";
layers = (
{
background = {
anchors = (
{
name = top;
pos = (1151,1923);
}
);
shapes = (
{
closed = 1;
nodes = (
(638,665,l),
(558,758.333,o),
(489,869,o),
(461,997,c),
(438.333,1074.333,o),
(431,1140.667,o),
(431,1198,cs),
(431,1346.419,o),
(510.53,1444,o),
(609,1444,cs),
(657.667,1444,o),
(682,1418.333,o),
(682,1367,cs),
(682,1323.477,o),
(648,1245.044,o),
(648,1172,cs),
(648,1010.111,o),
(730.507,847.053,o),
(815,760,c),
(889,808,ls),
(967.667,858.667,o),
(1049.333,912.667,o),
(1112,974,c),
(1204.38,1083.858,o),
(1260.116,1192.466,o),
(1276,1256,cs),
(1299.964,1367.833,o),
(1311.586,1414,o),
(1450,1414,cs),
(1482,1414,o),
(1498,1391.333,o),
(1498,1346,cs),
(1498,1334.923,o),
(1492.617,1287.113,o),
(1470.5,1227,cs),
(1444.5,1156.333,o),
(1394.333,1058.333,o),
(1297,945,c),
(1166.996,820.528,o),
(1017.76,733.699,o),
(859,639,cs),
(815,613,l),
(613,231,ls),
(593.667,193.667,o),
(579.833,165.167,o),
(571.5,145.5,cs),
(563.167,125.833,o),
(558.333,112.333,o),
(557,105,c),
(557,-37.675,o),
(462.76,-99,o),
(398,-99,cs),
(348.667,-99,o),
(308,-69.333,o),
(308,-12,cs),
(308,32.945,o),
(307.537,23.099,o),
(374,164,c)
);
},
{
closed = 1;
nodes = (
(1009,1600,o),
(1033,1642,o),
(1058,1683,cs),
(1082,1724,o),
(1106,1766,o),
(1129,1808,cs),
(1180,1892,o),
(1236,1923,o),
(1279,1923,cs),
(1319,1923,o),
(1347,1895,o),
(1347,1854,cs),
(1347,1827,o),
(1337,1795,o),
(1306,1760,cs),
(1270,1718,o),
(1234,1676,o),
(1198,1635,cs),
(1161,1594,o),
(1125,1552,o),
(1089,1510,cs),
(1054,1465,o),
(1012,1442,o),
(985,1442,cs),
(964,1442,o),
(954,1453,o),
(954,1474,cs),
(954,1493,o),
(964,1521,o),
(985,1558,cs)
);
}
);
};
layerId = "DC66AB0F-19FD-4F06-8C39-5D32AA939720";
shapes = (
{
ref = Y;
},
{
pos = (404,670);
ref = acutecomb;
}
);
width = 969;
}
);
unicode = 221;
},
{
glyphname = Ydieresis;
lastChange = "2024-04-18 13:17:12 +0000";
layers = (
{
background = {
anchors = (
{
name = top;
pos = (1140,1741);
}
);
shapes = (
{
closed = 1;
nodes = (
(638,665,l),
(558,758.333,o),
(489,869,o),
(461,997,c),
(438.333,1074.333,o),
(431,1140.667,o),
(431,1198,cs),
(431,1346.419,o),
(510.53,1444,o),
(609,1444,cs),
(657.667,1444,o),
(682,1418.333,o),
(682,1367,cs),
(682,1323.477,o),
(648,1245.044,o),
(648,1172,cs),
(648,1010.111,o),
(730.507,847.053,o),
(815,760,c),
(889,808,ls),
(967.667,858.667,o),
(1049.333,912.667,o),
(1112,974,c),
(1204.38,1083.858,o),
(1260.116,1192.466,o),
(1276,1256,cs),
(1299.964,1367.833,o),
(1311.586,1414,o),
(1450,1414,cs),
(1482,1414,o),
(1498,1391.333,o),
(1498,1346,cs),
(1498,1334.923,o),
(1492.617,1287.113,o),
(1470.5,1227,cs),
(1444.5,1156.333,o),
(1394.333,1058.333,o),
(1297,945,c),
(1166.996,820.528,o),
(1017.76,733.699,o),
(859,639,cs),
(815,613,l),
(613,231,ls),
(593.667,193.667,o),
(579.833,165.167,o),
(571.5,145.5,cs),
(563.167,125.833,o),
(558.333,112.333,o),
(557,105,c),
(557,-37.675,o),
(462.76,-99,o),
(398,-99,cs),
(348.667,-99,o),
(308,-69.333,o),
(308,-12,cs),
(308,32.945,o),
(307.537,23.099,o),
(374,164,c)
);
},
{
closed = 1;
nodes = (
(1087,1576,o),
(1021,1516,o),
(954,1516,cs),
(905,1516,o),
(874,1546,o),
(874,1591,cs),
(874,1673,o),
(948,1741,o),
(1026,1741,cs),
(1075,1741,o),
(1102,1711,o),
(1102,1666,cs),
(1102,1659,o),
(1101,1651,o),
(1100,1643,cs)
);
},
{
closed = 1;
nodes = (
(1390,1576,o),
(1324,1516,o),
(1257,1516,cs),
(1208,1516,o),
(1177,1546,o),
(1177,1591,cs),
(1177,1673,o),
(1251,1741,o),
(1329,1741,cs),
(1378,1741,o),
(1405,1711,o),
(1405,1666,cs),
(1405,1659,o),
(1404,1651,o),
(1403,1643,cs)
);
}
);
};
layerId = "DC66AB0F-19FD-4F06-8C39-5D32AA939720";
shapes = (
{
ref = Y;
},
{
pos = (184,670);
ref = dieresiscomb;
}
);
width = 969;
}
);
unicode = 376;
},
{
glyphname = Z;
lastChange = "2024-04-18 13:56:19 +0000";
layers = (
{
anchors = (
{
name = bottom;
pos = (823,0);
},
{
name = center;
pos = (823,720);
},
{
name = top;
pos = (1153,1260);
}
);
background = {
shapes = (
{
closed = 1;
nodes = (
(1506.667,1278,o),
(1518.667,1282,o),
(1532,1282,cs),
(1566.667,1282,o),
(1602,1252.667,o),
(1602,1214,cs),
(1602,1191.333,o),
(1589.333,1165,o),
(1556,1141,cs),
(1501.333,1101,o),
(1446.333,1049.667,o),
(1397,1003,c),
(1204.268,805.059,o),
(1000.671,545.005,o),
(790,297,c),
(884.348,274.654,o),
(984.837,179,o),
(1085,179,cs),
(1307.328,179,o),
(1415.505,346.15,o),
(1518,538,c),
(1535.333,562,o),
(1558.333,571,o),
(1581,571,cs),
(1629.544,571,o),
(1682,526.702,o),
(1682,497,cs),
(1682,494.333,o),
(1680.667,490.333,o),
(1678,485,c),
(1574.222,200.277,o),
(1335.259,-21,o),
(1055,-21,cs),
(1010.457,-21,o),
(962.028,13.806,o),
(905.5,50.5,cs),
(847.89,87.896,o),
(776.883,122,o),
(694,122,cs),
(647.002,122,o),
(573.966,100.576,o),
(546,81,cs),
(520,63,o),
(494,44.833,o),
(468,26.5,cs),
(442,8.167,o),
(416,-10,o),
(390,-28,cs),
(380.667,-34,o),
(371.667,-37,o),
(363,-37,cs),
(324.821,-37,o),
(291,10.585,o),
(291,51,cs),
(291,69.667,o),
(295.667,84.333,o),
(313,99,cs),
(337.667,119,o),
(362,139.167,o),
(386,159.5,cs),
(410,179.833,o),
(434.333,200.333,o),
(459,221,c),
(507.105,253.914,o),
(542.154,277.981,o),
(637,386,cs),
(685,440.667,o),
(749.5,516.5,o),
(839.5,626.5,cs),
(929.5,736.5,o),
(1045.667,879.333,o),
(1199,1070,c),
(1185.667,1068.667,o),
(1172.667,1067.333,o),
(1160,1066,cs),
(1147.333,1064.667,o),
(1134.333,1064,o),
(1121,1064,cs),
(996.128,1064,o),
(841.2,1137,o),
(714,1137,cs),
(628.839,1137,o),
(536.514,1035,o),
(482,1035,cs),
(458,1035,o),
(442,1051.667,o),
(442,1077,cs),
(442,1091.667,o),
(448,1113.333,o),
(464,1132,cs),
(541.331,1222.664,o),
(677.511,1303,o),
(797,1303,cs),
(809.667,1303,o),
(822,1302,o),
(834,1300,cs),
(1089.778,1264.246,o),
(1154.206,1216,o),
(1259,1216,cs),
(1384.653,1216,o),
(1438.398,1225.49,o),
(1496,1270,cs)
);
}
);
};
layerId = "DC66AB0F-19FD-4F06-8C39-5D32AA939720";
shapes = (
{
closed = 1;
nodes = (
(1507,1278,o),
(1519,1282,o),
(1532,1282,cs),
(1567,1282,o),
(1602,1253,o),
(1602,1214,cs),
(1602,1191,o),
(1589,1165,o),
(1556,1141,cs),
(1501,1101,o),
(1446,1050,o),
(1397,1003,cs),
(1204,805,o),
(1001,545,o),
(790,297,c),
(884,275,o),
(985,179,o),
(1085,179,cs),
(1307,179,o),
(1416,346,o),
(1518,538,c),
(1535,562,o),
(1558,571,o),
(1581,571,cs),
(1630,571,o),
(1682,527,o),
(1682,497,cs),
(1682,494,o),
(1681,490,o),
(1678,485,c),
(1574,200,o),
(1335,-21,o),
(1055,-21,cs),
(1010,-21,o),
(962,14,o),
(906,51,cs),
(848,88,o),
(777,122,o),
(694,122,cs),
(647.002,122,o),
(574,101,o),
(546,81,cs),
(468,27,l),
(390,-28,ls),
(381,-34,o),
(372,-37,o),
(363,-37,cs),
(325,-37,o),
(291,11,o),
(291,51,cs),
(291,70,o),
(296,84,o),
(313,99,cs),
(386,160,l),
(459,221,l),
(507,254,o),
(542,278,o),
(637,386,cs),
(685,441,o),
(750,517,o),
(840,627,cs),
(930,737,o),
(1046,879,o),
(1199,1070,c),
(1160,1066,ls),
(1147,1065,o),
(1134,1064,o),
(1121,1064,cs),
(996,1064,o),
(841,1137,o),
(714,1137,cs),
(629,1137,o),
(537,1035,o),
(482,1035,cs),
(458,1035,o),
(442,1052,o),
(442,1077,cs),
(442,1092,o),
(448,1113,o),
(464,1132,cs),
(541,1223,o),
(678,1303,o),
(797,1303,cs),
(810,1303,o),
(822,1302,o),
(834,1300,cs),
(1090,1264,o),
(1154,1216,o),
(1259,1216,cs),
(1385,1216,o),
(1438,1225,o),
(1496,1270,cs)
);
}
);
width = 1646;
}
);
unicode = 90;
},
{
glyphname = Zcaron;
lastChange = "2024-04-18 13:17:22 +0000";
layers = (
{
background = {
anchors = (
{
name = top;
pos = (1259,1745);
}
);
shapes = (
{
closed = 1;
nodes = (
(1506.667,1278,o),
(1518.667,1282,o),
(1532,1282,cs),
(1566.667,1282,o),
(1602,1252.667,o),
(1602,1214,cs),
(1602,1191.333,o),
(1589.333,1165,o),
(1556,1141,cs),
(1501.333,1101,o),
(1446.333,1049.667,o),
(1397,1003,c),
(1204.268,805.059,o),
(1000.671,545.005,o),
(790,297,c),
(884.348,274.654,o),
(984.837,179,o),
(1085,179,cs),
(1307.328,179,o),
(1415.505,346.15,o),
(1518,538,c),
(1535.333,562,o),
(1558.333,571,o),
(1581,571,cs),
(1629.544,571,o),
(1682,526.702,o),
(1682,497,cs),
(1682,494.333,o),
(1680.667,490.333,o),
(1678,485,c),
(1574.222,200.277,o),
(1335.259,-21,o),
(1055,-21,cs),
(1010.457,-21,o),
(962.028,13.806,o),
(905.5,50.5,cs),
(847.89,87.896,o),
(776.883,122,o),
(694,122,cs),
(647.002,122,o),
(573.966,100.576,o),
(546,81,cs),
(520,63,o),
(494,44.833,o),
(468,26.5,cs),
(442,8.167,o),
(416,-10,o),
(390,-28,cs),
(380.667,-34,o),
(371.667,-37,o),
(363,-37,cs),
(324.821,-37,o),
(291,10.585,o),
(291,51,cs),
(291,69.667,o),
(295.667,84.333,o),
(313,99,cs),
(337.667,119,o),
(362,139.167,o),
(386,159.5,cs),
(410,179.833,o),
(434.333,200.333,o),
(459,221,c),
(507.105,253.914,o),
(542.154,277.981,o),
(637,386,cs),
(685,440.667,o),
(749.5,516.5,o),
(839.5,626.5,cs),
(929.5,736.5,o),
(1045.667,879.333,o),
(1199,1070,c),
(1185.667,1068.667,o),
(1172.667,1067.333,o),
(1160,1066,cs),
(1147.333,1064.667,o),
(1134.333,1064,o),
(1121,1064,cs),
(996.128,1064,o),
(841.2,1137,o),
(714,1137,cs),
(628.839,1137,o),
(536.514,1035,o),
(482,1035,cs),
(458,1035,o),
(442,1051.667,o),
(442,1077,cs),
(442,1091.667,o),
(448,1113.333,o),
(464,1132,cs),
(541.331,1222.664,o),
(677.511,1303,o),
(797,1303,cs),
(809.667,1303,o),
(822,1302,o),
(834,1300,cs),
(1089.778,1264.246,o),
(1154.206,1216,o),
(1259,1216,cs),
(1384.653,1216,o),
(1438.398,1225.49,o),
(1496,1270,cs)
);
},
{
closed = 1;
nodes = (
(1383,1548,o),
(1292,1472,o),
(1246,1437,cs),
(1202,1404,o),
(1186,1396,o),
(1154,1396,cs),
(1118,1396,o),
(1101,1411,o),
(1081,1454,cs),
(1062,1495,o),
(1033,1582,o),
(994,1677,cs),
(991,1684,o),
(990,1688,o),
(990,1691,cs),
(990,1724,o),
(1042,1745,o),
(1079,1745,cs),
(1107,1745,o),
(1136,1736,o),
(1144,1713,cs),
(1148,1702,o),
(1153,1688,o),
(1160,1670,cs),
(1167,1652,o),
(1173,1634,o),
(1180,1617,cs),
(1186,1599,o),
(1192,1584,o),
(1197,1571,cs),
(1205,1552,l),
(1230,1574,o),
(1255,1595,o),
(1278,1616,cs),
(1298,1633,o),
(1318,1651,o),
(1339,1669,cs),
(1360,1687,o),
(1377,1702,o),
(1390,1713,cs),
(1408,1728,o),
(1427,1736,o),
(1446,1736,cs),
(1486,1736,o),
(1528,1712,o),
(1528,1684,cs),
(1528,1673,o),
(1523,1664,o),
(1514,1656,cs)
);
}
);
};
layerId = "DC66AB0F-19FD-4F06-8C39-5D32AA939720";
shapes = (
{
ref = Z;
},
{
pos = (3,540);
ref = caroncomb;
}
);
width = 1646;
}
);
unicode = 381;
},
{
glyphname = D.alt;
lastChange = "2024-04-18 13:06:27 +0000";
layers = (
{
background = {
shapes = (
{
closed = 1;
nodes = (
(828.512,795.803,o),
(788.002,717.453,o),
(696,553.5,cs),
(612.568,404.82,o),
(524.523,262.58,o),
(443,150,c),
(645.331,169.644,o),
(837.707,288.357,o),
(973.5,441,cs),
(1111.124,595.701,o),
(1194,776.467,o),
(1194,925,cs),
(1194,1085.205,o),
(1106.313,1206,o),
(909,1206,cs),
(736.927,1206,o),
(549.886,1135.272,o),
(461,1049,c),
(359.553,934.547,o),
(320.609,803,o),
(196,803,cs),
(136,803,o),
(107,832,o),
(107,884,cs),
(107,980.729,o),
(200.792,1100.196,o),
(349.5,1200,cs),
(498.595,1300.064,o),
(705.295,1371,o),
(919,1371,cs),
(1096.333,1371,o),
(1226.5,1318.333,o),
(1312.5,1233,cs),
(1398.5,1147.667,o),
(1440,1028,o),
(1440,896,cs),
(1440,675.381,o),
(1321.095,442.142,o),
(1114.5,259.5,cs),
(913.495,81.8,o),
(616.953,-44,o),
(276,-44,cs),
(162.667,-44,o),
(56.333,-18.333,o),
(-21,19,cs),
(-98.333,56.333,o),
(-147,106.667,o),
(-147,156,cs),
(-147,201.281,o),
(-85.818,247,o),
(-22,247,cs),
(57.601,247,o),
(147.312,190.56,o),
(250,158,c),
(638,943,l),
(705.159,1050.934,o),
(778.261,1081,o),
(817,1081,cs),
(879.667,1081,o),
(903,1037.667,o),
(903,987,cs),
(903,949.667,o),
(891.333,908.333,o),
(870,871,cs)
);
}
);
};
layerId = "DC66AB0F-19FD-4F06-8C39-5D32AA939720";
shapes = (
{
closed = 1;
nodes = (
(829,796,o),
(788,717,o),
(696,554,cs),
(613,405,o),
(525,263,o),
(443,150,c),
(645,170,o),
(838,288,o),
(974,441,cs),
(1111,596,o),
(1194,776,o),
(1194,925,cs),
(1194,1085,o),
(1106,1206,o),
(909,1206,cs),
(737,1206,o),
(550,1135,o),
(461,1049,c),
(360,935,o),
(321,803,o),
(196,803,cs),
(136,803,o),
(107,832,o),
(107,884,cs),
(107,981,o),
(201,1100,o),
(350,1200,cs),
(499,1300,o),
(705,1371,o),
(919,1371,cs),
(1096,1371,o),
(1227,1318,o),
(1313,1233,cs),
(1399,1148,o),
(1440,1028,o),
(1440,896,cs),
(1440,675,o),
(1321,442,o),
(1115,260,cs),
(913,82,o),
(617,-44,o),
(276,-44,cs),
(163,-44,o),
(56,-18,o),
(-21,19,cs),
(-98,56,o),
(-147,107,o),
(-147,156,cs),
(-147,201,o),
(-86,247,o),
(-22,247,cs),
(58,247,o),
(147,191,o),
(250,158,c),
(638,943,l),
(705,1051,o),
(778,1081,o),
(817,1081,cs),
(880,1081,o),
(903,1038,o),
(903,987,cs),
(903,950,o),
(891,908,o),
(870,871,cs)
);
}
);
width = 1216;
}
);
},
{
glyphname = N.alt;
lastChange = "2024-04-18 13:06:27 +0000";
layers = (
{
background = {
shapes = (
{
closed = 1;
nodes = (
(802.603,1060.98,o),
(882.275,748.293,o),
(947,484,cs),
(959,434,o),
(970.667,386.667,o),
(982,342,c),
(1010,414,o),
(1037.333,483.333,o),
(1064,550,cs),
(1176,832.667,o),
(1274.5,1056.5,o),
(1356.5,1206.5,cs),
(1397.5,1281.5,o),
(1434.333,1335.667,o),
(1467,1369,cs),
(1492.333,1395.667,o),
(1522.667,1405,o),
(1552,1405,cs),
(1597.333,1405,o),
(1637,1378.333,o),
(1637,1341,cs),
(1637,1327.667,o),
(1631.667,1314.333,o),
(1621,1301,cs),
(1551.258,1205.353,o),
(1455.311,1114.171,o),
(1381,905,c),
(1310.333,739.667,o),
(1245.333,566.667,o),
(1192,420,cs),
(1141.985,282.459,o),
(1098.85,157.356,o),
(1070,91,c),
(1042,8.333,o),
(991.333,-32,o),
(950,-32,cs),
(949.333,-32,o),
(948.833,-32,o),
(948.5,-32,cs),
(948.167,-32,o),
(947.667,-32,o),
(947,-32,cs),
(893.667,-32,o),
(834.667,3,o),
(812,83,cs),
(786.667,172.333,o),
(767.167,247.667,o),
(746.5,329,cs),
(736.167,369.667,o),
(725.5,412.333,o),
(714.5,457,cs),
(703.5,501.667,o),
(691.667,551.667,o),
(679,607,cs),
(666.333,662.333,o),
(652,724.333,o),
(636,793,cs),
(624.667,842.333,o),
(612.667,896.667,o),
(600,956,cs),
(600,955.333,o),
(599.667,954.333,o),
(599,953,c),
(563.194,754.079,o),
(500.563,503.437,o),
(409.5,285.5,cs),
(322.113,76.361,o),
(202.328,-82,o),
(63,-82,cs),
(25.667,-82,o),
(-8.667,-72.667,o),
(-40,-54,c),
(-79.457,-38.217,o),
(-145,46.537,o),
(-145,121,cs),
(-145,143,o),
(-137.667,165,o),
(-123,187,cs),
(-107.196,209.126,o),
(-83.107,251,o),
(-43,251,cs),
(-33.667,251,o),
(-25.667,248.667,o),
(-19,244,cs),
(7.665,228.001,o),
(38.329,115,o),
(89,115,cs),
(134.333,115,o),
(180.833,160.5,o),
(225.5,234.5,cs),
(270.167,308.5,o),
(313,410,o),
(353,522,cs),
(428.938,734.628,o),
(501.463,1019.624,o),
(537,1177,cs),
(546.333,1218.333,o),
(554,1252.5,o),
(560,1279.5,cs),
(566,1306.5,o),
(569.667,1323.667,o),
(571,1331,cs),
(580.333,1372.333,o),
(611.333,1390,o),
(646,1390,cs),
(649.333,1390,o),
(652.667,1390,o),
(656,1390,cs),
(685.333,1390,o),
(721,1364.667,o),
(741,1294,cs)
);
}
);
};
layerId = "DC66AB0F-19FD-4F06-8C39-5D32AA939720";
shapes = (
{
closed = 1;
nodes = (
(803,1061,o),
(882,748,o),
(947,484,cs),
(982,342,l),
(1064,550,ls),
(1176,833,o),
(1275,1057,o),
(1357,1207,cs),
(1398,1282,o),
(1434,1336,o),
(1467,1369,cs),
(1492,1396,o),
(1523,1405,o),
(1552,1405,cs),
(1597,1405,o),
(1637,1378,o),
(1637,1341,cs),
(1637,1328,o),
(1632,1314,o),
(1621,1301,c),
(1551,1205,o),
(1455,1114,o),
(1381,905,c),
(1310,740,o),
(1245,567,o),
(1192,420,cs),
(1142,282,o),
(1099,157,o),
(1070,91,c),
(1042,8,o),
(991,-32,o),
(950,-32,cs),
(949,-32,l),
(947,-32,ls),
(894,-32,o),
(835,3,o),
(812,83,cs),
(787,172,o),
(767,248,o),
(747,329,cs),
(715,457,l),
(679,607,l),
(636,793,l),
(600,956,ls),
(600,955,o),
(600,954,o),
(599,953,c),
(563,754,o),
(501,503,o),
(410,286,cs),
(322,76,o),
(202,-82,o),
(63,-82,cs),
(26,-82,o),
(-9,-73,o),
(-40,-54,c),
(-79,-38,o),
(-145,47,o),
(-145,121,cs),
(-145,143,o),
(-138,165,o),
(-123,187,cs),
(-107,209,o),
(-83,251,o),
(-43,251,cs),
(-34,251,o),
(-26,249,o),
(-19,244,cs),
(8,228,o),
(38,115,o),
(89,115,cs),
(134,115,o),
(181,161,o),
(226,235,cs),
(270,309,o),
(313,410,o),
(353,522,cs),
(429,735,o),
(501,1020,o),
(537,1177,cs),
(560,1280,l),
(571,1331,ls),
(580,1372,o),
(611,1390,o),
(646,1390,cs),
(656,1390,ls),
(685,1390,o),
(721,1365,o),
(741,1294,cs)
);
}
);
width = 1248;
}
);
},
